<svg width="19" height="19" viewBox="0 0 19 19" fill="none" xmlns="http://www.w3.org/2000/svg">
    <path d="M9.5 3.48828V2.15234C9.5 1.83594 9.07812 1.66016 8.86719 1.90625L6.75781 3.98047C6.61719 4.12109 6.61719 4.36719 6.75781 4.50781L8.86719 6.61719C9.07812 6.82812 9.5 6.6875 9.5 6.33594V5C11.9961 5 14 7.00391 14 9.5C14 10.0977 13.8945 10.6602 13.6836 11.1875C13.543 11.4688 13.6484 11.75 13.8594 11.9609C14.2109 12.3477 14.8789 12.207 15.0898 11.7148C15.3359 11.0469 15.5117 10.2734 15.5117 9.5C15.5117 6.19531 12.8047 3.48828 9.5 3.48828ZM9.5 14C7.00391 14 5 11.9961 5 9.5C5 8.90234 5.10547 8.33984 5.31641 7.8125C5.45703 7.53125 5.35156 7.25 5.14062 7.03906C4.78906 6.65234 4.12109 6.79297 3.91016 7.28516C3.66406 7.95312 3.48828 8.72656 3.48828 9.5C3.48828 12.8047 6.19531 15.5117 9.5 15.5117V16.8477C9.5 17.1641 9.92188 17.3398 10.1328 17.0938L12.2422 15.0195C12.3828 14.8789 12.3828 14.6328 12.2422 14.4922L10.1328 12.3828C9.92188 12.1719 9.5 12.3125 9.5 12.6641V14Z" fill="#3871EF"/>
</svg>
