<svg width="225" height="45" viewBox="0 0 225 45" fill="none" xmlns="http://www.w3.org/2000/svg">
    <path d="M43.0479 33.9999V11.4399H48.9359V33.9999H43.0479Z" fill="#8F99B4"/>
    <path d="M52.6966 33.9999V18.2559H58.2326V20.3679C58.7233 19.6213 59.3739 19.0239 60.1846 18.5759C61.0166 18.1279 61.9659 17.9039 63.0326 17.9039C64.0993 17.9039 65.0166 18.1386 65.7846 18.6079C66.5739 19.0773 67.1713 19.8026 67.5766 20.7839C68.1099 19.8666 68.8353 19.1626 69.7526 18.6719C70.6699 18.1599 71.6833 17.9039 72.7926 17.9039C74.6273 17.9039 75.9819 18.4586 76.8566 19.5679C77.7526 20.6559 78.2006 22.3626 78.2006 24.6879V33.9999H72.5046V24.8479C72.5046 23.9306 72.3659 23.2693 72.0886 22.8639C71.8113 22.4586 71.3526 22.2559 70.7126 22.2559C69.9233 22.2559 69.3153 22.5333 68.8886 23.0879C68.4833 23.6426 68.2806 24.4319 68.2806 25.4559V33.9999H62.5846V24.8479C62.5846 23.9306 62.4459 23.2693 62.1686 22.8639C61.8913 22.4586 61.4326 22.2559 60.7926 22.2559C60.0246 22.2559 59.4273 22.5333 59.0006 23.0879C58.5953 23.6426 58.3926 24.4319 58.3926 25.4559V33.9999H52.6966Z" fill="#8F99B4"/>
    <path d="M81.5716 33.9999V18.2559H87.1076V20.3679C87.5983 19.6213 88.2489 19.0239 89.0596 18.5759C89.8916 18.1279 90.8409 17.9039 91.9076 17.9039C92.9743 17.9039 93.8916 18.1386 94.6596 18.6079C95.4489 19.0773 96.0463 19.8026 96.4516 20.7839C96.9849 19.8666 97.7103 19.1626 98.6276 18.6719C99.5449 18.1599 100.558 17.9039 101.668 17.9039C103.502 17.9039 104.857 18.4586 105.732 19.5679C106.628 20.6559 107.076 22.3626 107.076 24.6879V33.9999H101.38V24.8479C101.38 23.9306 101.241 23.2693 100.964 22.8639C100.686 22.4586 100.228 22.2559 99.5876 22.2559C98.7983 22.2559 98.1903 22.5333 97.7636 23.0879C97.3583 23.6426 97.1556 24.4319 97.1556 25.4559V33.9999H91.4596V24.8479C91.4596 23.9306 91.3209 23.2693 91.0436 22.8639C90.7663 22.4586 90.3076 22.2559 89.6676 22.2559C88.8996 22.2559 88.3023 22.5333 87.8756 23.0879C87.4703 23.6426 87.2676 24.4319 87.2676 25.4559V33.9999H81.5716Z" fill="#8F99B4"/>
    <path d="M118.351 34.3519C116.601 34.3519 115.076 34.0213 113.775 33.3599C112.473 32.6986 111.46 31.7493 110.735 30.5119C110.009 29.2746 109.647 27.8133 109.647 26.1279C109.647 24.4213 110.009 22.9599 110.735 21.7439C111.46 20.5066 112.473 19.5573 113.775 18.8959C115.076 18.2346 116.601 17.9039 118.351 17.9039C120.1 17.9039 121.625 18.2346 122.927 18.8959C124.228 19.5573 125.231 20.5066 125.935 21.7439C126.66 22.9599 127.023 24.4213 127.023 26.1279C127.023 27.8133 126.66 29.2746 125.935 30.5119C125.231 31.7493 124.228 32.6986 122.927 33.3599C121.625 34.0213 120.1 34.3519 118.351 34.3519ZM118.351 30.1599C119.204 30.1599 119.908 29.8399 120.463 29.1999C121.017 28.5599 121.295 27.5359 121.295 26.1279C121.295 24.6986 121.017 23.6746 120.463 23.0559C119.908 22.4159 119.204 22.0959 118.351 22.0959C117.476 22.0959 116.761 22.4159 116.207 23.0559C115.652 23.6746 115.375 24.6986 115.375 26.1279C115.375 27.5359 115.652 28.5599 116.207 29.1999C116.761 29.8399 117.476 30.1599 118.351 30.1599Z" fill="#8F99B4"/>
    <g opacity="0.7">
        <path d="M133.968 34.0002V17.0802H141.024C142.784 17.0802 144.144 17.4722 145.104 18.2562C146.08 19.0242 146.568 20.1042 146.568 21.4962C146.568 22.4082 146.328 23.1922 145.848 23.8482C145.368 24.5042 144.712 24.9842 143.88 25.2882C144.856 25.5442 145.616 26.0162 146.16 26.7042C146.704 27.3922 146.976 28.2642 146.976 29.3202C146.976 30.8242 146.472 31.9842 145.464 32.8002C144.472 33.6002 143.088 34.0002 141.312 34.0002H133.968ZM136.368 24.4722H140.64C142.976 24.4722 144.144 23.5602 144.144 21.7362C144.144 19.9122 142.976 19.0002 140.64 19.0002H136.368V24.4722ZM136.368 32.0802H141.024C143.376 32.0802 144.552 31.1282 144.552 29.2242C144.552 27.3362 143.376 26.3922 141.024 26.3922H136.368V32.0802Z" fill="#8F99B4"/>
        <path d="M155.199 34.2162C153.279 34.2162 151.767 33.6802 150.663 32.6082C149.559 31.5202 149.007 30.0402 149.007 28.1682C149.007 26.9682 149.247 25.9122 149.727 25.0002C150.223 24.0722 150.903 23.3522 151.767 22.8402C152.631 22.3282 153.623 22.0722 154.743 22.0722C156.359 22.0722 157.631 22.5922 158.559 23.6322C159.487 24.6562 159.951 26.0722 159.951 27.8802V28.6962H151.359C151.535 31.1282 152.823 32.3442 155.223 32.3442C155.895 32.3442 156.551 32.2402 157.191 32.0322C157.847 31.8242 158.463 31.4802 159.039 31.0002L159.759 32.6802C159.231 33.1602 158.551 33.5362 157.719 33.8082C156.887 34.0802 156.047 34.2162 155.199 34.2162ZM154.839 23.7762C153.831 23.7762 153.031 24.0882 152.439 24.7122C151.847 25.3362 151.487 26.1682 151.359 27.2082H157.911C157.863 26.1202 157.575 25.2802 157.047 24.6882C156.519 24.0802 155.783 23.7762 154.839 23.7762Z" fill="#8F99B4"/>
        <path d="M166.05 34.2162C164.77 34.2162 163.81 33.8562 163.17 33.1362C162.546 32.4162 162.234 31.3602 162.234 29.9682V17.0802H164.658V29.8242C164.658 31.4082 165.306 32.2002 166.602 32.2002C166.794 32.2002 166.97 32.1922 167.13 32.1762C167.306 32.1602 167.482 32.1282 167.658 32.0802L167.61 34.0242C167.066 34.1522 166.546 34.2162 166.05 34.2162Z" fill="#8F99B4"/>
        <path d="M174.397 38.5362C173.341 38.5362 172.357 38.4082 171.445 38.1522C170.533 37.9122 169.725 37.5282 169.021 37.0002L169.765 35.2722C170.469 35.7522 171.189 36.1042 171.925 36.3282C172.661 36.5522 173.429 36.6642 174.229 36.6642C176.469 36.6642 177.589 35.5442 177.589 33.3042V31.4562C177.253 32.1602 176.725 32.7122 176.005 33.1122C175.301 33.5122 174.509 33.7122 173.629 33.7122C172.573 33.7122 171.653 33.4722 170.869 32.9922C170.085 32.4962 169.477 31.8162 169.045 30.9522C168.613 30.0722 168.397 29.0482 168.397 27.8802C168.397 26.7282 168.613 25.7202 169.045 24.8562C169.477 23.9762 170.085 23.2962 170.869 22.8162C171.653 22.3202 172.573 22.0722 173.629 22.0722C174.525 22.0722 175.325 22.2722 176.029 22.6722C176.733 23.0722 177.253 23.6242 177.589 24.3282V22.2882H179.941V33.0162C179.941 34.8562 179.469 36.2322 178.525 37.1442C177.581 38.0722 176.205 38.5362 174.397 38.5362ZM174.205 31.8162C175.229 31.8162 176.045 31.4642 176.653 30.7602C177.261 30.0562 177.565 29.0962 177.565 27.8802C177.565 26.6642 177.261 25.7122 176.653 25.0242C176.045 24.3202 175.229 23.9682 174.205 23.9682C173.181 23.9682 172.365 24.3202 171.757 25.0242C171.149 25.7122 170.845 26.6642 170.845 27.8802C170.845 29.0962 171.149 30.0562 171.757 30.7602C172.365 31.4642 173.181 31.8162 174.205 31.8162Z" fill="#8F99B4"/>
        <path d="M182.767 19.5762V17.0562H185.599V19.5762H182.767ZM182.983 34.0002V22.2882H185.407V34.0002H182.983Z" fill="#8F99B4"/>
        <path d="M192.634 34.2162C189.802 34.2162 188.386 32.6402 188.386 29.4882V22.2882H190.81V29.5122C190.81 30.4562 191.002 31.1522 191.386 31.6002C191.77 32.0482 192.378 32.2722 193.21 32.2722C194.122 32.2722 194.858 31.9682 195.418 31.3602C195.994 30.7522 196.282 29.9362 196.282 28.9122V22.2882H198.706V34.0002H196.354V32.1282C195.97 32.8162 195.458 33.3362 194.818 33.6882C194.178 34.0402 193.45 34.2162 192.634 34.2162Z" fill="#8F99B4"/>
        <path d="M201.811 34.0002V22.2882H204.163V24.1842C204.515 23.5122 205.003 22.9922 205.627 22.6242C206.251 22.2562 206.979 22.0722 207.811 22.0722C209.603 22.0722 210.763 22.8562 211.291 24.4242C211.659 23.6882 212.187 23.1122 212.875 22.6962C213.563 22.2802 214.347 22.0722 215.227 22.0722C217.851 22.0722 219.163 23.6402 219.163 26.7762V34.0002H216.739V26.8962C216.739 25.9042 216.563 25.1762 216.211 24.7122C215.875 24.2482 215.315 24.0162 214.531 24.0162C213.651 24.0162 212.955 24.3282 212.443 24.9522C211.931 25.5602 211.675 26.3922 211.675 27.4482V34.0002H209.251V26.8962C209.251 25.9042 209.083 25.1762 208.747 24.7122C208.411 24.2482 207.851 24.0162 207.067 24.0162C206.187 24.0162 205.491 24.3282 204.979 24.9522C204.483 25.5602 204.235 26.3922 204.235 27.4482V34.0002H201.811Z" fill="#8F99B4"/>
    </g>
    <path d="M28.8552 15.3127L27.5818 14.1154C26.4424 12.9846 24.6327 13.0511 23.4933 14.1819C22.2198 15.4458 20.8123 16.8427 20.8123 16.8427C20.6783 17.0422 20.4772 17.1753 20.2761 17.3748C19.807 17.7074 19.1367 17.9735 18.4665 17.9735C17.7962 17.9735 17.193 17.7739 16.6568 17.3748C16.4558 17.2418 16.3217 17.0422 16.1206 16.8427C16.1206 16.8427 14.7131 15.4458 13.4397 14.1819C12.3003 13.0511 10.4906 13.0511 9.35121 14.1154L8.14477 15.3127C6.80429 16.6431 6 18.4391 6 20.3682V29.7473C6 33.2063 8.81501 36.0001 12.3003 36.0001H24.6327C28.118 36.0001 30.933 33.2063 30.933 29.7473V20.3682C31 18.5056 30.1957 16.6431 28.8552 15.3127ZM16.4558 32.009H12.3003C11.0268 32.009 10.0214 31.0112 10.0214 29.7473V20.3682C10.0214 19.5699 10.3566 18.7717 10.9598 18.173L11.3619 17.8404L15.5845 21.8981C16.1877 22.4968 16.5228 23.2285 16.5228 24.0932V32.009H16.4558ZM26.9786 29.7473C26.9786 31.0112 25.9732 32.009 24.6997 32.009H20.5442V24.0267C20.5442 23.2285 20.8794 22.4302 21.4826 21.8316L25.7051 17.7739L26.1072 18.1065C26.7105 18.7052 27.0456 19.5034 27.0456 20.3016V29.7473H26.9786Z" fill="#8F99B4"/>
    <path d="M22.5552 11.9866L19.8742 14.6474C19.1369 15.3791 17.8635 15.3791 17.1262 14.6474L14.4453 11.9866C13.775 11.3214 13.708 10.2571 14.2442 9.4589C14.3112 9.39238 14.3782 9.32586 14.4453 9.25934L17.1262 6.59859C17.8635 5.86688 19.1369 5.86688 19.8742 6.59859L22.5552 9.25934C22.6222 9.32586 22.6892 9.39238 22.7562 9.4589C23.2924 10.1906 23.2924 11.3214 22.5552 11.9866Z" fill="#8F99B4"/>
</svg>
