<svg width="36" height="36" viewBox="0 0 36 36" fill="none" xmlns="http://www.w3.org/2000/svg">
    <rect width="36" height="36" rx="18" fill="#8F99B4"/>
    <path d="M18 14.207C18.7031 14.207 19.3711 14.418 20.0039 14.7695C20.6367 15.1211 21.1289 15.6133 21.4805 16.2461C21.832 16.8789 22.043 17.5469 22.043 18.25C22.043 18.9883 21.832 19.6562 21.4805 20.2891C21.1289 20.9219 20.6367 21.4141 20.0039 21.7656C19.3711 22.1172 18.7031 22.293 18 22.293C17.2617 22.293 16.5938 22.1172 15.9609 21.7656C15.3281 21.4141 14.8359 20.9219 14.4844 20.2891C14.1328 19.6562 13.957 18.9883 13.957 18.25C13.957 17.5469 14.1328 16.8789 14.4844 16.2461C14.8359 15.6133 15.3281 15.1211 15.9609 14.7695C16.5938 14.418 17.2617 14.207 18 14.207ZM18 20.8867C18.7031 20.8867 19.3359 20.6406 19.8633 20.1133C20.3555 19.6211 20.6367 18.9883 20.6367 18.25C20.6367 17.5469 20.3555 16.9141 19.8633 16.3867C19.3359 15.8945 18.7031 15.6133 18 15.6133C17.2617 15.6133 16.6289 15.8945 16.1367 16.3867C15.6094 16.9141 15.3633 17.5469 15.3633 18.25C15.3633 18.9883 15.6094 19.6211 16.1367 20.1133C16.6289 20.6406 17.2617 20.8867 18 20.8867ZM23.168 14.0312C23.168 13.7852 23.0625 13.5742 22.8867 13.3633C22.6758 13.1875 22.4648 13.082 22.2188 13.082C21.9375 13.082 21.7266 13.1875 21.5508 13.3633C21.3398 13.5742 21.2695 13.7852 21.2695 14.0312C21.2695 14.3125 21.3398 14.5234 21.5508 14.6992C21.7266 14.9102 21.9375 14.9805 22.2188 14.9805C22.4648 14.9805 22.6758 14.9102 22.8516 14.6992C23.0273 14.5234 23.1328 14.3125 23.168 14.0312ZM25.8398 14.9805C25.8398 15.6484 25.875 16.7383 25.875 18.25C25.875 19.7969 25.8398 20.8867 25.8047 21.5547C25.7695 22.2227 25.6641 22.7852 25.5234 23.2773C25.3125 23.875 24.9609 24.4023 24.5391 24.8242C24.1172 25.2461 23.5898 25.5625 23.0273 25.7734C22.5352 25.9492 21.9375 26.0547 21.2695 26.0898C20.6016 26.125 19.5117 26.125 18 26.125C16.4531 26.125 15.3633 26.125 14.6953 26.0898C14.0273 26.0547 13.4648 25.9492 12.9727 25.7383C12.375 25.5625 11.8477 25.2461 11.4258 24.8242C11.0039 24.4023 10.6875 23.875 10.4766 23.2773C10.3008 22.7852 10.1953 22.2227 10.1602 21.5547C10.125 20.8867 10.125 19.7969 10.125 18.25C10.125 16.7383 10.125 15.6484 10.1602 14.9805C10.1953 14.3125 10.3008 13.7148 10.4766 13.2227C10.6875 12.6602 11.0039 12.1328 11.4258 11.7109C11.8477 11.2891 12.375 10.9375 12.9727 10.7266C13.4648 10.5859 14.0273 10.4805 14.6953 10.4453C15.3633 10.4102 16.4531 10.375 18 10.375C19.5117 10.375 20.6016 10.4102 21.2695 10.4453C21.9375 10.4805 22.5352 10.5859 23.0273 10.7266C23.5898 10.9375 24.1172 11.2891 24.5391 11.7109C24.9609 12.1328 25.3125 12.6602 25.5234 13.2227C25.6641 13.7148 25.7695 14.3125 25.8398 14.9805ZM24.1523 22.8906C24.293 22.5039 24.3633 21.8711 24.4336 20.9922C24.4336 20.5 24.4688 19.7617 24.4688 18.8125V17.6875C24.4688 16.7383 24.4336 16 24.4336 15.5078C24.3633 14.6289 24.293 13.9961 24.1523 13.6094C23.8711 12.9062 23.3438 12.3789 22.6406 12.0977C22.2539 11.957 21.6211 11.8867 20.7422 11.8164C20.2148 11.8164 19.4766 11.7812 18.5625 11.7812H17.4375C16.4883 11.7812 15.75 11.8164 15.2578 11.8164C14.3789 11.8867 13.7461 11.957 13.3594 12.0977C12.6211 12.3789 12.1289 12.9062 11.8477 13.6094C11.707 13.9961 11.6016 14.6289 11.5664 15.5078C11.5312 16.0352 11.5312 16.7734 11.5312 17.6875V18.8125C11.5312 19.7617 11.5312 20.5 11.5664 20.9922C11.6016 21.8711 11.707 22.5039 11.8477 22.8906C12.1289 23.6289 12.6562 24.1211 13.3594 24.4023C13.7461 24.543 14.3789 24.6484 15.2578 24.6836C15.75 24.7188 16.4883 24.7188 17.4375 24.7188H18.5625C19.5117 24.7188 20.25 24.7188 20.7422 24.6836C21.6211 24.6484 22.2539 24.543 22.6406 24.4023C23.3438 24.1211 23.8711 23.5938 24.1523 22.8906Z" fill="white"/>
</svg>
