<svg width="36" height="36" viewBox="0 0 36 36" fill="none" xmlns="http://www.w3.org/2000/svg">
    <rect width="36" height="36" rx="18" fill="#8F99B4"/>
    <path d="M13.6406 25.125V14.6133H10.3711V25.125H13.6406ZM12.0234 13.1719C12.5156 13.1719 12.9727 12.9961 13.3594 12.6094C13.7109 12.2578 13.9219 11.8008 13.9219 11.2734C13.9219 10.7812 13.7109 10.3242 13.3594 9.9375C12.9727 9.58594 12.5156 9.375 12.0234 9.375C11.4961 9.375 11.0391 9.58594 10.6875 9.9375C10.3008 10.3242 10.125 10.7812 10.125 11.2734C10.125 11.8008 10.3008 12.2578 10.6875 12.6094C11.0391 12.9961 11.4961 13.1719 12.0234 13.1719ZM25.875 25.125V19.3594C25.875 17.7422 25.6289 16.5469 25.1719 15.7734C24.5391 14.8242 23.4844 14.332 21.9727 14.332C21.1992 14.332 20.5664 14.543 20.0039 14.8945C19.4766 15.2109 19.0898 15.5977 18.8789 16.0547H18.8438V14.6133H15.7148V25.125H18.9492V19.9219C18.9492 19.1133 19.0547 18.4805 19.3008 18.0586C19.582 17.4961 20.1094 17.2148 20.8828 17.2148C21.6211 17.2148 22.1133 17.5312 22.3945 18.1641C22.5352 18.5508 22.6055 19.1484 22.6055 19.9922V25.125H25.875Z" fill="white"/>
</svg>
