<svg width="36" height="36" viewBox="0 0 36 36" fill="none" xmlns="http://www.w3.org/2000/svg">
    <rect width="36" height="36" rx="18" fill="#8F99B4"/>
    <path d="M25.1367 14.5938C25.8398 14.0664 26.4727 13.4336 27 12.6602C26.2969 12.9766 25.5938 13.1875 24.8906 13.2578C25.6641 12.7656 26.2266 12.0977 26.5078 11.2188C25.7695 11.6406 24.9961 11.957 24.1523 12.0977C23.8008 11.7461 23.3789 11.4648 22.9219 11.2539C22.4648 11.043 21.9727 10.9375 21.4453 10.9375C20.7773 10.9375 20.1797 11.1133 19.6172 11.4297C19.0547 11.7812 18.5977 12.2383 18.2812 12.8008C17.9297 13.3633 17.7891 13.9961 17.7891 14.6289C17.7891 14.9102 17.7891 15.1914 17.8594 15.4727C16.3477 15.4023 14.9414 15.0508 13.6055 14.3477C12.2695 13.6797 11.1797 12.7656 10.2656 11.6055C9.91406 12.2031 9.73828 12.8359 9.73828 13.4688C9.73828 14.1016 9.87891 14.6992 10.1953 15.2266C10.4766 15.7891 10.8984 16.2109 11.3906 16.5625C10.793 16.5625 10.2305 16.3867 9.73828 16.0703V16.1406C9.73828 17.0195 10.0195 17.793 10.582 18.4609C11.1445 19.1641 11.8477 19.5859 12.6914 19.7617C12.3398 19.832 12.0234 19.8672 11.707 19.8672C11.4961 19.8672 11.25 19.8672 11.0391 19.832C11.25 20.5703 11.6719 21.168 12.3047 21.6602C12.9375 22.1523 13.6406 22.3633 14.4844 22.3633C13.1133 23.418 11.5664 23.9453 9.87891 23.9453C9.52734 23.9453 9.24609 23.9453 9 23.9102C10.6875 25.0352 12.5859 25.5625 14.6602 25.5625C16.8047 25.5625 18.7031 25.0352 20.3906 23.9102C21.9023 22.9258 23.0977 21.625 23.9414 19.9375C24.75 18.3906 25.1719 16.7383 25.1719 15.0508C25.1719 14.8398 25.1367 14.6992 25.1367 14.5938Z" fill="white"/>
</svg>
