<svg width="36" height="36" viewBox="0 0 36 36" fill="none" xmlns="http://www.w3.org/2000/svg">
    <rect width="36" height="36" rx="18" fill="#8F99B4"/>
    <path d="M27.2109 13.6094C27.3516 14.2422 27.4922 15.2266 27.5625 16.4922L27.5977 18.25L27.5625 20.0078C27.4922 21.3438 27.3516 22.293 27.2109 22.9258C27.0703 23.3477 26.8594 23.6992 26.5781 23.9805C26.2617 24.2969 25.9102 24.5078 25.4883 24.6133C24.8555 24.7891 23.4492 24.8945 21.1992 24.9648L18 25L14.8008 24.9648C12.5508 24.8945 11.1094 24.7891 10.5117 24.6133C10.0898 24.5078 9.70312 24.2969 9.42188 23.9805C9.10547 23.6992 8.89453 23.3477 8.78906 22.9258C8.61328 22.293 8.50781 21.3438 8.4375 20.0078L8.40234 18.25C8.40234 17.7578 8.40234 17.1602 8.4375 16.4922C8.50781 15.2266 8.61328 14.2422 8.78906 13.6094C8.89453 13.1875 9.10547 12.8359 9.42188 12.5195C9.70312 12.2383 10.0898 12.0273 10.5117 11.8867C11.1094 11.7461 12.5508 11.6055 14.8008 11.5352L18 11.5L21.1992 11.5352C23.4492 11.6055 24.8555 11.7461 25.4883 11.8867C25.9102 12.0273 26.2617 12.2383 26.5781 12.5195C26.8594 12.8359 27.0703 13.1875 27.2109 13.6094ZM16.0312 21.1328L21.0586 18.25L16.0312 15.4023V21.1328Z" fill="white"/>
</svg>
