<?xml version="1.0" standalone="no"?>
<!DOCTYPE svg PUBLIC "-//W3C//DTD SVG 20010904//EN"
 "http://www.w3.org/TR/2001/REC-SVG-20010904/DTD/svg10.dtd">
<svg version="1.0" xmlns="http://www.w3.org/2000/svg"
 width="700.000000pt" height="700.000000pt" viewBox="0 0 700.000000 700.000000"
 preserveAspectRatio="xMidYMid meet">
<metadata>
Created by potrace 1.14, written by Peter Selinger 2001-2017
</metadata>
<g transform="translate(0.000000,700.000000) scale(0.100000,-0.100000)"
fill="#000000" stroke="none">
<path d="M3459 6305 c-2 -2 -19 -5 -37 -8 -85 -14 -131 -51 -427 -345 -159
-159 -296 -299 -303 -312 -65 -111 -64 -275 4 -381 30 -48 568 -583 615 -611
105 -64 242 -72 351 -20 56 27 103 70 360 324 301 298 325 328 344 418 17 84
-2 204 -43 270 -9 14 -147 155 -307 314 -328 325 -352 343 -485 351 -38 2 -71
2 -72 0z"/>
<path d="M2092 4938 c-73 -10 -146 -37 -220 -81 -70 -42 -403 -381 -469 -477
-99 -145 -180 -332 -212 -490 -6 -30 -14 -66 -18 -80 -9 -35 -11 -2035 -2
-2084 4 -23 9 -59 12 -81 16 -119 107 -331 195 -455 46 -65 195 -221 242 -253
191 -131 306 -182 500 -224 80 -17 165 -18 1360 -18 701 0 1302 4 1335 8 255
34 488 151 676 337 185 185 288 389 336 665 3 17 6 485 7 1040 2 1015 2 1025
-30 1199 -20 106 -104 293 -192 426 -93 142 -424 462 -535 518 -172 87 -383
74 -545 -34 -31 -20 -202 -181 -379 -358 -353 -350 -373 -366 -525 -405 -71
-19 -182 -22 -251 -7 -45 10 -129 44 -170 69 -20 12 -183 168 -362 345 -179
177 -349 337 -377 356 -67 42 -154 74 -221 82 -29 3 -61 7 -72 8 -11 1 -48 -1
-83 -6z m2855 -908 c52 -55 109 -152 136 -230 l22 -65 3 -934 c1 -513 -2 -939
-6 -945 -5 -6 -9 -22 -10 -35 -2 -50 -43 -158 -77 -203 -46 -62 -122 -121
-192 -150 -57 -22 -66 -23 -496 -26 l-438 -3 3 808 c3 807 3 808 25 866 55
144 73 165 508 582 104 99 243 232 309 296 l121 117 27 -19 c15 -11 44 -37 65
-59z m-2687 -21 c238 -227 509 -489 636 -614 122 -121 146 -150 177 -215 62
-132 62 -128 62 -971 l0 -764 -420 -2 c-256 -1 -438 2 -465 8 -164 37 -307
188 -327 345 -3 27 -6 461 -6 964 -1 711 2 928 12 975 17 79 62 177 107 234
42 53 114 120 129 121 6 0 48 -37 95 -81z"/>
</g>
</svg>
