<svg width="30" height="30" viewBox="0 0 30 30" fill="none" xmlns="http://www.w3.org/2000/svg">
    <path d="M27.9336 15.6333H2.36693C1.83359 15.6333 1.43359 16.0666 1.43359 16.5666C1.43359 17.1 1.86693 17.5 2.36693 17.5H27.9336C28.4669 17.5 28.8669 17.0666 28.8669 16.5666C28.8669 16.0666 28.4669 15.6333 27.9336 15.6333Z" stroke="#6C768F" stroke-miterlimit="10" stroke-linecap="round" stroke-linejoin="round"/>
    <path d="M2.36621 27.1999C4.73288 27.1999 6.66621 25.2666 6.66621 22.8999" stroke="#6C768F" stroke-miterlimit="10" stroke-linecap="round" stroke-linejoin="round"/>
    <path d="M27.6662 27.1999C25.2995 27.1999 23.3662 25.2666 23.3662 22.8999" stroke="#6C768F" stroke-miterlimit="10" stroke-linecap="round" stroke-linejoin="round"/>
    <path d="M27.667 15.6331V4.93311C27.667 3.53311 26.5337 2.43311 25.167 2.43311C23.767 2.43311 22.667 3.56644 22.667 4.93311" stroke="#6C768F" stroke-miterlimit="10" stroke-linecap="round" stroke-linejoin="round"/>
    <path d="M23.5662 25.2665H5.99955C3.99954 25.2665 2.36621 23.6665 2.36621 21.6665V17.5332H27.6662V21.1665C27.6662 23.4332 25.8329 25.2665 23.5662 25.2665Z" stroke="#6C768F" stroke-miterlimit="10" stroke-linecap="round" stroke-linejoin="round"/>
    <path d="M24.8333 7.36686V7.83353H20.5V7.36686C20.5 6.16686 21.4667 5.2002 22.6667 5.2002C22.7 5.2002 22.7333 5.2002 22.7667 5.2002C23.9 5.26686 24.8333 6.23353 24.8333 7.36686Z" stroke="#6C768F" stroke-miterlimit="10" stroke-linecap="round" stroke-linejoin="round"/>
</svg>
