<svg width="30" height="30" viewBox="0 0 30 30" fill="none" xmlns="http://www.w3.org/2000/svg">
    <g clip-path="url(#clip0)">
        <path d="M25.3332 12.4998C24.7999 12.0998 24.1332 11.8664 23.4332 11.8664H6.29987C5.66654 11.8664 5.0332 12.0664 4.5332 12.4331L5.4332 8.99977C5.66654 9.53311 6.19987 9.89977 6.79987 9.89977H13.5332C14.1332 9.89977 14.6665 9.56644 14.8999 8.99977C14.8999 8.96644 14.8999 8.96644 14.9332 8.93311C14.9332 8.96644 14.9332 8.96644 14.9665 8.99977C15.1999 9.53311 15.7332 9.89977 16.3332 9.89977H23.0665C23.6665 9.89977 24.1999 9.56644 24.4332 8.99977L25.3332 12.4998Z" stroke="#6C768F" stroke-miterlimit="10" stroke-linecap="round" stroke-linejoin="round"/>
        <path d="M27.9997 22.7665H1.83301L2.03301 21.9665C2.03301 21.9665 2.03301 21.9665 2.03301 21.9331C2.36634 20.6665 3.53301 19.7998 4.83301 19.7998H24.9663C26.2663 19.7998 27.433 20.6998 27.7663 21.9331V21.9665L27.9997 22.7665Z" stroke="#6C768F" stroke-miterlimit="10" stroke-linecap="round" stroke-linejoin="round"/>
        <path d="M27.9997 22.7666H1.83301V26.1666H27.9997V22.7666Z" stroke="#6C768F" stroke-miterlimit="10" stroke-linecap="round" stroke-linejoin="round"/>
        <path d="M23.7999 6.23317C23.4665 5.89984 22.9999 5.69984 22.4999 5.69984H16.8332C16.1665 5.69984 15.5665 6.06651 15.2332 6.66651C15.1665 6.79984 15.0999 6.93317 15.0665 7.06651L14.8999 7.76651L14.7332 7.06651C14.6999 6.93317 14.6332 6.79984 14.5665 6.66651C14.2999 6.06651 13.6665 5.6665 12.9999 5.6665H7.3332C6.8332 5.6665 6.36654 5.8665 6.0332 6.23317C6.0332 3.99984 7.8332 2.1665 10.0999 2.1665H19.7665C21.9999 2.1665 23.7999 3.99984 23.7999 6.23317Z" stroke="#6C768F" stroke-miterlimit="10" stroke-linecap="round" stroke-linejoin="round"/>
        <path d="M24.3998 8.96664C24.1665 9.49997 23.6331 9.86664 23.0331 9.86664H16.2998C15.6998 9.86664 15.1665 9.5333 14.9331 8.96664C14.9331 8.9333 14.8998 8.9333 14.8998 8.89997C14.8998 8.9333 14.8998 8.9333 14.8665 8.96664C14.6331 9.49997 14.0998 9.86664 13.4998 9.86664H6.79981C6.1998 9.86664 5.66647 9.5333 5.43314 8.96664C5.33314 8.76664 5.2998 8.56664 5.2998 8.3333C5.2998 8.19997 5.33314 8.06663 5.33314 7.9333L5.56647 6.99997C5.63314 6.69997 5.7998 6.39997 5.99981 6.19997C6.33314 5.86663 6.79981 5.6333 7.29981 5.6333H12.9998C13.6665 5.6333 14.2665 5.99997 14.5998 6.59997C14.6665 6.7333 14.7331 6.86663 14.7665 6.99997L14.9331 7.69997L15.0998 6.99997C15.1331 6.86663 15.1998 6.7333 15.2665 6.59997C15.5665 6.0333 16.1665 5.6333 16.8665 5.6333H22.5331C23.0331 5.6333 23.4998 5.8333 23.8331 6.16663C24.0331 6.39997 24.1998 6.66663 24.2665 6.96663L24.4998 7.89997C24.5998 8.29997 24.5665 8.66664 24.3998 8.96664Z" stroke="#6C768F" stroke-miterlimit="10" stroke-linecap="round" stroke-linejoin="round"/>
        <path d="M27.9996 22.7667L27.7996 21.9667C27.7996 21.9667 27.7996 21.9667 27.7996 21.9334C27.4662 20.6667 26.2996 19.8 24.9996 19.8H4.86621C3.56621 19.8 2.39954 20.7 2.06621 21.9334V21.9667L1.86621 22.7667C1.86621 20.8 2.13288 18.8334 2.59954 16.9L3.29954 14.2C3.49954 13.4667 3.93288 12.8334 4.53288 12.4334C5.03288 12.0667 5.66621 11.8667 6.29955 11.8667H23.4329C24.1329 11.8667 24.7996 12.1 25.3329 12.5C25.8662 12.9 26.2662 13.5 26.4329 14.1667L27.2329 17.1334C27.6996 18.9 27.9662 20.7 27.9996 22.5V22.7667Z" stroke="#6C768F" stroke-miterlimit="10" stroke-linecap="round" stroke-linejoin="round"/>
        <path d="M14.9336 7.7334V8.96673" stroke="#6C768F" stroke-miterlimit="10" stroke-linecap="round" stroke-linejoin="round"/>
        <path d="M5.16712 26.1665H3.63379V27.6998H5.16712V26.1665Z" stroke="#6C768F" stroke-miterlimit="10" stroke-linecap="round" stroke-linejoin="round"/>
        <path d="M26.2003 26.1665H24.667V27.6998H26.2003V26.1665Z" stroke="#6C768F" stroke-miterlimit="10" stroke-linecap="round" stroke-linejoin="round"/>
    </g>
    <defs>
        <clipPath id="clip0">
            <rect width="27.1667" height="26.5333" fill="white" transform="translate(1.33301 1.6665)"/>
        </clipPath>
    </defs>
</svg>
