<svg width="30" height="30" viewBox="0 0 30 30" fill="none" xmlns="http://www.w3.org/2000/svg">
    <path d="M14.6338 9.22784V27.6945L26.4338 21.1278C26.7338 20.9612 26.9338 20.6278 26.9338 20.2945V3.96117C26.9338 3.22783 26.1338 2.76117 25.5005 3.12783L14.6338 9.22784Z" stroke="#6C768F" stroke-miterlimit="10" stroke-linejoin="round"/>
    <path d="M14.633 9.22784V27.6945L2.83301 21.0945C2.53301 20.9278 2.33301 20.5945 2.33301 20.2612V3.96117C2.33301 3.22783 3.13301 2.76117 3.76634 3.12783L14.633 9.22784Z" stroke="#6C768F" stroke-miterlimit="10" stroke-linejoin="round"/>
    <path d="M21.167 10.8543C21.9954 10.3567 22.667 10.878 22.667 12.0629V18.5085L19.667 20.3332V13.8876C19.667 12.7264 20.3386 11.3757 21.167 10.8543Z" stroke="#6C768F" stroke-miterlimit="10" stroke-linejoin="round"/>
</svg>
