<svg width="30" height="30" viewBox="0 0 30 30" fill="none" xmlns="http://www.w3.org/2000/svg">
    <g clip-path="url(#clip0)">
        <path d="M26.4335 21.3335L15.0001 27.7335C14.7335 27.8668 14.4001 27.8668 14.1335 27.7335L3.2668 21.3668C2.70013 21.0335 2.70013 20.2001 3.2668 19.8668L6.2668 18.2001C6.53346 18.0668 6.8668 18.0668 7.13346 18.2001L14.1668 22.3001C14.4335 22.4668 14.7668 22.4668 15.0335 22.3001L22.6001 18.0668C22.8668 17.9335 23.2001 17.9335 23.4668 18.0668L26.4668 19.8335C27.0335 20.1668 27.0335 21.0001 26.4335 21.3335Z" stroke="#6C768F" stroke-miterlimit="10" stroke-linejoin="round"/>
        <path d="M26.4668 14.4002C27.0335 14.7336 27.0335 15.5669 26.4668 15.9002L23.0335 17.8002L15.0001 22.3002C14.7335 22.4336 14.4001 22.4336 14.1335 22.3002L6.70013 17.9336L3.2668 15.9336C2.70013 15.6002 2.70013 14.7669 3.2668 14.4336L6.2668 12.7669C6.53346 12.6336 6.8668 12.6336 7.13346 12.7669L11.4335 15.3002L14.1335 16.9002C14.4001 17.0669 14.7335 17.0669 15.0001 16.9002L18.2668 15.0669L22.5668 12.6669C22.8335 12.5336 23.1668 12.5336 23.4335 12.6669L26.4668 14.4002Z" stroke="#6C768F" stroke-miterlimit="10" stroke-linejoin="round"/>
        <path d="M26.4668 9C27.0335 9.33334 27.0335 10.1667 26.4668 10.5L23.0335 12.4L18.3001 15.0667L15.0001 16.9C14.7335 17.0333 14.4001 17.0333 14.1335 16.9L11.4335 15.3L6.70013 12.5333L3.2668 10.5333C2.70013 10.2 2.70013 9.36667 3.2668 9.03334L14.7001 2.6C14.9668 2.46667 15.3001 2.46667 15.5668 2.6L26.4668 9Z" stroke="#6C768F" stroke-miterlimit="10" stroke-linejoin="round"/>
    </g>
    <defs>
        <clipPath id="clip0">
            <rect width="25.0667" height="26.3333" fill="white" transform="translate(2.33301 2)"/>
        </clipPath>
    </defs>
</svg>
