<svg width="32" height="33" viewBox="0 0 32 33" fill="none" xmlns="http://www.w3.org/2000/svg">
    <path d="M29.796 17.1755H2.52485C1.95596 17.1755 1.5293 17.6378 1.5293 18.1711C1.5293 18.74 1.99152 19.1666 2.52485 19.1666H29.796C30.3649 19.1666 30.7915 18.7044 30.7915 18.1711C30.7915 17.6378 30.3649 17.1755 29.796 17.1755Z" stroke="#8F99B4" stroke-width="1.16583" stroke-miterlimit="10" stroke-linecap="round" stroke-linejoin="round"/>
    <path d="M2.52441 29.5133C5.04886 29.5133 7.11108 27.4511 7.11108 24.9267" stroke="#8F99B4" stroke-width="1.16583" stroke-miterlimit="10" stroke-linecap="round" stroke-linejoin="round"/>
    <path d="M29.5115 29.5133C26.987 29.5133 24.9248 27.4511 24.9248 24.9267" stroke="#8F99B4" stroke-width="1.16583" stroke-miterlimit="10" stroke-linecap="round" stroke-linejoin="round"/>
    <path d="M29.5111 17.1756V5.76222C29.5111 4.26888 28.3022 3.09555 26.8444 3.09555C25.3511 3.09555 24.1777 4.30444 24.1777 5.76222" stroke="#8F99B4" stroke-width="1.16583" stroke-miterlimit="10" stroke-linecap="round" stroke-linejoin="round"/>
    <path d="M25.1377 27.4511H6.39997C4.26664 27.4511 2.52441 25.7444 2.52441 23.6111V19.2022H29.5111V23.0778C29.5111 25.4955 27.5555 27.4511 25.1377 27.4511Z" stroke="#8F99B4" stroke-width="1.16583" stroke-miterlimit="10" stroke-linecap="round" stroke-linejoin="round"/>
    <path d="M26.4884 8.35777V8.85555H21.8662V8.35777C21.8662 7.07777 22.8973 6.04666 24.1773 6.04666C24.2129 6.04666 24.2484 6.04666 24.284 6.04666C25.4929 6.11777 26.4884 7.14888 26.4884 8.35777Z" stroke="#8F99B4" stroke-width="1.16583" stroke-miterlimit="10" stroke-linecap="round" stroke-linejoin="round"/>
</svg>
