<svg width="42" height="42" viewBox="0 0 42 42" fill="none" xmlns="http://www.w3.org/2000/svg">
    <path d="M39.1066 21.8867H3.31326C2.56659 21.8867 2.00659 22.4933 2.00659 23.1933C2.00659 23.94 2.61326 24.5 3.31326 24.5H39.1066C39.8533 24.5 40.4133 23.8933 40.4133 23.1933C40.4133 22.4933 39.8533 21.8867 39.1066 21.8867Z" stroke="#3871EF" stroke-width="1.53015" stroke-miterlimit="10" stroke-linecap="round" stroke-linejoin="round"/>
    <path d="M3.31323 38.08C6.62657 38.08 9.33323 35.3733 9.33323 32.06" stroke="#3871EF" stroke-width="1.53015" stroke-miterlimit="10" stroke-linecap="round" stroke-linejoin="round"/>
    <path d="M38.7334 38.08C35.42 38.08 32.7134 35.3733 32.7134 32.06" stroke="#3871EF" stroke-width="1.53015" stroke-miterlimit="10" stroke-linecap="round" stroke-linejoin="round"/>
    <path d="M38.7332 21.8867V6.90666C38.7332 4.94666 37.1465 3.40666 35.2332 3.40666C33.2732 3.40666 31.7332 4.99333 31.7332 6.90666" stroke="#3871EF" stroke-width="1.53015" stroke-miterlimit="10" stroke-linecap="round" stroke-linejoin="round"/>
    <path d="M32.9932 35.3733H8.3999C5.5999 35.3733 3.31323 33.1333 3.31323 30.3333V24.5467H38.7332V29.6333C38.7332 32.8067 36.1666 35.3733 32.9932 35.3733Z" stroke="#3871EF" stroke-width="1.53015" stroke-miterlimit="10" stroke-linecap="round" stroke-linejoin="round"/>
    <path d="M34.7666 10.3133V10.9667H28.7V10.3133C28.7 8.63333 30.0533 7.28 31.7333 7.28C31.78 7.28 31.8266 7.28 31.8733 7.28C33.46 7.37333 34.7666 8.72667 34.7666 10.3133Z" stroke="#3871EF" stroke-width="1.53015" stroke-miterlimit="10" stroke-linecap="round" stroke-linejoin="round"/>
</svg>
