<svg width="42" height="42" viewBox="0 0 42 42" fill="none" xmlns="http://www.w3.org/2000/svg">
    <g clip-path="url(#clip0)">
        <path d="M35.4667 17.5C34.72 16.94 33.7867 16.6133 32.8067 16.6133H8.82001C7.93335 16.6133 7.04668 16.8933 6.34668 17.4067L7.60668 12.6C7.93335 13.3467 8.68001 13.86 9.52001 13.86H18.9467C19.7867 13.86 20.5333 13.3933 20.86 12.6C20.86 12.5533 20.86 12.5533 20.9067 12.5067C20.9067 12.5533 20.9067 12.5533 20.9533 12.6C21.28 13.3467 22.0267 13.86 22.8667 13.86H32.2933C33.1333 13.86 33.88 13.3933 34.2067 12.6L35.4667 17.5Z" stroke="#3871EF" stroke-width="1.53015" stroke-miterlimit="10" stroke-linecap="round" stroke-linejoin="round"/>
        <path d="M39.2 31.8733H2.56665L2.84665 30.7533C2.84665 30.7533 2.84665 30.7533 2.84665 30.7067C3.31332 28.9333 4.94665 27.72 6.76665 27.72H34.9533C36.7733 27.72 38.4067 28.98 38.8733 30.7067V30.7533L39.2 31.8733Z" stroke="#3871EF" stroke-width="1.53015" stroke-miterlimit="10" stroke-linecap="round" stroke-linejoin="round"/>
        <path d="M39.2 31.8733H2.56665V36.6333H39.2V31.8733Z" stroke="#3871EF" stroke-width="1.53015" stroke-miterlimit="10" stroke-linecap="round" stroke-linejoin="round"/>
        <path d="M33.3201 8.72667C32.8534 8.26001 32.2001 7.98001 31.5001 7.98001H23.5668C22.6334 7.98001 21.7934 8.49334 21.3268 9.33334C21.2334 9.52001 21.1401 9.70667 21.0934 9.89334L20.8601 10.8733L20.6268 9.89334C20.5801 9.70667 20.4868 9.52001 20.3934 9.33334C20.0201 8.49334 19.1334 7.93334 18.2001 7.93334H10.2668C9.56678 7.93334 8.91344 8.21334 8.44678 8.72667C8.44678 5.60001 10.9668 3.03334 14.1401 3.03334H27.6734C30.8001 3.03334 33.3201 5.60001 33.3201 8.72667Z" stroke="#3871EF" stroke-width="1.53015" stroke-miterlimit="10" stroke-linecap="round" stroke-linejoin="round"/>
        <path d="M34.1599 12.5533C33.8333 13.3 33.0866 13.8133 32.2466 13.8133H22.8199C21.9799 13.8133 21.2333 13.3467 20.9066 12.5533C20.9066 12.5067 20.8599 12.5067 20.8599 12.46C20.8599 12.5067 20.8599 12.5067 20.8133 12.5533C20.4866 13.3 19.7399 13.8133 18.8999 13.8133H9.51992C8.67992 13.8133 7.93326 13.3467 7.60659 12.5533C7.46659 12.2733 7.41992 11.9933 7.41992 11.6667C7.41992 11.48 7.46659 11.2933 7.46659 11.1067L7.79326 9.79999C7.88659 9.37999 8.11992 8.95999 8.39992 8.67999C8.86659 8.21332 9.51992 7.88666 10.2199 7.88666H18.1999C19.1333 7.88666 19.9733 8.39999 20.4399 9.23999C20.5333 9.42666 20.6266 9.61332 20.6733 9.79999L20.9066 10.78L21.1399 9.79999C21.1866 9.61332 21.2799 9.42666 21.3733 9.23999C21.7933 8.44666 22.6333 7.88666 23.6133 7.88666H31.5466C32.2466 7.88666 32.8999 8.16666 33.3666 8.63332C33.6466 8.95999 33.8799 9.33332 33.9733 9.75332L34.2999 11.06C34.4399 11.62 34.3933 12.1333 34.1599 12.5533Z" stroke="#3871EF" stroke-width="1.53015" stroke-miterlimit="10" stroke-linecap="round" stroke-linejoin="round"/>
        <path d="M39.2 31.8733L38.92 30.7533C38.92 30.7533 38.92 30.7533 38.92 30.7067C38.4533 28.9333 36.82 27.72 35 27.72H6.81328C4.99328 27.72 3.35995 28.98 2.89328 30.7067V30.7533L2.61328 31.8733C2.61328 29.12 2.98661 26.3667 3.63995 23.66L4.61995 19.88C4.89995 18.8533 5.50661 17.9667 6.34661 17.4067C7.04661 16.8933 7.93328 16.6133 8.81995 16.6133H32.8066C33.7866 16.6133 34.72 16.94 35.4666 17.5C36.2133 18.06 36.7733 18.9 37.0066 19.8333L38.1266 23.9867C38.7799 26.46 39.1533 28.98 39.2 31.5V31.8733Z" stroke="#3871EF" stroke-width="1.53015" stroke-miterlimit="10" stroke-linecap="round" stroke-linejoin="round"/>
        <path d="M20.9067 10.8267V12.5533" stroke="#3871EF" stroke-width="1.53015" stroke-miterlimit="10" stroke-linecap="round" stroke-linejoin="round"/>
        <path d="M7.23334 36.6333H5.08667V38.78H7.23334V36.6333Z" stroke="#3871EF" stroke-width="1.53015" stroke-miterlimit="10" stroke-linecap="round" stroke-linejoin="round"/>
        <path d="M36.6801 36.6333H34.5334V38.78H36.6801V36.6333Z" stroke="#3871EF" stroke-width="1.53015" stroke-miterlimit="10" stroke-linecap="round" stroke-linejoin="round"/>
    </g>
    <defs>
        <clipPath id="clip0">
            <rect width="38.0333" height="37.1467" fill="white" transform="translate(1.8667 2.33333)"/>
        </clipPath>
    </defs>
</svg>
