<svg width="32" height="33" viewBox="0 0 32 33" fill="none" xmlns="http://www.w3.org/2000/svg">
    <g clip-path="url(#clip0)">
        <path d="M27.0216 13.8333C26.4527 13.4066 25.7416 13.1578 24.995 13.1578H6.71941C6.04385 13.1578 5.36829 13.3711 4.83496 13.7622L5.79496 10.1C6.04385 10.6689 6.61274 11.06 7.25274 11.06H14.435C15.075 11.06 15.6439 10.7044 15.8927 10.1C15.8927 10.0644 15.8927 10.0644 15.9283 10.0289C15.9283 10.0644 15.9283 10.0644 15.9639 10.1C16.2127 10.6689 16.7816 11.06 17.4216 11.06H24.6038C25.2438 11.06 25.8127 10.7044 26.0616 10.1L27.0216 13.8333Z" stroke="#8F99B4" stroke-width="1.16583" stroke-miterlimit="10" stroke-linecap="round" stroke-linejoin="round"/>
        <path d="M29.8662 24.7844H1.95508L2.16841 23.9311C2.16841 23.9311 2.16841 23.9311 2.16841 23.8955C2.52397 22.5444 3.76841 21.62 5.15508 21.62H26.6306C28.0173 21.62 29.2617 22.58 29.6173 23.8955V23.9311L29.8662 24.7844Z" stroke="#8F99B4" stroke-width="1.16583" stroke-miterlimit="10" stroke-linecap="round" stroke-linejoin="round"/>
        <path d="M29.8662 24.7845H1.95508V28.4111H29.8662V24.7845Z" stroke="#8F99B4" stroke-width="1.16583" stroke-miterlimit="10" stroke-linecap="round" stroke-linejoin="round"/>
        <path d="M25.3867 7.14887C25.0311 6.79332 24.5333 6.57999 24 6.57999H17.9555C17.2444 6.57999 16.6044 6.9711 16.2489 7.6111C16.1778 7.75332 16.1067 7.89554 16.0711 8.03776L15.8933 8.78443L15.7155 8.03776C15.68 7.89554 15.6089 7.75332 15.5378 7.6111C15.2533 6.9711 14.5778 6.54443 13.8667 6.54443H7.82221C7.28888 6.54443 6.7911 6.75776 6.43555 7.14887C6.43555 4.76665 8.35555 2.8111 10.7733 2.8111H21.0844C23.4667 2.8111 25.3867 4.76665 25.3867 7.14887Z" stroke="#8F99B4" stroke-width="1.16583" stroke-miterlimit="10" stroke-linecap="round" stroke-linejoin="round"/>
        <path d="M26.0257 10.0644C25.7768 10.6333 25.2079 11.0244 24.5679 11.0244H17.3857C16.7457 11.0244 16.1768 10.6689 15.9279 10.0644C15.9279 10.0289 15.8923 10.0289 15.8923 9.99333C15.8923 10.0289 15.8923 10.0289 15.8568 10.0644C15.6079 10.6333 15.039 11.0244 14.399 11.0244H7.25234C6.61234 11.0244 6.04346 10.6689 5.79457 10.0644C5.6879 9.8511 5.65234 9.63777 5.65234 9.38888C5.65234 9.24666 5.6879 9.10444 5.6879 8.96221L5.93679 7.96666C6.0079 7.64666 6.18568 7.32666 6.39901 7.11333C6.75457 6.75777 7.25234 6.50888 7.78568 6.50888H13.8657C14.5768 6.50888 15.2168 6.89999 15.5723 7.53999C15.6435 7.68221 15.7146 7.82444 15.7501 7.96666L15.9279 8.71333L16.1057 7.96666C16.1412 7.82444 16.2123 7.68221 16.2835 7.53999C16.6035 6.93555 17.2435 6.50888 17.9901 6.50888H24.0346C24.5679 6.50888 25.0657 6.72221 25.4212 7.07777C25.6346 7.32666 25.8123 7.6111 25.8835 7.9311L26.1323 8.92666C26.239 9.35333 26.2035 9.74444 26.0257 10.0644Z" stroke="#8F99B4" stroke-width="1.16583" stroke-miterlimit="10" stroke-linecap="round" stroke-linejoin="round"/>
        <path d="M29.8658 24.7844L29.6525 23.9311C29.6525 23.9311 29.6525 23.9311 29.6525 23.8956C29.2969 22.5444 28.0525 21.62 26.6658 21.62H5.19023C3.80357 21.62 2.55912 22.58 2.20357 23.8956V23.9311L1.99023 24.7844C1.99023 22.6867 2.27468 20.5889 2.77246 18.5267L3.51912 15.6467C3.73246 14.8644 4.19468 14.1889 4.83468 13.7622C5.36801 13.3711 6.04357 13.1578 6.71912 13.1578H24.9947C25.7413 13.1578 26.4525 13.4067 27.0213 13.8333C27.5902 14.26 28.0169 14.9 28.1947 15.6111L29.048 18.7756C29.5458 20.66 29.8302 22.58 29.8658 24.5V24.7844Z" stroke="#8F99B4" stroke-width="1.16583" stroke-miterlimit="10" stroke-linecap="round" stroke-linejoin="round"/>
        <path d="M15.9287 8.74887V10.0644" stroke="#8F99B4" stroke-width="1.16583" stroke-miterlimit="10" stroke-linecap="round" stroke-linejoin="round"/>
        <path d="M5.51056 28.4111H3.875V30.0467H5.51056V28.4111Z" stroke="#8F99B4" stroke-width="1.16583" stroke-miterlimit="10" stroke-linecap="round" stroke-linejoin="round"/>
        <path d="M27.9461 28.4111H26.3105V30.0467H27.9461V28.4111Z" stroke="#8F99B4" stroke-width="1.16583" stroke-miterlimit="10" stroke-linecap="round" stroke-linejoin="round"/>
    </g>
    <defs>
        <clipPath id="clip0">
            <rect width="28.9778" height="28.3022" fill="white" transform="translate(1.42188 2.27777)"/>
        </clipPath>
    </defs>
</svg>
