<svg width="28" height="28" viewBox="0 0 28 28" fill="none" xmlns="http://www.w3.org/2000/svg">
    <path d="M7.98828 18.5H20.0117C20.3984 18.5 20.75 18.1484 20.75 17.7617C20.75 17.3398 20.3984 16.9883 20.0117 16.9883H7.98828C7.60156 16.9883 7.25 17.3398 7.25 17.7617C7.25 18.1484 7.60156 18.5 7.98828 18.5ZM7.98828 14.7383H20.0117C20.3984 14.7383 20.75 14.4219 20.75 14C20.75 13.5781 20.3984 13.2617 20.0117 13.2617H7.98828C7.60156 13.2617 7.25 13.5781 7.25 14C7.25 14.4219 7.60156 14.7383 7.98828 14.7383ZM7.25 10.2383C7.25 10.6602 7.60156 11.0117 7.98828 11.0117H20.0117C20.3984 11.0117 20.75 10.6602 20.75 10.2383C20.75 9.85156 20.3984 9.5 20.0117 9.5H7.98828C7.60156 9.5 7.25 9.85156 7.25 10.2383Z" fill="#1D2E5B"/>
</svg>
