<svg width="28" height="28" viewBox="0 0 28 28" fill="none" xmlns="http://www.w3.org/2000/svg">
    <path d="M18.7109 9.28906C18.4297 8.97266 17.9727 8.97266 17.6562 9.28906L14 12.9453L10.3438 9.28906C10.0273 8.97266 9.57031 8.97266 9.28906 9.28906C8.97266 9.57031 8.97266 10.0273 9.28906 10.3438L12.9453 14L9.28906 17.6562C8.97266 17.9727 8.97266 18.4297 9.28906 18.7109C9.57031 19.0273 10.0273 19.0273 10.3438 18.7109L14 15.0547L17.6562 18.7109C17.9727 19.0273 18.4297 19.0273 18.7109 18.7109C19.0273 18.4297 19.0273 17.9727 18.7109 17.6562L15.0547 14L18.7109 10.3438C19.0273 10.0625 19.0273 9.57031 18.7109 9.28906Z" fill="#1D2E5B"/>
</svg>
