<svg width="18" height="18" viewBox="0 0 18 18" fill="none" xmlns="http://www.w3.org/2000/svg">
    <path d="M13.7109 4.28906C13.4297 3.97266 12.9727 3.97266 12.6562 4.28906L9 7.94531L5.34375 4.28906C5.02734 3.97266 4.57031 3.97266 4.28906 4.28906C3.97266 4.57031 3.97266 5.02734 4.28906 5.34375L7.94531 9L4.28906 12.6562C3.97266 12.9727 3.97266 13.4297 4.28906 13.7109C4.57031 14.0273 5.02734 14.0273 5.34375 13.7109L9 10.0547L12.6562 13.7109C12.9727 14.0273 13.4297 14.0273 13.7109 13.7109C14.0273 13.4297 14.0273 12.9727 13.7109 12.6562L10.0547 9L13.7109 5.34375C14.0273 5.0625 14.0273 4.57031 13.7109 4.28906Z" fill="#8F99B4"/>
</svg>
