<svg width="12" height="14" viewBox="0 0 12 14" fill="none" xmlns="http://www.w3.org/2000/svg">
<path d="M1.5 12.2383C1.5 13.082 2.16797 13.75 3.01172 13.75H8.98828C9.83203 13.75 10.5 13.082 10.5 12.2383V4.75C10.5 3.94141 9.83203 3.23828 8.98828 3.23828H3.01172C2.16797 3.23828 1.5 3.94141 1.5 4.75V12.2383ZM3.89062 6.36719C4.17188 6.08594 4.62891 6.08594 4.94531 6.36719L6 7.45703L7.05469 6.36719C7.37109 6.08594 7.82812 6.08594 8.10938 6.36719C8.42578 6.68359 8.42578 7.14062 8.10938 7.42188L7.05469 8.51172L8.10938 9.56641C8.42578 9.84766 8.42578 10.3398 8.10938 10.6211C7.82812 10.9023 7.37109 10.9023 7.05469 10.6211L6 9.56641L4.94531 10.6211C4.62891 10.9023 4.17188 10.9023 3.89062 10.6211C3.57422 10.3398 3.57422 9.84766 3.89062 9.56641L4.94531 8.51172L3.89062 7.42188C3.57422 7.14062 3.57422 6.68359 3.89062 6.36719ZM8.63672 0.988281L8.10938 0.460938C7.96875 0.320312 7.75781 0.25 7.58203 0.25H4.41797C4.24219 0.25 4.03125 0.320312 3.89062 0.460938L3.36328 0.988281H1.5C1.07812 0.988281 0.761719 1.33984 0.761719 1.76172C0.761719 2.14844 1.07812 2.5 1.5 2.5H10.5C10.9219 2.5 11.2383 2.14844 11.2383 1.76172C11.2383 1.33984 10.9219 0.988281 10.5 0.988281H8.63672Z" fill="#8F99B4"/>
</svg>
