<svg width="18" height="13" viewBox="0 0 18 13" fill="none" xmlns="http://www.w3.org/2000/svg">
<path d="M9 0.988281C5.23828 0.988281 2.03906 3.34375 0.738281 6.61328C2.03906 9.91797 5.23828 12.2383 9 12.2383C12.7617 12.2383 15.9609 9.91797 17.2617 6.61328C15.9609 3.34375 12.7617 0.988281 9 0.988281ZM9 10.375C6.92578 10.375 5.23828 8.6875 5.23828 6.61328C5.23828 4.53906 6.92578 2.88672 9 2.88672C11.0742 2.88672 12.7617 4.53906 12.7617 6.61328C12.7617 8.6875 11.0742 10.375 9 10.375ZM9 4.36328C7.76953 4.36328 6.75 5.38281 6.75 6.61328C6.75 7.87891 7.76953 8.86328 9 8.86328C10.2305 8.86328 11.25 7.87891 11.25 6.61328C11.25 5.38281 10.2305 4.36328 9 4.36328Z" fill="#8F99B4"/>
</svg>
