<svg width="18" height="14" viewBox="0 0 18 14" fill="none" xmlns="http://www.w3.org/2000/svg">
<path d="M9 2.88672C11.0742 2.88672 12.7617 4.53906 12.7617 6.61328C12.7617 7 12.6914 7.38672 12.5859 7.70312L14.8711 10.0234C15.8906 9.10938 16.7344 7.94922 17.2617 6.61328C15.9609 3.34375 12.7617 0.988281 9 0.988281C8.05078 0.988281 7.13672 1.16406 6.25781 1.41016L7.91016 3.0625C8.26172 2.95703 8.61328 2.88672 9 2.88672ZM2.03906 0.355469C1.72266 0.671875 1.72266 1.12891 2.03906 1.41016L3.51562 2.92188C2.28516 3.87109 1.33594 5.13672 0.738281 6.61328C2.03906 9.91797 5.23828 12.2383 9 12.2383C10.125 12.2383 11.2148 12.0273 12.2344 11.6406L14.2734 13.6797C14.5547 13.9609 15.0469 13.9609 15.3281 13.6797C15.6094 13.3984 15.6094 12.9062 15.3281 12.625L3.09375 0.355469C2.8125 0.0742188 2.32031 0.0742188 2.03906 0.355469ZM9 10.375C6.92578 10.375 5.23828 8.6875 5.23828 6.61328C5.23828 6.05078 5.37891 5.48828 5.625 5.03125L6.78516 6.19141C6.78516 6.33203 6.75 6.47266 6.75 6.61328C6.75 7.87891 7.76953 8.86328 9 8.86328C9.14062 8.86328 9.28125 8.86328 9.42188 8.82812L10.6172 9.98828C10.125 10.2344 9.5625 10.375 9 10.375ZM11.2148 6.36719C11.1094 5.3125 10.3008 4.50391 9.24609 4.39844L11.2148 6.36719Z" fill="#8F99B4"/>
</svg>
