<svg width="18" height="19" viewBox="0 0 18 19" fill="none" xmlns="http://www.w3.org/2000/svg">
    <path d="M9 2.01172C4.85156 2.01172 1.51172 5.35156 1.51172 9.5C1.51172 13.6484 4.85156 16.9883 9 16.9883C13.1484 16.9883 16.4883 13.6484 16.4883 9.5C16.4883 5.35156 13.1484 2.01172 9 2.01172ZM6.96094 12.7344L4.28906 10.0273C3.97266 9.74609 3.97266 9.25391 4.28906 8.97266C4.57031 8.69141 5.02734 8.69141 5.34375 8.97266L7.48828 11.1172L12.6562 5.98438C12.9375 5.66797 13.4297 5.66797 13.7109 5.98438C14.0273 6.26562 14.0273 6.72266 13.7109 7.03906L8.01562 12.7344C7.73438 13.0156 7.27734 13.0156 6.96094 12.7344Z" fill="#3871EF"/>
</svg>
