<svg width="18" height="19" viewBox="0 0 18 19" fill="none" xmlns="http://www.w3.org/2000/svg">
    <path d="M9 2.01172C4.85156 2.01172 1.51172 5.35156 1.51172 9.5C1.51172 13.6484 4.85156 16.9883 9 16.9883C13.1484 16.9883 16.4883 13.6484 16.4883 9.5C16.4883 5.35156 13.1484 2.01172 9 2.01172ZM9 15.5117C5.69531 15.5117 2.98828 12.8047 2.98828 9.5C2.98828 6.19531 5.69531 3.48828 9 3.48828C12.3047 3.48828 15.0117 6.19531 15.0117 9.5C15.0117 12.8047 12.3047 15.5117 9 15.5117ZM11.918 6.72266L7.48828 11.1172L6.08203 9.71094C5.80078 9.42969 5.30859 9.42969 5.02734 9.71094C4.74609 10.0273 4.74609 10.4844 5.02734 10.7656L6.96094 12.7344C7.27734 13.0156 7.73438 13.0156 8.01562 12.7344L12.9727 7.77734C13.2539 7.49609 13.2539 7.00391 12.9727 6.72266C12.6914 6.44141 12.1992 6.44141 11.918 6.72266Z" fill="#A9C0FF"/>
</svg>
