<svg width="16" height="16" viewBox="0 0 16 16" fill="none" xmlns="http://www.w3.org/2000/svg">
    <path d="M9.25028 5.8125L8.00028 7.0625L6.75028 5.8125C6.46903 5.53125 6.06278 5.53125 5.81278 5.8125C5.53153 6.0625 5.53153 6.46875 5.81278 6.75L7.06278 8L5.81278 9.25C5.53153 9.53125 5.53153 9.9375 5.81278 10.1875C6.06278 10.4688 6.46903 10.4688 6.75028 10.1875L8.00028 8.9375L9.25028 10.1875C9.53153 10.4688 9.93778 10.4688 10.1878 10.1875C10.469 9.9375 10.469 9.53125 10.1878 9.25L8.93778 8L10.1878 6.75C10.469 6.46875 10.469 6.0625 10.1878 5.8125C9.93778 5.53125 9.50028 5.53125 9.25028 5.8125ZM8.00028 1.34375C4.31278 1.34375 1.34403 4.3125 1.34403 8C1.34403 11.6875 4.31278 14.6562 8.00028 14.6562C11.6878 14.6562 14.6565 11.6875 14.6565 8C14.6565 4.3125 11.6878 1.34375 8.00028 1.34375ZM8.00028 13.3438C5.06278 13.3438 2.65653 10.9375 2.65653 8C2.65653 5.0625 5.06278 2.65625 8.00028 2.65625C10.9378 2.65625 13.344 5.0625 13.344 8C13.344 10.9375 10.9378 13.3438 8.00028 13.3438Z" fill="#1D2E5B"/>
</svg>
