<svg width="14" height="15" viewBox="0 0 14 15" fill="none" xmlns="http://www.w3.org/2000/svg">
    <path d="M7 1.67578C3.77344 1.67578 1.17578 4.27344 1.17578 7.5C1.17578 10.7266 3.77344 13.3242 7 13.3242C10.2266 13.3242 12.8242 10.7266 12.8242 7.5C12.8242 4.27344 10.2266 1.67578 7 1.67578ZM9.32422 8.07422H7.57422V9.82422C7.57422 10.1523 7.32812 10.4258 7 10.4258C6.67188 10.4258 6.42578 10.1523 6.42578 9.82422V8.07422H4.67578C4.34766 8.07422 4.07422 7.82812 4.07422 7.5C4.07422 7.17188 4.34766 6.92578 4.67578 6.92578H6.42578V5.17578C6.42578 4.84766 6.67188 4.57422 7 4.57422C7.32812 4.57422 7.57422 4.84766 7.57422 5.17578V6.92578H9.32422C9.65234 6.92578 9.92578 7.17188 9.92578 7.5C9.92578 7.82812 9.65234 8.07422 9.32422 8.07422Z" fill="white"/>
</svg>
