<svg width="14" height="14" viewBox="0 0 14 14" fill="none" xmlns="http://www.w3.org/2000/svg">
    <path opacity="0.6" d="M7 1.17578C3.77344 1.17578 1.17578 3.77344 1.17578 7C1.17578 10.2266 3.77344 12.8242 7 12.8242C10.2266 12.8242 12.8242 10.2266 12.8242 7C12.8242 3.77344 10.2266 1.17578 7 1.17578ZM7 11.6758C4.42969 11.6758 2.32422 9.57031 2.32422 7C2.32422 4.42969 4.42969 2.32422 7 2.32422C9.57031 2.32422 11.6758 4.42969 11.6758 7C11.6758 9.57031 9.57031 11.6758 7 11.6758ZM6.42578 9.32422H7.57422V10.5H6.42578V9.32422ZM7.35547 3.52734C6.15234 3.33594 5.08594 4.10156 4.78516 5.14062C4.67578 5.49609 4.92188 5.82422 5.27734 5.82422H5.38672C5.63281 5.82422 5.82422 5.66016 5.90625 5.44141C6.09766 4.92188 6.64453 4.56641 7.24609 4.70312C7.79297 4.8125 8.20312 5.35938 8.17578 5.93359C8.12109 6.69922 7.21875 6.86328 6.72656 7.60156C6.72656 7.62891 6.72656 7.62891 6.72656 7.62891C6.67188 7.73828 6.61719 7.82031 6.5625 7.92969C6.5625 7.95703 6.5625 7.95703 6.53516 7.98438V8.01172C6.45312 8.23047 6.42578 8.44922 6.42578 8.75H7.57422C7.57422 8.50391 7.65625 8.3125 7.73828 8.12109C7.76562 8.12109 7.76562 8.09375 7.76562 8.06641C7.82031 7.98438 7.875 7.90234 7.92969 7.84766C7.95703 7.84766 7.95703 7.82031 7.95703 7.82031C8.01172 7.76562 8.06641 7.68359 8.14844 7.62891C8.72266 7.08203 9.46094 6.67188 9.29688 5.55078C9.16016 4.53906 8.36719 3.66406 7.35547 3.52734Z" fill="#1D2E5B"/>
</svg>
