<svg width="20" height="20" viewBox="0 0 20 20" fill="none" xmlns="http://www.w3.org/2000/svg">
<path d="M10 0.015625C4.46875 0.015625 0.015625 4.46875 0.015625 10C0.015625 15.5312 4.46875 19.9844 10 19.9844C15.5312 19.9844 19.9844 15.5312 19.9844 10C19.9844 4.46875 15.5312 0.015625 10 0.015625ZM10 15.0156C9.4375 15.0156 9.01562 14.5469 9.01562 13.9844V10C9.01562 9.4375 9.4375 9.01562 10 9.01562C10.5625 9.01562 10.9844 9.4375 10.9844 10V13.9844C10.9844 14.5469 10.5625 15.0156 10 15.0156ZM10.9844 7H9.01562V4.98438H10.9844V7Z" fill="#3871EF"/>
</svg>
