<svg width="51" height="50" viewBox="0 0 51 50" fill="none" xmlns="http://www.w3.org/2000/svg">
    <path d="M22.5 14.6517C22.5 12.9584 23.9176 11.5474 25.6187 11.5474C27.3198 11.5474 28.7374 12.9584 28.7374 14.6517C28.7374 16.345 27.3198 17.756 25.6187 17.756C23.9176 17.756 22.5 16.345 22.5 14.6517Z" stroke="#3871EF" stroke-width="1.66667" stroke-miterlimit="10" stroke-linecap="round" stroke-linejoin="round"/>
    <path d="M46.2022 37.7364L31.4025 43.042L18.9843 42.0825L13.7108 30.2296L5.03513 26.5043L4.18457 8.95073L19.7215 5.90283L21.3659 6.97524C18.6441 8.49919 16.8863 11.3213 16.8863 14.6514C16.8863 19.8441 22.4433 27.0688 24.7114 29.778C25.165 30.3989 26.129 30.3989 26.5826 29.778C28.9075 27.0688 34.4078 19.8441 34.4078 14.6514C34.4078 13.1275 34.0109 11.7164 33.3871 10.5311L41.4958 11.5471L46.2022 37.7364Z" stroke="#3871EF" stroke-width="1.66667" stroke-miterlimit="10" stroke-linecap="round" stroke-linejoin="round"/>
    <path d="M33.3876 10.4747C31.9133 7.70899 29.0214 5.90283 25.6191 5.90283C24.0314 5.90283 22.6138 6.29793 21.3096 6.97524C18.6445 8.49919 16.8867 11.3213 16.8867 14.6514C16.8867 19.8441 22.4437 27.0688 24.7119 29.778C25.1655 30.3989 26.1295 30.3989 26.5831 29.778C28.908 27.0688 34.4083 19.8441 34.4083 14.6514C34.4083 13.1275 34.068 11.7164 33.3876 10.4747ZM25.6191 17.7558C23.918 17.7558 22.5004 16.3447 22.5004 14.6514C22.5004 12.9581 23.918 11.5471 25.6191 11.5471C27.3203 11.5471 28.7379 12.9581 28.7379 14.6514C28.7379 16.3447 27.377 17.7558 25.6191 17.7558Z" stroke="#3871EF" stroke-width="1.66667" stroke-miterlimit="10" stroke-linecap="round" stroke-linejoin="round"/>
    <path d="M43.5372 24.4727L38.3204 31.8102L29.588 36.8336L18.9844 42.0827" stroke="#3871EF" stroke-width="1.11111" stroke-miterlimit="10" stroke-linecap="round" stroke-linejoin="round" stroke-dasharray="1.11 2.22"/>
    <path d="M13.7114 30.2297L11.5566 19.2799L13.1444 7.20117" stroke="#3871EF" stroke-width="1.11111" stroke-miterlimit="10" stroke-linecap="round" stroke-linejoin="round" stroke-dasharray="1.11 2.22"/>
</svg>
