<svg width="32" height="32" viewBox="0 0 32 32" fill="none" xmlns="http://www.w3.org/2000/svg">
    <path d="M2.13281 25.5645V29.7245" stroke="#8F99B4" stroke-width="1.16583" stroke-miterlimit="10" stroke-linecap="round"/>
    <path d="M4.72852 27.6982V29.7249" stroke="#8F99B4" stroke-width="1.16583" stroke-miterlimit="10" stroke-linecap="round"/>
    <path d="M7.28809 27.6982V29.7249" stroke="#8F99B4" stroke-width="1.16583" stroke-miterlimit="10" stroke-linecap="round"/>
    <path d="M9.88379 27.6982V29.7249" stroke="#8F99B4" stroke-width="1.16583" stroke-miterlimit="10" stroke-linecap="round"/>
    <path d="M12.4795 25.5645V29.7245" stroke="#8F99B4" stroke-width="1.16583" stroke-miterlimit="10" stroke-linecap="round"/>
    <path d="M15.04 27.6982V29.7249" stroke="#8F99B4" stroke-width="1.16583" stroke-miterlimit="10" stroke-linecap="round"/>
    <path d="M17.6348 27.6982V29.7249" stroke="#8F99B4" stroke-width="1.16583" stroke-miterlimit="10" stroke-linecap="round"/>
    <path d="M20.2305 27.6982V29.7249" stroke="#8F99B4" stroke-width="1.16583" stroke-miterlimit="10" stroke-linecap="round"/>
    <path d="M22.791 25.5645V29.7245" stroke="#8F99B4" stroke-width="1.16583" stroke-miterlimit="10" stroke-linecap="round"/>
    <path d="M25.8838 23.147H30.0438" stroke="#8F99B4" stroke-width="1.16583" stroke-miterlimit="10" stroke-linecap="round"/>
    <path d="M28.0176 20.5869H30.0442" stroke="#8F99B4" stroke-width="1.16583" stroke-miterlimit="10" stroke-linecap="round"/>
    <path d="M28.0176 17.9912H30.0442" stroke="#8F99B4" stroke-width="1.16583" stroke-miterlimit="10" stroke-linecap="round"/>
    <path d="M28.0176 15.396H30.0442" stroke="#8F99B4" stroke-width="1.16583" stroke-miterlimit="10" stroke-linecap="round"/>
    <path d="M25.8838 12.8359H30.0438" stroke="#8F99B4" stroke-width="1.16583" stroke-miterlimit="10" stroke-linecap="round"/>
    <path d="M28.0176 10.2402H30.0442" stroke="#8F99B4" stroke-width="1.16583" stroke-miterlimit="10" stroke-linecap="round"/>
    <path d="M28.0176 7.64502H30.0442" stroke="#8F99B4" stroke-width="1.16583" stroke-miterlimit="10" stroke-linecap="round"/>
    <path d="M28.0176 5.08447H30.0442" stroke="#8F99B4" stroke-width="1.16583" stroke-miterlimit="10" stroke-linecap="round"/>
    <path d="M25.8838 2.48926H30.0438" stroke="#8F99B4" stroke-width="1.16583" stroke-miterlimit="10" stroke-linecap="round"/>
    <rect x="2.33203" y="2.7207" width="21.3735" height="21.3735" stroke="#8F99B4" stroke-width="1.16583" stroke-miterlimit="10" stroke-linecap="round" stroke-linejoin="round"/>
    <rect x="7.77148" y="8.5498" width="10.1039" height="5.05193" rx="0.777219" stroke="#8F99B4" stroke-width="1.16583" stroke-miterlimit="10" stroke-linecap="round" stroke-linejoin="round"/>
    <rect x="8.16016" y="8.5498" width="4.66332" height="5.05193" rx="0.777219" stroke="#8F99B4" stroke-width="1.16583" stroke-miterlimit="10" stroke-linecap="round" stroke-linejoin="round"/>
    <rect x="7.77148" y="6.21826" width="10.1039" height="2.33166" rx="0.777219" stroke="#8F99B4" stroke-width="1.16583" stroke-miterlimit="10" stroke-linecap="round" stroke-linejoin="round"/>
    <rect width="2.33166" height="5.05193" rx="0.777219" transform="matrix(-1 0 0 1 7.77148 8.5498)" stroke="#8F99B4" stroke-width="1.16583" stroke-miterlimit="10" stroke-linecap="round" stroke-linejoin="round"/>
    <rect width="1.94305" height="5.05193" rx="0.777219" transform="matrix(-1 0 0 1 19.8184 8.5498)" stroke="#8F99B4" stroke-width="1.16583" stroke-miterlimit="10" stroke-linecap="round" stroke-linejoin="round"/>
    <ellipse cx="12.8233" cy="18.2652" rx="5.44054" ry="2.72027" stroke="#8F99B4" stroke-width="1.16583" stroke-miterlimit="10" stroke-linecap="round" stroke-linejoin="round"/>
</svg>
