<svg width="18" height="18" viewBox="0 0 18 18" fill="none" xmlns="http://www.w3.org/2000/svg">
    <path d="M13.5 6.01172H12.7617V4.5C12.7617 2.42578 11.0742 0.738281 9 0.738281C6.92578 0.738281 5.23828 2.42578 5.23828 4.5V6.01172H4.5C3.69141 6.01172 2.98828 6.67969 2.98828 7.48828V15.0117C2.98828 15.8203 3.69141 16.4883 4.5 16.4883H13.5C14.3086 16.4883 15.0117 15.8203 15.0117 15.0117V7.48828C15.0117 6.67969 14.3086 6.01172 13.5 6.01172ZM9 12.7617C8.19141 12.7617 7.48828 12.0586 7.48828 11.25C7.48828 10.4414 8.19141 9.73828 9 9.73828C9.80859 9.73828 10.5117 10.4414 10.5117 11.25C10.5117 12.0586 9.80859 12.7617 9 12.7617ZM6.75 6.01172V4.5C6.75 3.26953 7.76953 2.25 9 2.25C10.2305 2.25 11.25 3.26953 11.25 4.5V6.01172H6.75Z" fill="#8F99B4"/>
</svg>
