<svg width="14" height="15" viewBox="0 0 14 15" fill="none" xmlns="http://www.w3.org/2000/svg">
    <path d="M10.5 5.17578H9.92578V4C9.92578 2.38672 8.61328 1.07422 7 1.07422C5.38672 1.07422 4.07422 2.38672 4.07422 4V5.17578H3.5C2.87109 5.17578 2.32422 5.69531 2.32422 6.32422V12.1758C2.32422 12.8047 2.87109 13.3242 3.5 13.3242H10.5C11.1289 13.3242 11.6758 12.8047 11.6758 12.1758V6.32422C11.6758 5.69531 11.1289 5.17578 10.5 5.17578ZM7 10.4258C6.37109 10.4258 5.82422 9.87891 5.82422 9.25C5.82422 8.62109 6.37109 8.07422 7 8.07422C7.62891 8.07422 8.17578 8.62109 8.17578 9.25C8.17578 9.87891 7.62891 10.4258 7 10.4258ZM5.25 5.17578V4C5.25 3.04297 6.04297 2.25 7 2.25C7.95703 2.25 8.75 3.04297 8.75 4V5.17578H5.25Z" fill="#3871EF"/>
</svg>
