<svg width="600" height="801" viewBox="0 0 600 801" fill="none" xmlns="http://www.w3.org/2000/svg">
<path d="M413.31 159.352L399.4 146.274C386.954 133.922 367.188 134.649 354.742 147C340.833 160.805 325.459 176.063 325.459 176.063C323.994 178.243 321.798 179.696 319.602 181.876C314.477 185.509 307.156 188.415 299.835 188.415C292.514 188.415 285.926 186.235 280.069 181.876C277.873 180.423 276.408 178.243 274.212 176.063C274.212 176.063 258.838 160.805 244.928 147C232.483 134.649 212.716 134.649 200.271 146.274L187.093 159.352C172.451 173.884 163.666 193.501 163.666 214.572V317.019C163.666 354.801 194.414 385.317 232.483 385.317H367.188C405.257 385.317 436.005 354.801 436.005 317.019V214.572C436.737 194.228 427.952 173.884 413.31 159.352ZM277.873 341.722H232.483C218.573 341.722 207.592 330.824 207.592 317.019V214.572C207.592 205.853 211.252 197.134 217.841 190.595L222.233 186.962L268.355 231.283C274.944 237.822 278.605 245.814 278.605 255.26V341.722H277.873ZM392.811 317.019C392.811 330.824 381.83 341.722 367.92 341.722H322.53V254.533C322.53 245.814 326.191 237.096 332.779 230.556L378.901 186.235L383.294 189.868C389.883 196.407 393.543 205.126 393.543 213.845V317.019H392.811Z" fill="#3871EF"/>
<path d="M344.495 123.024L315.211 152.086C307.158 160.079 293.248 160.079 285.195 152.086L255.911 123.024C248.59 115.758 247.858 104.133 253.715 95.4137C254.447 94.6872 255.179 93.9606 255.911 93.234L285.195 64.1711C293.248 56.1788 307.158 56.1788 315.211 64.1711L344.495 93.234C345.227 93.9606 345.959 94.6872 346.691 95.4137C352.548 103.406 352.548 115.758 344.495 123.024Z" fill="#FE7F2D"/>
<g opacity="0.7">
<path d="M57.9355 558.52V462.427H98.0084C108.004 462.427 115.728 464.653 121.18 469.106C126.723 473.467 129.494 479.601 129.494 487.507C129.494 492.686 128.131 497.139 125.405 500.864C122.679 504.59 118.953 507.316 114.228 509.042C119.771 510.496 124.088 513.177 127.177 517.084C130.267 520.991 131.811 525.944 131.811 531.941C131.811 540.483 128.949 547.071 123.224 551.705C117.59 556.248 109.73 558.52 99.644 558.52H57.9355ZM71.5658 504.408H95.8275C109.094 504.408 115.728 499.229 115.728 488.87C115.728 478.511 109.094 473.331 95.8275 473.331H71.5658V504.408ZM71.5658 547.616H98.0084C111.366 547.616 118.045 542.209 118.045 531.396C118.045 520.673 111.366 515.312 98.0084 515.312H71.5658V547.616Z" fill="#6C768F"/>
<path d="M178.514 559.747C167.61 559.747 159.023 556.703 152.753 550.614C146.483 544.435 143.348 536.03 143.348 525.399C143.348 518.583 144.711 512.586 147.437 507.407C150.254 502.136 154.116 498.047 159.023 495.139C163.93 492.232 169.563 490.778 175.924 490.778C185.102 490.778 192.326 493.731 197.596 499.637C202.867 505.453 205.502 513.495 205.502 523.763V528.397H156.706C157.705 542.209 165.02 549.115 178.65 549.115C182.467 549.115 186.192 548.524 189.827 547.343C193.553 546.162 197.051 544.208 200.322 541.482L204.411 551.023C201.413 553.749 197.551 555.885 192.826 557.43C188.101 558.974 183.33 559.747 178.514 559.747ZM176.469 500.455C170.745 500.455 166.201 502.227 162.839 505.771C159.477 509.315 157.433 514.04 156.706 519.946H193.916C193.644 513.767 192.008 508.997 189.009 505.635C186.011 502.182 181.831 500.455 176.469 500.455Z" fill="#6C768F"/>
<path d="M240.137 559.747C232.868 559.747 227.416 557.702 223.781 553.613C220.237 549.524 218.465 543.527 218.465 535.621V462.427H232.232V534.803C232.232 543.799 235.912 548.297 243.272 548.297C244.363 548.297 245.362 548.252 246.271 548.161C247.271 548.07 248.27 547.888 249.27 547.616L248.997 558.656C245.908 559.383 242.954 559.747 240.137 559.747Z" fill="#6C768F"/>
<path d="M287.541 584.281C281.543 584.281 275.955 583.554 270.776 582.1C265.596 580.737 261.007 578.556 257.009 575.558L261.234 565.744C265.233 568.47 269.322 570.469 273.502 571.741C277.682 573.013 282.043 573.65 286.587 573.65C299.308 573.65 305.669 567.289 305.669 554.567V544.072C303.761 548.07 300.762 551.205 296.673 553.477C292.675 555.749 288.177 556.884 283.179 556.884C277.182 556.884 271.957 555.521 267.504 552.795C263.052 549.978 259.599 546.116 257.145 541.21C254.692 536.212 253.465 530.396 253.465 523.763C253.465 517.22 254.692 511.496 257.145 506.589C259.599 501.591 263.052 497.729 267.504 495.003C271.957 492.186 277.182 490.778 283.179 490.778C288.268 490.778 292.811 491.914 296.809 494.185C300.808 496.457 303.761 499.592 305.669 503.59V492.005H319.027V552.932C319.027 563.381 316.346 571.196 310.985 576.376C305.624 581.646 297.809 584.281 287.541 584.281ZM286.45 546.117C292.266 546.117 296.9 544.117 300.353 540.119C303.806 536.121 305.533 530.669 305.533 523.763C305.533 516.857 303.806 511.45 300.353 507.543C296.9 503.545 292.266 501.546 286.45 501.546C280.635 501.546 276.001 503.545 272.548 507.543C269.095 511.45 267.368 516.857 267.368 523.763C267.368 530.669 269.095 536.121 272.548 540.119C276.001 544.117 280.635 546.117 286.45 546.117Z" fill="#6C768F"/>
<path d="M335.076 476.602V462.291H351.16V476.602H335.076ZM336.303 558.52V492.005H350.069V558.52H336.303Z" fill="#6C768F"/>
<path d="M391.119 559.747C375.035 559.747 366.993 550.796 366.993 532.895V492.005H380.76V533.031C380.76 538.393 381.85 542.345 384.031 544.89C386.212 547.434 389.665 548.706 394.39 548.706C399.569 548.706 403.749 546.98 406.93 543.527C410.201 540.074 411.837 535.439 411.837 529.624V492.005H425.603V558.52H412.246V547.888C410.065 551.796 407.157 554.749 403.522 556.748C399.887 558.747 395.753 559.747 391.119 559.747Z" fill="#6C768F"/>
<path d="M443.232 558.52V492.005H456.59V502.772C458.589 498.956 461.36 496.003 464.904 493.913C468.448 491.823 472.582 490.778 477.307 490.778C487.485 490.778 494.073 495.23 497.071 504.135C499.161 499.955 502.16 496.684 506.067 494.322C509.975 491.959 514.427 490.778 519.425 490.778C534.327 490.778 541.778 499.683 541.778 517.493V558.52H528.012V518.175C528.012 512.541 527.012 508.406 525.013 505.771C523.105 503.136 519.925 501.818 515.472 501.818C510.474 501.818 506.522 503.59 503.614 507.134C500.706 510.587 499.252 515.312 499.252 521.31V558.52H485.486V518.175C485.486 512.541 484.531 508.406 482.623 505.771C480.715 503.136 477.535 501.818 473.082 501.818C468.084 501.818 464.132 503.59 461.224 507.134C458.407 510.587 456.998 515.312 456.998 521.31V558.52H443.232Z" fill="#6C768F"/>
</g>
<path d="M61.3994 741.27V613.146H94.8389V741.27H61.3994Z" fill="#3871EF"/>
<path d="M116.197 741.27V651.856H147.638V663.851C150.424 659.61 154.119 656.218 158.723 653.674C163.449 651.129 168.84 649.857 174.898 649.857C180.956 649.857 186.166 651.19 190.527 653.855C195.01 656.521 198.402 660.64 200.704 666.213C203.733 661.004 207.853 657.005 213.063 654.219C218.272 651.311 224.027 649.857 230.327 649.857C240.747 649.857 248.441 653.007 253.408 659.307C258.497 665.486 261.041 675.179 261.041 688.385V741.27H228.692V689.294C228.692 684.084 227.904 680.328 226.329 678.026C224.754 675.724 222.149 674.573 218.515 674.573C214.032 674.573 210.579 676.148 208.156 679.298C205.854 682.448 204.703 686.931 204.703 692.747V741.27H172.354V689.294C172.354 684.084 171.566 680.328 169.991 678.026C168.416 675.724 165.811 674.573 162.176 674.573C157.815 674.573 154.422 676.148 151.999 679.298C149.697 682.448 148.546 686.931 148.546 692.747V741.27H116.197Z" fill="#3871EF"/>
<path d="M280.186 741.27V651.856H311.626V663.851C314.413 659.61 318.108 656.218 322.712 653.674C327.437 651.129 332.829 649.857 338.886 649.857C344.944 649.857 350.154 651.19 354.516 653.855C358.999 656.521 362.391 660.64 364.693 666.213C367.722 661.004 371.841 657.005 377.051 654.219C382.261 651.311 388.016 649.857 394.316 649.857C404.736 649.857 412.429 653.007 417.397 659.307C422.485 665.486 425.029 675.179 425.029 688.385V741.27H392.68V689.294C392.68 684.084 391.893 680.328 390.318 678.026C388.743 675.724 386.138 674.573 382.503 674.573C378.02 674.573 374.567 676.148 372.144 679.298C369.842 682.448 368.691 686.931 368.691 692.747V741.27H336.342V689.294C336.342 684.084 335.555 680.328 333.98 678.026C332.405 675.724 329.8 674.573 326.165 674.573C321.803 674.573 318.411 676.148 315.988 679.298C313.686 682.448 312.535 686.931 312.535 692.747V741.27H280.186Z" fill="#3871EF"/>
<path d="M489.063 743.27C479.128 743.27 470.465 741.392 463.075 737.636C455.684 733.88 449.929 728.488 445.81 721.461C441.691 714.434 439.631 706.135 439.631 696.563C439.631 686.871 441.691 678.571 445.81 671.665C449.929 664.638 455.684 659.247 463.075 655.491C470.465 651.735 479.128 649.857 489.063 649.857C498.998 649.857 507.661 651.735 515.051 655.491C522.442 659.247 528.136 664.638 532.135 671.665C536.254 678.571 538.314 686.871 538.314 696.563C538.314 706.135 536.254 714.434 532.135 721.461C528.136 728.488 522.442 733.88 515.051 737.636C507.661 741.392 498.998 743.27 489.063 743.27ZM489.063 719.462C493.909 719.462 497.908 717.645 501.058 714.01C504.208 710.375 505.783 704.56 505.783 696.563C505.783 688.446 504.208 682.63 501.058 679.117C497.908 675.482 493.909 673.665 489.063 673.665C484.096 673.665 480.037 675.482 476.887 679.117C473.737 682.63 472.162 688.446 472.162 696.563C472.162 704.56 473.737 710.375 476.887 714.01C480.037 717.645 484.096 719.462 489.063 719.462Z" fill="#3871EF"/>
</svg>
