<svg width="16" height="16" viewBox="0 0 16 16" fill="none" xmlns="http://www.w3.org/2000/svg">
    <path d="M13.344 2.65625H2.65653C1.93778 2.65625 1.34403 3.28125 1.34403 4V12C1.34403 12.7188 1.93778 13.3438 2.65653 13.3438H13.344C14.0628 13.3438 14.6565 12.7188 14.6565 12V4C14.6565 3.28125 14.0628 2.65625 13.344 2.65625ZM13.0628 5.5L8.34403 8.4375C8.12528 8.59375 7.87528 8.59375 7.65653 8.4375L2.93778 5.5C2.78153 5.40625 2.65653 5.21875 2.65653 5.03125C2.65653 4.5625 3.15653 4.3125 3.53153 4.53125L8.00028 7.34375L12.469 4.53125C12.844 4.3125 13.344 4.5625 13.344 5.03125C13.344 5.21875 13.219 5.40625 13.0628 5.5Z" fill="white"/>
</svg>
