<svg width="18" height="18" viewBox="0 0 18 18" fill="none" xmlns="http://www.w3.org/2000/svg">
    <path d="M15.0117 2.98828H2.98828C2.17969 2.98828 1.51172 3.69141 1.51172 4.5V13.5C1.51172 14.3086 2.17969 15.0117 2.98828 15.0117H15.0117C15.8203 15.0117 16.4883 14.3086 16.4883 13.5V4.5C16.4883 3.69141 15.8203 2.98828 15.0117 2.98828ZM14.6953 6.1875L9.38672 9.49219C9.14062 9.66797 8.85938 9.66797 8.61328 9.49219L3.30469 6.1875C3.12891 6.08203 2.98828 5.87109 2.98828 5.66016C2.98828 5.13281 3.55078 4.85156 3.97266 5.09766L9 8.26172L14.0273 5.09766C14.4492 4.85156 15.0117 5.13281 15.0117 5.66016C15.0117 5.87109 14.8711 6.08203 14.6953 6.1875Z" fill="#8F99B4"/>
</svg>
