<svg width="33" height="39" viewBox="0 0 33 39" fill="none" xmlns="http://www.w3.org/2000/svg">
    <path d="M4.7656 4.76565C10.9999 -1.4686 21.1076 -1.4686 27.3418 4.76565C33.5761 10.9999 33.5761 21.1076 27.3418 27.3419L16.0537 38.63L4.7656 27.3419C-1.46865 21.1076 -1.46865 10.9999 4.7656 4.76565Z" fill="#3871EF"/>
    <path d="M16 19.9375L19.1289 21.8359C19.6914 22.1875 20.3945 21.6602 20.2188 21.0273L19.4102 17.4766L22.1523 15.0859C22.6445 14.6641 22.3984 13.8555 21.7305 13.7852L18.1094 13.4688L16.7031 10.1289C16.4219 9.53125 15.5781 9.53125 15.2969 10.1289L13.8906 13.4688L10.2695 13.7852C9.60156 13.8203 9.35547 14.6641 9.84766 15.0859L12.5898 17.4766L11.7812 21.0273C11.6055 21.6602 12.3086 22.1875 12.8711 21.8359L16 19.9375Z" fill="white"/>
</svg>
