<svg width="33" height="39" viewBox="0 0 33 39" fill="none" xmlns="http://www.w3.org/2000/svg">
    <path d="M4.7656 4.76565C10.9999 -1.4686 21.1076 -1.4686 27.3418 4.76565C33.5761 10.9999 33.5761 21.1076 27.3418 27.3419L16.0537 38.63L4.7656 27.3419C-1.46865 21.1076 -1.46865 10.9999 4.7656 4.76565Z" fill="#FE7F2D"/>
    <path d="M14.4883 21.2383V17.5117H17.5117V21.2383C17.5117 21.6602 17.8281 22.0117 18.25 22.0117H20.5C20.9219 22.0117 21.2383 21.6602 21.2383 21.2383V16H22.5391C22.8555 16 23.0312 15.5781 22.7852 15.332L16.4922 9.70703C16.2109 9.46094 15.7891 9.46094 15.5078 9.70703L9.21484 15.332C8.96875 15.5781 9.14453 16 9.46094 16H10.7617V21.2383C10.7617 21.6602 11.0781 22.0117 11.5 22.0117H13.75C14.1719 22.0117 14.4883 21.6602 14.4883 21.2383Z" fill="white"/>
</svg>
