<svg width="14" height="15" viewBox="0 0 14 15" fill="none" xmlns="http://www.w3.org/2000/svg">
    <path d="M7 1.67578C4.73047 1.67578 2.92578 3.48047 2.92578 5.75C2.92578 8.18359 5.49609 11.5469 6.5625 12.8047C6.78125 13.1055 7.21875 13.1055 7.4375 12.8047C8.50391 11.5469 11.0742 8.18359 11.0742 5.75C11.0742 3.48047 9.26953 1.67578 7 1.67578ZM7 7.19922C6.20703 7.19922 5.55078 6.54297 5.55078 5.75C5.55078 4.95703 6.20703 4.30078 7 4.30078C7.79297 4.30078 8.44922 4.95703 8.44922 5.75C8.44922 6.54297 7.79297 7.19922 7 7.19922Z" fill="#3871EF"/>
</svg>
