<svg width="24" height="24" viewBox="0 0 24 24" fill="none" xmlns="http://www.w3.org/2000/svg">
    <path d="M12 2.01562C6.46875 2.01562 2.01562 6.46875 2.01562 12C2.01562 17.5312 6.46875 21.9844 12 21.9844C17.5312 21.9844 21.9844 17.5312 21.9844 12C21.9844 6.46875 17.5312 2.01562 12 2.01562ZM12 12.9844C11.4375 12.9844 11.0156 12.5625 11.0156 12V8.01562C11.0156 7.45312 11.4375 6.98438 12 6.98438C12.5625 6.98438 12.9844 7.45312 12.9844 8.01562V12C12.9844 12.5625 12.5625 12.9844 12 12.9844ZM12.9844 17.0156H11.0156V15H12.9844V17.0156Z" fill="#8F99B4"/>
</svg>
