<svg width="140" height="140" viewBox="0 0 140 140" fill="none" xmlns="http://www.w3.org/2000/svg">
	<rect width="140" height="140" rx="8" fill="#F2F6FF"/>
	<path opacity="0.2" d="M22.6742 113.54H24.1262V122H22.9622L18.4262 116.096V122H16.9862V113.54H18.1382L22.6742 119.432V113.54ZM28.4951 122.096C27.8951 122.096 27.3671 121.972 26.9111 121.724C26.4631 121.476 26.1151 121.12 25.8671 120.656C25.6191 120.192 25.4951 119.652 25.4951 119.036C25.4951 118.42 25.6191 117.884 25.8671 117.428C26.1151 116.964 26.4631 116.608 26.9111 116.36C27.3671 116.112 27.8951 115.988 28.4951 115.988C29.0951 115.988 29.6191 116.112 30.0671 116.36C30.5231 116.608 30.8711 116.964 31.1111 117.428C31.3591 117.884 31.4831 118.42 31.4831 119.036C31.4831 119.652 31.3591 120.192 31.1111 120.656C30.8711 121.12 30.5231 121.476 30.0671 121.724C29.6191 121.972 29.0951 122.096 28.4951 122.096ZM28.4831 120.932C28.9711 120.932 29.3431 120.772 29.5991 120.452C29.8551 120.132 29.9831 119.66 29.9831 119.036C29.9831 118.42 29.8551 117.952 29.5991 117.632C29.3431 117.304 28.9751 117.14 28.4951 117.14C28.0151 117.14 27.6431 117.304 27.3791 117.632C27.1231 117.952 26.9951 118.42 26.9951 119.036C26.9951 119.66 27.1231 120.132 27.3791 120.452C27.6351 120.772 28.0031 120.932 28.4831 120.932ZM36.1112 122V113.54H37.6592V122H36.1112ZM46.3262 115.988C46.9902 115.988 47.4862 116.188 47.8142 116.588C48.1422 116.98 48.3062 117.584 48.3062 118.4V122H46.8062V118.46C46.8062 118.012 46.7302 117.688 46.5782 117.488C46.4262 117.28 46.1822 117.176 45.8462 117.176C45.4462 117.176 45.1342 117.312 44.9102 117.584C44.6862 117.856 44.5742 118.236 44.5742 118.724V122H43.0742V118.46C43.0742 118.012 42.9982 117.688 42.8462 117.488C42.7022 117.28 42.4582 117.176 42.1142 117.176C41.7222 117.176 41.4142 117.312 41.1902 117.584C40.9662 117.856 40.8542 118.236 40.8542 118.724V122H39.3542V116.132H40.8182V116.96C40.9942 116.64 41.2382 116.4 41.5502 116.24C41.8622 116.072 42.2182 115.988 42.6182 115.988C43.5062 115.988 44.0942 116.356 44.3822 117.092C44.5662 116.748 44.8302 116.48 45.1742 116.288C45.5182 116.088 45.9022 115.988 46.3262 115.988ZM52.3508 115.988C53.1748 115.988 53.7868 116.188 54.1868 116.588C54.5868 116.988 54.7868 117.604 54.7868 118.436V122H53.3588V121.1C53.2228 121.412 53.0068 121.656 52.7108 121.832C52.4228 122.008 52.0868 122.096 51.7028 122.096C51.3108 122.096 50.9548 122.016 50.6348 121.856C50.3148 121.696 50.0628 121.476 49.8788 121.196C49.6948 120.916 49.6028 120.604 49.6028 120.26C49.6028 119.828 49.7108 119.488 49.9268 119.24C50.1508 118.992 50.5108 118.812 51.0068 118.7C51.5028 118.588 52.1868 118.532 53.0588 118.532H53.3588V118.256C53.3588 117.856 53.2708 117.568 53.0948 117.392C52.9268 117.216 52.6428 117.128 52.2428 117.128C51.9308 117.128 51.6028 117.184 51.2588 117.296C50.9228 117.4 50.5908 117.548 50.2628 117.74L49.8428 116.708C50.1708 116.5 50.5668 116.328 51.0308 116.192C51.4948 116.056 51.9348 115.988 52.3508 115.988ZM52.0028 121.016C52.4028 121.016 52.7268 120.884 52.9748 120.62C53.2308 120.348 53.3588 120 53.3588 119.576V119.324H53.1428C52.6068 119.324 52.1908 119.348 51.8948 119.396C51.5988 119.444 51.3868 119.528 51.2588 119.648C51.1308 119.768 51.0668 119.932 51.0668 120.14C51.0668 120.396 51.1548 120.608 51.3308 120.776C51.5068 120.936 51.7308 121.016 52.0028 121.016ZM62.0233 116.132V121.46C62.0233 122.38 61.7673 123.076 61.2553 123.548C60.7513 124.02 60.0033 124.256 59.0113 124.256C58.4993 124.256 58.0073 124.188 57.5353 124.052C57.0633 123.924 56.6513 123.74 56.2993 123.5L56.7193 122.444C57.4473 122.884 58.1993 123.104 58.9753 123.104C60.0153 123.104 60.5353 122.592 60.5353 121.568V120.8C60.3593 121.128 60.1033 121.384 59.7673 121.568C59.4313 121.744 59.0473 121.832 58.6152 121.832C58.1033 121.832 57.6473 121.712 57.2473 121.472C56.8553 121.224 56.5473 120.88 56.3232 120.44C56.0993 120 55.9873 119.492 55.9873 118.916C55.9873 118.34 56.0953 117.832 56.3113 117.392C56.5353 116.944 56.8473 116.6 57.2473 116.36C57.6473 116.112 58.1033 115.988 58.6152 115.988C59.0473 115.988 59.4313 116.08 59.7673 116.264C60.1033 116.44 60.3593 116.692 60.5353 117.02V116.132H62.0233ZM59.0113 120.668C59.4913 120.668 59.8633 120.512 60.1273 120.2C60.3993 119.888 60.5353 119.46 60.5353 118.916C60.5353 118.364 60.3993 117.932 60.1273 117.62C59.8633 117.308 59.4913 117.152 59.0113 117.152C58.5393 117.152 58.1673 117.308 57.8953 117.62C57.6233 117.932 57.4873 118.364 57.4873 118.916C57.4873 119.452 57.6233 119.88 57.8953 120.2C58.1673 120.512 58.5393 120.668 59.0113 120.668ZM68.7249 119.336H64.7289C64.7769 119.88 64.9409 120.284 65.2209 120.548C65.5009 120.812 65.9009 120.944 66.4209 120.944C67.0689 120.944 67.6609 120.736 68.1969 120.32L68.6289 121.352C68.3569 121.576 68.0129 121.756 67.5969 121.892C67.1889 122.028 66.7769 122.096 66.3609 122.096C65.4009 122.096 64.6409 121.824 64.0809 121.28C63.5289 120.736 63.2529 119.992 63.2529 119.048C63.2529 118.448 63.3729 117.916 63.6129 117.452C63.8529 116.988 64.1889 116.628 64.6209 116.372C65.0609 116.116 65.5569 115.988 66.1089 115.988C66.9169 115.988 67.5529 116.248 68.0169 116.768C68.4889 117.288 68.7249 118.004 68.7249 118.916V119.336ZM66.1449 117.044C65.7449 117.044 65.4209 117.172 65.1729 117.428C64.9329 117.684 64.7849 118.052 64.7289 118.532H67.4409C67.4249 118.044 67.3049 117.676 67.0809 117.428C66.8569 117.172 66.5449 117.044 66.1449 117.044ZM79.8097 122L78.9577 120.02H74.8417L73.9897 122H72.4297L76.2577 113.54H77.5177L81.3457 122H79.8097ZM75.3457 118.82H78.4417L76.8937 115.22L75.3457 118.82ZM85.9038 116.144H87.3798L84.8118 122H83.5038L80.9598 116.144H82.5438L84.1998 120.284L85.9038 116.144ZM90.5422 115.988C91.3662 115.988 91.9782 116.188 92.3782 116.588C92.7782 116.988 92.9782 117.604 92.9782 118.436V122H91.5502V121.1C91.4142 121.412 91.1982 121.656 90.9022 121.832C90.6142 122.008 90.2782 122.096 89.8942 122.096C89.5022 122.096 89.1462 122.016 88.8262 121.856C88.5062 121.696 88.2542 121.476 88.0702 121.196C87.8862 120.916 87.7942 120.604 87.7942 120.26C87.7942 119.828 87.9022 119.488 88.1182 119.24C88.3422 118.992 88.7022 118.812 89.1982 118.7C89.6942 118.588 90.3782 118.532 91.2502 118.532H91.5502V118.256C91.5502 117.856 91.4622 117.568 91.2862 117.392C91.1182 117.216 90.8342 117.128 90.4342 117.128C90.1222 117.128 89.7942 117.184 89.4502 117.296C89.1142 117.4 88.7822 117.548 88.4542 117.74L88.0342 116.708C88.3622 116.5 88.7582 116.328 89.2222 116.192C89.6862 116.056 90.1262 115.988 90.5422 115.988ZM90.1942 121.016C90.5942 121.016 90.9182 120.884 91.1662 120.62C91.4222 120.348 91.5502 120 91.5502 119.576V119.324H91.3342C90.7982 119.324 90.3822 119.348 90.0862 119.396C89.7902 119.444 89.5782 119.528 89.4502 119.648C89.3222 119.768 89.2582 119.932 89.2582 120.14C89.2582 120.396 89.3462 120.608 89.5222 120.776C89.6982 120.936 89.9222 121.016 90.1942 121.016ZM94.5027 122V116.132H96.0027V122H94.5027ZM94.4187 113.408H96.0747V114.884H94.4187V113.408ZM97.5495 122V113.54H99.0495V122H97.5495ZM103.116 115.988C103.94 115.988 104.552 116.188 104.952 116.588C105.352 116.988 105.552 117.604 105.552 118.436V122H104.124V121.1C103.988 121.412 103.772 121.656 103.476 121.832C103.188 122.008 102.852 122.096 102.468 122.096C102.076 122.096 101.72 122.016 101.4 121.856C101.08 121.696 100.828 121.476 100.644 121.196C100.46 120.916 100.368 120.604 100.368 120.26C100.368 119.828 100.476 119.488 100.692 119.24C100.916 118.992 101.276 118.812 101.772 118.7C102.268 118.588 102.952 118.532 103.824 118.532H104.124V118.256C104.124 117.856 104.036 117.568 103.86 117.392C103.692 117.216 103.408 117.128 103.008 117.128C102.696 117.128 102.368 117.184 102.024 117.296C101.688 117.4 101.356 117.548 101.028 117.74L100.608 116.708C100.936 116.5 101.332 116.328 101.796 116.192C102.26 116.056 102.7 115.988 103.116 115.988ZM102.768 121.016C103.168 121.016 103.492 120.884 103.74 120.62C103.996 120.348 104.124 120 104.124 119.576V119.324H103.908C103.372 119.324 102.956 119.348 102.66 119.396C102.364 119.444 102.152 119.528 102.024 119.648C101.896 119.768 101.832 119.932 101.832 120.14C101.832 120.396 101.92 120.608 102.096 120.776C102.272 120.936 102.496 121.016 102.768 121.016ZM110.449 115.988C110.961 115.988 111.413 116.112 111.805 116.36C112.197 116.608 112.501 116.96 112.717 117.416C112.941 117.872 113.053 118.404 113.053 119.012C113.053 119.62 112.941 120.16 112.717 120.632C112.501 121.096 112.193 121.456 111.793 121.712C111.401 121.968 110.953 122.096 110.449 122.096C110.025 122.096 109.645 122.004 109.309 121.82C108.981 121.636 108.729 121.38 108.553 121.052V122H107.077V113.54H108.577V116.984C108.753 116.664 109.005 116.42 109.333 116.252C109.661 116.076 110.033 115.988 110.449 115.988ZM110.053 120.932C110.525 120.932 110.893 120.764 111.157 120.428C111.421 120.092 111.553 119.62 111.553 119.012C111.553 118.412 111.421 117.952 111.157 117.632C110.901 117.312 110.533 117.152 110.053 117.152C109.573 117.152 109.201 117.316 108.937 117.644C108.681 117.964 108.553 118.428 108.553 119.036C108.553 119.644 108.681 120.112 108.937 120.44C109.201 120.768 109.573 120.932 110.053 120.932ZM114.284 122V113.54H115.784V122H114.284ZM122.479 119.336H118.483C118.531 119.88 118.695 120.284 118.975 120.548C119.255 120.812 119.655 120.944 120.175 120.944C120.823 120.944 121.415 120.736 121.951 120.32L122.383 121.352C122.111 121.576 121.767 121.756 121.351 121.892C120.943 122.028 120.531 122.096 120.115 122.096C119.155 122.096 118.395 121.824 117.835 121.28C117.283 120.736 117.007 119.992 117.007 119.048C117.007 118.448 117.127 117.916 117.367 117.452C117.607 116.988 117.943 116.628 118.375 116.372C118.815 116.116 119.311 115.988 119.863 115.988C120.671 115.988 121.307 116.248 121.771 116.768C122.243 117.288 122.479 118.004 122.479 118.916V119.336ZM119.899 117.044C119.499 117.044 119.175 117.172 118.927 117.428C118.687 117.684 118.539 118.052 118.483 118.532H121.195C121.179 118.044 121.059 117.676 120.835 117.428C120.611 117.172 120.299 117.044 119.899 117.044Z" fill="#1D2E5B"/>
	<g opacity="0.4" clip-path="url(#clip0)">
		<path d="M95.2491 41.7783H33.0356V100.824H95.2491V41.7783Z" fill="#F2F6FF"/>
		<path d="M95.249 99.1521H30.6597V101H95.249V99.1521Z" fill="#6C768F"/>
		<path d="M91.9049 43.3624H29.6914L51.2505 27.259H91.9049V43.3624Z" fill="#1D2E5B"/>
		<path d="M113.904 43.5383V41.1624L87.5054 17.4913L61.1064 41.1624V43.5383H113.904Z" fill="#6C768F"/>
		<path d="M112.584 100.824H62.4263V41.7783L87.5053 19.3392L112.584 41.7783V100.824Z" fill="white"/>
		<path d="M85.0412 48.4661H68.2339V65.0094H85.0412V48.4661Z" fill="white"/>
		<path d="M84.4254 49.0819H68.938V64.3053H84.4254V49.0819Z" fill="#8F99B4"/>
		<path d="M69.642 49.8739H84.4254V49.0819H68.938V64.3053H69.642V49.8739Z" fill="#A9C0FF"/>
		<path d="M76.9457 48.7301H76.2417V64.6575H76.9457V48.7301Z" fill="white"/>
		<path d="M85.0413 52.6019H68.5859V53.3059H85.0413V52.6019Z" fill="white"/>
		<path d="M53.6262 48.4661H36.8188V65.0094H53.6262V48.4661Z" fill="white"/>
		<path d="M53.0108 49.0819H37.5234V64.3053H53.0108V49.0819Z" fill="#8F99B4"/>
		<path d="M38.1394 49.8739H52.9228V49.0819H37.5234V64.3053H38.1394V49.8739Z" fill="#A9C0FF"/>
		<path d="M45.5306 48.7301H44.8267V64.6575H45.5306V48.7301Z" fill="white"/>
		<path d="M53.5388 52.6019H37.0835V53.3059H53.5388V52.6019Z" fill="white"/>
		<path d="M92.3455 27.5231H81.9619V38.6986H92.3455V27.5231Z" fill="white"/>
		<path d="M91.5538 28.1389H82.5781V37.9945H91.5538V28.1389Z" fill="#8F99B4"/>
		<path d="M83.2821 28.9309H91.6418V28.1389H82.5781V37.9945H83.2821V28.9309Z" fill="#A9C0FF"/>
		<path d="M42.7145 75.041H37.6987V94.1362H42.7145V75.041Z" fill="white"/>
		<path d="M42.1868 75.569H38.3149V93.5202H42.1868V75.569Z" fill="#8F99B4"/>
		<path d="M38.8429 76.2729H42.0988V75.569H38.3149V93.5202H38.8429V76.2729Z" fill="#A9C0FF"/>
		<path d="M60.5783 75.041H55.5625V94.1362H60.5783V75.041Z" fill="white"/>
		<path d="M60.0506 75.569H56.1787V93.5202H60.0506V75.569Z" fill="#8F99B4"/>
		<path d="M56.7067 76.2729H59.9626V75.569H56.1787V93.5202H56.7067V76.2729Z" fill="#A9C0FF"/>
		<path d="M107.04 48.4661H90.2329V65.0094H107.04V48.4661Z" fill="white"/>
		<path d="M106.424 49.0819H90.937V64.3053H106.424V49.0819Z" fill="#8F99B4"/>
		<path d="M91.553 49.8739H106.336V49.0819H90.937V64.3053H91.553V49.8739Z" fill="#A9C0FF"/>
		<path d="M98.9447 48.7301H98.2407V64.6575H98.9447V48.7301Z" fill="white"/>
		<path d="M106.952 52.6019H90.4971V53.3059H106.952V52.6019Z" fill="white"/>
		<path d="M85.0412 74.689H68.2339V91.2323H85.0412V74.689Z" fill="white"/>
		<path d="M84.4254 75.3049H68.938V90.5283H84.4254V75.3049Z" fill="#8F99B4"/>
		<path d="M69.642 76.0969H84.4254V75.3049H68.938V90.5283H69.642V76.0969Z" fill="#A9C0FF"/>
		<path d="M76.9457 74.953H76.2417V90.8804H76.9457V74.953Z" fill="white"/>
		<path d="M85.0413 78.8248H68.5859V79.5288H85.0413V78.8248Z" fill="white"/>
		<path d="M107.04 74.689H90.2329V91.2323H107.04V74.689Z" fill="white"/>
		<path d="M106.424 75.3049H90.937V90.5283H106.424V75.3049Z" fill="#8F99B4"/>
		<path d="M91.553 76.0969H106.336V75.3049H90.937V90.5283H91.553V76.0969Z" fill="#A9C0FF"/>
		<path d="M98.9447 74.953H98.2407V90.8804H98.9447V74.953Z" fill="white"/>
		<path d="M106.952 78.8248H90.4971V79.5288H106.952V78.8248Z" fill="white"/>
		<path d="M62.5141 43.2744H29.6914V44.4184H62.5141V43.2744Z" fill="#6C768F"/>
		<path d="M113.464 98.624H62.2505V101.088H113.464V98.624Z" fill="#1D2E5B"/>
		<path d="M62.4265 65.2734H32.1557L26.084 71.7852H62.4265V65.2734Z" fill="#1D2E5B"/>
		<path d="M62.4261 71.785H25.9956V72.665H62.4261V71.785Z" fill="#6C768F"/>
		<path d="M62.4265 72.665H33.0356V73.545H62.4265V72.665Z" fill="#E5EAF7"/>
		<path d="M62.4265 44.5061H33.0356V45.3861H62.4265V44.5061Z" fill="#E5EAF7"/>
		<path d="M53.539 75.041H44.2114V94.2242H53.539V75.041Z" fill="white"/>
		<path d="M47.0273 75.3929H44.6514V79.1768H47.0273V75.3929Z" fill="#8F99B4"/>
		<path d="M50.107 75.3929H47.6431V79.1768H50.107V75.3929Z" fill="#8F99B4"/>
		<path d="M53.0992 75.3929H50.6353V79.1768H53.0992V75.3929Z" fill="#8F99B4"/>
		<path d="M47.0273 79.6168H44.6514V81.8167H47.0273V79.6168Z" fill="#8F99B4"/>
		<path d="M50.107 79.6168H47.6431V81.8167H50.107V79.6168Z" fill="#8F99B4"/>
		<path d="M53.0992 79.6168H50.6353V81.8167H53.0992V79.6168Z" fill="#8F99B4"/>
		<path d="M45.0034 76.0089H47.0273V75.3929H44.6514V79.1768H45.0034V76.0089Z" fill="#A9C0FF"/>
		<path d="M47.9951 76.0089H50.019V75.3929H47.6431V79.1768H47.9951V76.0089Z" fill="#A9C0FF"/>
		<path d="M50.9872 76.0089H53.0992V75.3929H50.6353V79.1768H50.9872V76.0089Z" fill="#A9C0FF"/>
		<path d="M45.0034 80.2328H47.0273V79.6168H44.6514V81.8167H45.0034V80.2328Z" fill="#A9C0FF"/>
		<path d="M47.9951 80.2328H50.019V79.6168H47.6431V81.8167H47.9951V80.2328Z" fill="#A9C0FF"/>
		<path d="M50.9872 80.2328H53.0992V79.6168H50.6353V81.8167H50.9872V80.2328Z" fill="#A9C0FF"/>
		<path d="M47.0273 82.2567H44.6514V84.4566H47.0273V82.2567Z" fill="#8F99B4"/>
		<path d="M50.107 82.2567H47.6431V84.4566H50.107V82.2567Z" fill="#8F99B4"/>
		<path d="M53.0992 82.2567H50.6353V84.4566H53.0992V82.2567Z" fill="#8F99B4"/>
		<path d="M45.0034 82.8727H47.0273V82.2567H44.6514V84.4566H45.0034V82.8727Z" fill="#A9C0FF"/>
		<path d="M47.9951 82.8727H50.019V82.2567H47.6431V84.4566H47.9951V82.8727Z" fill="#A9C0FF"/>
		<path d="M50.9872 82.8727H53.0992V82.2567H50.6353V84.4566H50.9872V82.8727Z" fill="#A9C0FF"/>
		<path d="M47.0273 84.8966H44.6514V87.0965H47.0273V84.8966Z" fill="#8F99B4"/>
		<path d="M50.107 84.8966H47.6431V87.0965H50.107V84.8966Z" fill="#8F99B4"/>
		<path d="M53.0992 84.8966H50.6353V87.0965H53.0992V84.8966Z" fill="#8F99B4"/>
		<path d="M45.0034 85.5126H47.0273V84.8966H44.6514V87.0965H45.0034V85.5126Z" fill="#A9C0FF"/>
		<path d="M47.9951 85.5126H50.019V84.8966H47.6431V87.0965H47.9951V85.5126Z" fill="#A9C0FF"/>
		<path d="M50.9872 85.5126H53.0992V84.8966H50.6353V87.0965H50.9872V85.5126Z" fill="#A9C0FF"/>
		<path d="M47.0273 87.6245H44.6514V93.7843H47.0273V87.6245Z" fill="#8F99B4"/>
		<path d="M50.107 87.6245H47.6431V93.7843H50.107V87.6245Z" fill="#8F99B4"/>
		<path d="M53.0992 87.6245H50.6353V93.7843H53.0992V87.6245Z" fill="#8F99B4"/>
		<path d="M45.0034 88.1525H47.0273V87.6245H44.6514V93.7843H45.0034V88.1525Z" fill="#A9C0FF"/>
		<path d="M47.9951 88.1525H50.019V87.6245H47.6431V93.7843H47.9951V88.1525Z" fill="#A9C0FF"/>
		<path d="M50.9872 88.1525H53.0992V87.6245H50.6353V93.7843H50.9872V88.1525Z" fill="#A9C0FF"/>
		<path d="M62.2504 94.3124H37.5234V95.9843H62.2504V94.3124Z" fill="#1D2E5B"/>
		<path d="M62.2503 95.984H34.7954V97.6559H62.2503V95.984Z" fill="#1D2E5B"/>
		<path d="M62.2504 97.5681H32.2437V99.24H62.2504V97.5681Z" fill="#1D2E5B"/>
		<path d="M87.5053 19.3392L62.4263 41.7783V43.8902L87.5053 21.3632L112.584 43.8902V41.7783L87.5053 19.3392Z" fill="#E5EAF7"/>
	</g>
	<defs>
		<clipPath id="clip0">
			<rect width="87.9084" height="83.5086" fill="white" transform="translate(25.9956 17.4913)"/>
		</clipPath>
	</defs>
</svg>
