<svg width="140" height="140" viewBox="0 0 140 140" fill="none" xmlns="http://www.w3.org/2000/svg">
	<rect width="140" height="140" rx="8" fill="#F2F6FF"/>
	<path opacity="0.2" d="M35.0741 99.54H38.7701C39.6741 99.54 40.3781 99.768 40.8821 100.224C41.3861 100.672 41.6381 101.304 41.6381 102.12C41.6381 102.936 41.3861 103.572 40.8821 104.028C40.3781 104.484 39.6741 104.712 38.7701 104.712H36.6221V108H35.0741V99.54ZM38.5781 103.524C39.6421 103.524 40.1741 103.06 40.1741 102.132C40.1741 101.66 40.0421 101.312 39.7781 101.088C39.5141 100.856 39.1141 100.74 38.5781 100.74H36.6221V103.524H38.5781ZM45.2316 101.988C46.0556 101.988 46.6676 102.188 47.0676 102.588C47.4676 102.988 47.6676 103.604 47.6676 104.436V108H46.2396V107.1C46.1036 107.412 45.8876 107.656 45.5916 107.832C45.3036 108.008 44.9676 108.096 44.5836 108.096C44.1916 108.096 43.8356 108.016 43.5156 107.856C43.1956 107.696 42.9436 107.476 42.7596 107.196C42.5756 106.916 42.4836 106.604 42.4836 106.26C42.4836 105.828 42.5916 105.488 42.8076 105.24C43.0316 104.992 43.3916 104.812 43.8876 104.7C44.3836 104.588 45.0676 104.532 45.9396 104.532H46.2396V104.256C46.2396 103.856 46.1516 103.568 45.9756 103.392C45.8076 103.216 45.5236 103.128 45.1236 103.128C44.8116 103.128 44.4836 103.184 44.1396 103.296C43.8036 103.4 43.4716 103.548 43.1436 103.74L42.7236 102.708C43.0516 102.5 43.4476 102.328 43.9116 102.192C44.3756 102.056 44.8156 101.988 45.2316 101.988ZM44.8836 107.016C45.2836 107.016 45.6076 106.884 45.8556 106.62C46.1116 106.348 46.2396 106 46.2396 105.576V105.324H46.0236C45.4876 105.324 45.0716 105.348 44.7756 105.396C44.4796 105.444 44.2676 105.528 44.1396 105.648C44.0116 105.768 43.9476 105.932 43.9476 106.14C43.9476 106.396 44.0356 106.608 44.2116 106.776C44.3876 106.936 44.6116 107.016 44.8836 107.016ZM51.3521 108.096C50.8321 108.096 50.3521 108.032 49.9121 107.904C49.4801 107.776 49.1121 107.592 48.8081 107.352L49.2281 106.308C49.8521 106.764 50.5681 106.992 51.3761 106.992C51.7201 106.992 51.9801 106.936 52.1561 106.824C52.3401 106.712 52.4321 106.552 52.4321 106.344C52.4321 106.168 52.3681 106.032 52.2401 105.936C52.1201 105.84 51.9001 105.752 51.5801 105.672L50.6201 105.456C50.0761 105.336 49.6721 105.14 49.4081 104.868C49.1441 104.596 49.0121 104.244 49.0121 103.812C49.0121 103.452 49.1121 103.136 49.3121 102.864C49.5201 102.584 49.8041 102.368 50.1641 102.216C50.5321 102.064 50.9561 101.988 51.4361 101.988C51.8521 101.988 52.2521 102.052 52.6361 102.18C53.0281 102.308 53.3721 102.488 53.6681 102.72L53.2481 103.74C52.6401 103.3 52.0321 103.08 51.4241 103.08C51.0961 103.08 50.8401 103.14 50.6561 103.26C50.4721 103.38 50.3801 103.548 50.3801 103.764C50.3801 103.924 50.4361 104.056 50.5481 104.16C50.6681 104.264 50.8561 104.344 51.1121 104.4L52.1081 104.628C52.6921 104.756 53.1201 104.96 53.3921 105.24C53.6641 105.512 53.8001 105.872 53.8001 106.32C53.8001 106.864 53.5801 107.296 53.1401 107.616C52.7001 107.936 52.1041 108.096 51.3521 108.096ZM63.9381 99.54V108H62.4501V107.052C62.2741 107.38 62.0181 107.636 61.6821 107.82C61.3541 108.004 60.9781 108.096 60.5541 108.096C60.0501 108.096 59.5981 107.968 59.1981 107.712C58.8061 107.456 58.4981 107.096 58.2741 106.632C58.0581 106.16 57.9501 105.62 57.9501 105.012C57.9501 104.404 58.0581 103.872 58.2741 103.416C58.4981 102.96 58.8061 102.608 59.1981 102.36C59.5901 102.112 60.0421 101.988 60.5541 101.988C60.9781 101.988 61.3541 102.076 61.6821 102.252C62.0101 102.428 62.2621 102.676 62.4381 102.996V99.54H63.9381ZM60.9501 106.932C61.4301 106.932 61.7981 106.768 62.0541 106.44C62.3181 106.112 62.4501 105.644 62.4501 105.036C62.4501 104.428 62.3181 103.964 62.0541 103.644C61.7981 103.316 61.4341 103.152 60.9621 103.152C60.4821 103.152 60.1101 103.312 59.8461 103.632C59.5821 103.952 59.4501 104.412 59.4501 105.012C59.4501 105.62 59.5821 106.092 59.8461 106.428C60.1101 106.764 60.4781 106.932 60.9501 106.932ZM65.6612 103.032L65.2772 99.54H67.0172L66.6572 103.032H65.6612ZM68.5194 108V99.54H70.0674V108H68.5194ZM78.7344 101.988C79.3984 101.988 79.8944 102.188 80.2224 102.588C80.5504 102.98 80.7144 103.584 80.7144 104.4V108H79.2144V104.46C79.2144 104.012 79.1384 103.688 78.9864 103.488C78.8344 103.28 78.5904 103.176 78.2544 103.176C77.8544 103.176 77.5424 103.312 77.3184 103.584C77.0944 103.856 76.9824 104.236 76.9824 104.724V108H75.4824V104.46C75.4824 104.012 75.4064 103.688 75.2544 103.488C75.1104 103.28 74.8664 103.176 74.5224 103.176C74.1304 103.176 73.8224 103.312 73.5984 103.584C73.3744 103.856 73.2624 104.236 73.2624 104.724V108H71.7624V102.132H73.2264V102.96C73.4024 102.64 73.6464 102.4 73.9584 102.24C74.2704 102.072 74.6264 101.988 75.0264 101.988C75.9144 101.988 76.5024 102.356 76.7904 103.092C76.9744 102.748 77.2384 102.48 77.5824 102.288C77.9264 102.088 78.3104 101.988 78.7344 101.988ZM84.759 101.988C85.583 101.988 86.195 102.188 86.595 102.588C86.995 102.988 87.195 103.604 87.195 104.436V108H85.767V107.1C85.631 107.412 85.415 107.656 85.119 107.832C84.831 108.008 84.495 108.096 84.111 108.096C83.719 108.096 83.363 108.016 83.043 107.856C82.723 107.696 82.471 107.476 82.287 107.196C82.103 106.916 82.011 106.604 82.011 106.26C82.011 105.828 82.119 105.488 82.335 105.24C82.559 104.992 82.919 104.812 83.415 104.7C83.911 104.588 84.595 104.532 85.467 104.532H85.767V104.256C85.767 103.856 85.679 103.568 85.503 103.392C85.335 103.216 85.051 103.128 84.651 103.128C84.339 103.128 84.011 103.184 83.667 103.296C83.331 103.4 82.999 103.548 82.671 103.74L82.251 102.708C82.579 102.5 82.975 102.328 83.439 102.192C83.903 102.056 84.343 101.988 84.759 101.988ZM84.411 107.016C84.811 107.016 85.135 106.884 85.383 106.62C85.639 106.348 85.767 106 85.767 105.576V105.324H85.551C85.015 105.324 84.599 105.348 84.303 105.396C84.007 105.444 83.795 105.528 83.667 105.648C83.539 105.768 83.475 105.932 83.475 106.14C83.475 106.396 83.563 106.608 83.739 106.776C83.915 106.936 84.139 107.016 84.411 107.016ZM94.4315 102.132V107.46C94.4315 108.38 94.1755 109.076 93.6635 109.548C93.1595 110.02 92.4115 110.256 91.4195 110.256C90.9075 110.256 90.4155 110.188 89.9435 110.052C89.4715 109.924 89.0595 109.74 88.7075 109.5L89.1275 108.444C89.8555 108.884 90.6075 109.104 91.3835 109.104C92.4235 109.104 92.9435 108.592 92.9435 107.568V106.8C92.7675 107.128 92.5115 107.384 92.1755 107.568C91.8395 107.744 91.4555 107.832 91.0235 107.832C90.5115 107.832 90.0555 107.712 89.6555 107.472C89.2635 107.224 88.9555 106.88 88.7315 106.44C88.5075 106 88.3955 105.492 88.3955 104.916C88.3955 104.34 88.5035 103.832 88.7195 103.392C88.9435 102.944 89.2555 102.6 89.6555 102.36C90.0555 102.112 90.5115 101.988 91.0235 101.988C91.4555 101.988 91.8395 102.08 92.1755 102.264C92.5115 102.44 92.7675 102.692 92.9435 103.02V102.132H94.4315ZM91.4195 106.668C91.8995 106.668 92.2715 106.512 92.5355 106.2C92.8075 105.888 92.9435 105.46 92.9435 104.916C92.9435 104.364 92.8075 103.932 92.5355 103.62C92.2715 103.308 91.8995 103.152 91.4195 103.152C90.9475 103.152 90.5755 103.308 90.3035 103.62C90.0315 103.932 89.8955 104.364 89.8955 104.916C89.8955 105.452 90.0315 105.88 90.3035 106.2C90.5755 106.512 90.9475 106.668 91.4195 106.668ZM101.133 105.336H97.1371C97.1851 105.88 97.3491 106.284 97.6291 106.548C97.9091 106.812 98.3091 106.944 98.8291 106.944C99.4771 106.944 100.069 106.736 100.605 106.32L101.037 107.352C100.765 107.576 100.421 107.756 100.005 107.892C99.5971 108.028 99.1851 108.096 98.7691 108.096C97.8091 108.096 97.0491 107.824 96.4891 107.28C95.9371 106.736 95.6611 105.992 95.6611 105.048C95.6611 104.448 95.7811 103.916 96.0211 103.452C96.2611 102.988 96.5971 102.628 97.0291 102.372C97.4691 102.116 97.9651 101.988 98.5171 101.988C99.3251 101.988 99.9611 102.248 100.425 102.768C100.897 103.288 101.133 104.004 101.133 104.916V105.336ZM98.5531 103.044C98.1531 103.044 97.8291 103.172 97.5811 103.428C97.3411 103.684 97.1931 104.052 97.1371 104.532H99.8491C99.8331 104.044 99.7131 103.676 99.4891 103.428C99.2651 103.172 98.9531 103.044 98.5531 103.044ZM41.0507 115.54H44.1707C45.5547 115.54 46.6267 115.912 47.3867 116.656C48.1547 117.392 48.5387 118.428 48.5387 119.764C48.5387 121.1 48.1547 122.14 47.3867 122.884C46.6267 123.628 45.5547 124 44.1707 124H41.0507V115.54ZM44.0747 122.74C46.0187 122.74 46.9907 121.748 46.9907 119.764C46.9907 117.788 46.0187 116.8 44.0747 116.8H42.5987V122.74H44.0747ZM49.9655 124V118.132H51.4655V124H49.9655ZM49.8815 115.408H51.5375V116.884H49.8815V115.408ZM55.1724 124.096C54.6524 124.096 54.1724 124.032 53.7324 123.904C53.3004 123.776 52.9324 123.592 52.6284 123.352L53.0484 122.308C53.6724 122.764 54.3884 122.992 55.1964 122.992C55.5404 122.992 55.8004 122.936 55.9764 122.824C56.1604 122.712 56.2524 122.552 56.2524 122.344C56.2524 122.168 56.1884 122.032 56.0604 121.936C55.9404 121.84 55.7204 121.752 55.4004 121.672L54.4404 121.456C53.8964 121.336 53.4924 121.14 53.2284 120.868C52.9644 120.596 52.8324 120.244 52.8324 119.812C52.8324 119.452 52.9324 119.136 53.1324 118.864C53.3404 118.584 53.6244 118.368 53.9844 118.216C54.3524 118.064 54.7764 117.988 55.2564 117.988C55.6724 117.988 56.0724 118.052 56.4564 118.18C56.8484 118.308 57.1924 118.488 57.4884 118.72L57.0684 119.74C56.4604 119.3 55.8524 119.08 55.2444 119.08C54.9164 119.08 54.6604 119.14 54.4764 119.26C54.2924 119.38 54.2004 119.548 54.2004 119.764C54.2004 119.924 54.2564 120.056 54.3684 120.16C54.4884 120.264 54.6764 120.344 54.9324 120.4L55.9284 120.628C56.5124 120.756 56.9404 120.96 57.2124 121.24C57.4844 121.512 57.6204 121.872 57.6204 122.32C57.6204 122.864 57.4004 123.296 56.9604 123.616C56.5204 123.936 55.9244 124.096 55.1724 124.096ZM62.2086 117.988C62.7126 117.988 63.1606 118.116 63.5526 118.372C63.9526 118.628 64.2606 118.992 64.4766 119.464C64.7006 119.928 64.8126 120.464 64.8126 121.072C64.8126 121.68 64.7006 122.212 64.4766 122.668C64.2606 123.124 63.9566 123.476 63.5646 123.724C63.1726 123.972 62.7206 124.096 62.2086 124.096C61.7926 124.096 61.4206 124.008 61.0926 123.832C60.7646 123.656 60.5126 123.412 60.3366 123.1V126.16H58.8366V118.132H60.3126V119.02C60.4886 118.692 60.7406 118.44 61.0686 118.264C61.4046 118.08 61.7846 117.988 62.2086 117.988ZM61.8126 122.932C62.2846 122.932 62.6526 122.772 62.9166 122.452C63.1806 122.124 63.3126 121.664 63.3126 121.072C63.3126 120.464 63.1806 119.992 62.9166 119.656C62.6526 119.32 62.2846 119.152 61.8126 119.152C61.3326 119.152 60.9606 119.316 60.6966 119.644C60.4406 119.972 60.3126 120.44 60.3126 121.048C60.3126 121.648 60.4406 122.112 60.6966 122.44C60.9606 122.768 61.3326 122.932 61.8126 122.932ZM68.7197 124.096C68.1197 124.096 67.5917 123.972 67.1357 123.724C66.6877 123.476 66.3397 123.12 66.0917 122.656C65.8437 122.192 65.7197 121.652 65.7197 121.036C65.7197 120.42 65.8437 119.884 66.0917 119.428C66.3397 118.964 66.6877 118.608 67.1357 118.36C67.5917 118.112 68.1197 117.988 68.7197 117.988C69.3197 117.988 69.8437 118.112 70.2917 118.36C70.7477 118.608 71.0957 118.964 71.3357 119.428C71.5837 119.884 71.7077 120.42 71.7077 121.036C71.7077 121.652 71.5837 122.192 71.3357 122.656C71.0957 123.12 70.7477 123.476 70.2917 123.724C69.8437 123.972 69.3197 124.096 68.7197 124.096ZM68.7077 122.932C69.1957 122.932 69.5677 122.772 69.8237 122.452C70.0797 122.132 70.2077 121.66 70.2077 121.036C70.2077 120.42 70.0797 119.952 69.8237 119.632C69.5677 119.304 69.1997 119.14 68.7197 119.14C68.2397 119.14 67.8677 119.304 67.6037 119.632C67.3477 119.952 67.2197 120.42 67.2197 121.036C67.2197 121.66 67.3477 122.132 67.6037 122.452C67.8597 122.772 68.2277 122.932 68.7077 122.932ZM76.354 117.988C77.058 117.988 77.582 118.188 77.926 118.588C78.27 118.988 78.442 119.592 78.442 120.4V124H76.942V120.484C76.942 120.028 76.854 119.696 76.678 119.488C76.51 119.28 76.242 119.176 75.874 119.176C75.442 119.176 75.094 119.312 74.83 119.584C74.574 119.856 74.446 120.22 74.446 120.676V124H72.946V118.132H74.41V119.008C74.61 118.68 74.878 118.428 75.214 118.252C75.55 118.076 75.93 117.988 76.354 117.988ZM79.9655 124V118.132H81.4655V124H79.9655ZM79.8815 115.408H81.5375V116.884H79.8815V115.408ZM86.3844 117.988C86.8964 117.988 87.3484 118.112 87.7404 118.36C88.1324 118.608 88.4364 118.96 88.6524 119.416C88.8764 119.872 88.9884 120.404 88.9884 121.012C88.9884 121.62 88.8764 122.16 88.6524 122.632C88.4364 123.096 88.1284 123.456 87.7284 123.712C87.3364 123.968 86.8884 124.096 86.3844 124.096C85.9604 124.096 85.5804 124.004 85.2444 123.82C84.9164 123.636 84.6644 123.38 84.4884 123.052V124H83.0124V115.54H84.5124V118.984C84.6884 118.664 84.9404 118.42 85.2684 118.252C85.5964 118.076 85.9684 117.988 86.3844 117.988ZM85.9884 122.932C86.4604 122.932 86.8284 122.764 87.0924 122.428C87.3564 122.092 87.4884 121.62 87.4884 121.012C87.4884 120.412 87.3564 119.952 87.0924 119.632C86.8364 119.312 86.4684 119.152 85.9884 119.152C85.5084 119.152 85.1364 119.316 84.8724 119.644C84.6164 119.964 84.4884 120.428 84.4884 121.036C84.4884 121.644 84.6164 122.112 84.8724 122.44C85.1364 122.768 85.5084 122.932 85.9884 122.932ZM90.2195 124V115.54H91.7195V124H90.2195ZM98.4143 121.336H94.4183C94.4663 121.88 94.6303 122.284 94.9103 122.548C95.1903 122.812 95.5903 122.944 96.1103 122.944C96.7583 122.944 97.3503 122.736 97.8863 122.32L98.3183 123.352C98.0463 123.576 97.7023 123.756 97.2863 123.892C96.8783 124.028 96.4663 124.096 96.0503 124.096C95.0903 124.096 94.3303 123.824 93.7703 123.28C93.2183 122.736 92.9423 121.992 92.9423 121.048C92.9423 120.448 93.0623 119.916 93.3023 119.452C93.5423 118.988 93.8783 118.628 94.3103 118.372C94.7503 118.116 95.2463 117.988 95.7983 117.988C96.6063 117.988 97.2423 118.248 97.7063 118.768C98.1783 119.288 98.4143 120.004 98.4143 120.916V121.336ZM95.8343 119.044C95.4343 119.044 95.1103 119.172 94.8623 119.428C94.6223 119.684 94.4743 120.052 94.4183 120.532H97.1303C97.1143 120.044 96.9943 119.676 96.7703 119.428C96.5463 119.172 96.2343 119.044 95.8343 119.044Z" fill="#1D2E5B"/>
	<g opacity="0.4" clip-path="url(#clip0)">
		<path d="M93.4315 34.5419H35.688V89.3452H93.4315V34.5419Z" fill="#F2F6FF"/>
		<path d="M93.4316 87.7935H33.4829V89.5087H93.4316V87.7935Z" fill="#6C768F"/>
		<path d="M90.3275 36.0121H32.584L52.5941 21.0658H90.3275V36.0121Z" fill="#1D2E5B"/>
		<path d="M110.747 36.1755V33.9703L86.2444 12L61.7422 33.9703V36.1755H110.747Z" fill="#6C768F"/>
		<path d="M109.521 89.3451H62.9668V34.5419L86.2439 13.715L109.521 34.5419V89.3451Z" fill="white"/>
		<path d="M83.9572 40.7491H68.3574V56.1039H83.9572V40.7491Z" fill="white"/>
		<path d="M83.3859 41.3207H69.0112V55.4503H83.3859V41.3207Z" fill="#8F99B4"/>
		<path d="M69.6646 42.0558H83.3859V41.3207H69.0112V55.4503H69.6646V42.0558Z" fill="#A9C0FF"/>
		<path d="M76.4434 40.9943H75.79V55.7773H76.4434V40.9943Z" fill="white"/>
		<path d="M83.9576 44.5878H68.6846V45.2412H83.9576V44.5878Z" fill="white"/>
		<path d="M54.7989 40.7491H39.1992V56.1039H54.7989V40.7491Z" fill="white"/>
		<path d="M54.2277 41.3207H39.853V55.4503H54.2277V41.3207Z" fill="#8F99B4"/>
		<path d="M40.4247 42.0558H54.146V41.3207H39.853V55.4503H40.4247V42.0558Z" fill="#A9C0FF"/>
		<path d="M47.2852 40.9943H46.6318V55.7773H47.2852V40.9943Z" fill="white"/>
		<path d="M54.7179 44.5878H39.4448V45.2412H54.7179V44.5878Z" fill="white"/>
		<path d="M90.7367 21.3109H81.0991V31.6834H90.7367V21.3109Z" fill="white"/>
		<path d="M90.0021 21.8824H81.6714V31.0299H90.0021V21.8824Z" fill="#8F99B4"/>
		<path d="M82.3248 22.6175H90.0838V21.8824H81.6714V31.0299H82.3248V22.6175Z" fill="#A9C0FF"/>
		<path d="M44.6715 65.4147H40.0161V83.138H44.6715V65.4147Z" fill="white"/>
		<path d="M44.1815 65.9047H40.5879V82.5662H44.1815V65.9047Z" fill="#8F99B4"/>
		<path d="M41.0779 66.5581H44.0999V65.9047H40.5879V82.5662H41.0779V66.5581Z" fill="#A9C0FF"/>
		<path d="M61.2516 65.4147H56.5962V83.138H61.2516V65.4147Z" fill="white"/>
		<path d="M60.7616 65.9047H57.168V82.5662H60.7616V65.9047Z" fill="#8F99B4"/>
		<path d="M57.658 66.5581H60.6799V65.9047H57.168V82.5662H57.658V66.5581Z" fill="#A9C0FF"/>
		<path d="M104.376 40.7491H88.7759V56.1039H104.376V40.7491Z" fill="white"/>
		<path d="M103.804 41.3207H89.4297V55.4503H103.804V41.3207Z" fill="#8F99B4"/>
		<path d="M90.0014 42.0558H103.723V41.3207H89.4297V55.4503H90.0014V42.0558Z" fill="#A9C0FF"/>
		<path d="M96.8619 40.9943H96.2085V55.7773H96.8619V40.9943Z" fill="white"/>
		<path d="M104.295 44.5878H89.0215V45.2412H104.295V44.5878Z" fill="white"/>
		<path d="M83.9572 65.0881H68.3574V80.4428H83.9572V65.0881Z" fill="white"/>
		<path d="M83.3859 65.6597H69.0112V79.7893H83.3859V65.6597Z" fill="#8F99B4"/>
		<path d="M69.6646 66.3947H83.3859V65.6597H69.0112V79.7893H69.6646V66.3947Z" fill="#A9C0FF"/>
		<path d="M76.4434 65.3332H75.79V80.1162H76.4434V65.3332Z" fill="white"/>
		<path d="M83.9576 68.9268H68.6846V69.5802H83.9576V68.9268Z" fill="white"/>
		<path d="M104.376 65.0881H88.7759V80.4428H104.376V65.0881Z" fill="white"/>
		<path d="M103.804 65.6597H89.4297V79.7893H103.804V65.6597Z" fill="#8F99B4"/>
		<path d="M90.0014 66.3947H103.723V65.6597H89.4297V79.7893H90.0014V66.3947Z" fill="#A9C0FF"/>
		<path d="M96.8619 65.3332H96.2085V80.1162H96.8619V65.3332Z" fill="white"/>
		<path d="M104.295 68.9268H89.0215V69.5802H104.295V68.9268Z" fill="white"/>
		<path d="M63.0484 35.9305H32.584V36.9923H63.0484V35.9305Z" fill="#6C768F"/>
		<path d="M110.338 87.3034H62.8037V89.5903H110.338V87.3034Z" fill="#1D2E5B"/>
		<path d="M62.9672 56.3489H34.8713L29.2358 62.3928H62.9672V56.3489Z" fill="#1D2E5B"/>
		<path d="M62.9668 62.3928H29.1538V63.2095H62.9668V62.3928Z" fill="#6C768F"/>
		<path d="M62.9671 63.2094H35.688V64.0262H62.9671V63.2094Z" fill="#E5EAF7"/>
		<path d="M62.9671 37.0738H35.688V37.8905H62.9671V37.0738Z" fill="#E5EAF7"/>
		<path d="M54.7185 65.4147H46.061V83.2197H54.7185V65.4147Z" fill="white"/>
		<path d="M48.6749 65.7415H46.4697V69.2534H48.6749V65.7415Z" fill="#8F99B4"/>
		<path d="M51.533 65.7415H49.2461V69.2534H51.533V65.7415Z" fill="#8F99B4"/>
		<path d="M54.3103 65.7415H52.0234V69.2534H54.3103V65.7415Z" fill="#8F99B4"/>
		<path d="M48.6749 69.6618H46.4697V71.7037H48.6749V69.6618Z" fill="#8F99B4"/>
		<path d="M51.533 69.6618H49.2461V71.7037H51.533V69.6618Z" fill="#8F99B4"/>
		<path d="M54.3103 69.6618H52.0234V71.7037H54.3103V69.6618Z" fill="#8F99B4"/>
		<path d="M46.7964 66.3132H48.6749V65.7415H46.4697V69.2534H46.7964V66.3132Z" fill="#A9C0FF"/>
		<path d="M49.5728 66.3132H51.4513V65.7415H49.2461V69.2534H49.5728V66.3132Z" fill="#A9C0FF"/>
		<path d="M52.3501 66.3132H54.3103V65.7415H52.0234V69.2534H52.3501V66.3132Z" fill="#A9C0FF"/>
		<path d="M46.7964 70.2335H48.6749V69.6618H46.4697V71.7037H46.7964V70.2335Z" fill="#A9C0FF"/>
		<path d="M49.5728 70.2335H51.4513V69.6618H49.2461V71.7037H49.5728V70.2335Z" fill="#A9C0FF"/>
		<path d="M52.3501 70.2335H54.3103V69.6618H52.0234V71.7037H52.3501V70.2335Z" fill="#A9C0FF"/>
		<path d="M48.6749 72.112H46.4697V74.1538H48.6749V72.112Z" fill="#8F99B4"/>
		<path d="M51.533 72.112H49.2461V74.1538H51.533V72.112Z" fill="#8F99B4"/>
		<path d="M54.3103 72.112H52.0234V74.1538H54.3103V72.112Z" fill="#8F99B4"/>
		<path d="M46.7964 72.6837H48.6749V72.112H46.4697V74.1538H46.7964V72.6837Z" fill="#A9C0FF"/>
		<path d="M49.5728 72.6837H51.4513V72.112H49.2461V74.1538H49.5728V72.6837Z" fill="#A9C0FF"/>
		<path d="M52.3501 72.6837H54.3103V72.112H52.0234V74.1538H52.3501V72.6837Z" fill="#A9C0FF"/>
		<path d="M48.6749 74.5621H46.4697V76.604H48.6749V74.5621Z" fill="#8F99B4"/>
		<path d="M51.533 74.5621H49.2461V76.604H51.533V74.5621Z" fill="#8F99B4"/>
		<path d="M54.3103 74.5621H52.0234V76.604H54.3103V74.5621Z" fill="#8F99B4"/>
		<path d="M46.7964 75.1339H48.6749V74.5621H46.4697V76.604H46.7964V75.1339Z" fill="#A9C0FF"/>
		<path d="M49.5728 75.1339H51.4513V74.5621H49.2461V76.604H49.5728V75.1339Z" fill="#A9C0FF"/>
		<path d="M52.3501 75.1339H54.3103V74.5621H52.0234V76.604H52.3501V75.1339Z" fill="#A9C0FF"/>
		<path d="M48.6749 77.0942H46.4697V82.8114H48.6749V77.0942Z" fill="#8F99B4"/>
		<path d="M51.533 77.0942H49.2461V82.8114H51.533V77.0942Z" fill="#8F99B4"/>
		<path d="M54.3103 77.0942H52.0234V82.8114H54.3103V77.0942Z" fill="#8F99B4"/>
		<path d="M46.7964 77.5842H48.6749V77.0942H46.4697V82.8114H46.7964V77.5842Z" fill="#A9C0FF"/>
		<path d="M49.5728 77.5842H51.4513V77.0942H49.2461V82.8114H49.5728V77.5842Z" fill="#A9C0FF"/>
		<path d="M52.3501 77.5842H54.3103V77.0942H52.0234V82.8114H52.3501V77.5842Z" fill="#A9C0FF"/>
		<path d="M62.8039 83.3015H39.8535V84.8533H62.8039V83.3015Z" fill="#1D2E5B"/>
		<path d="M62.8036 84.853H37.3213V86.4048H62.8036V84.853Z" fill="#1D2E5B"/>
		<path d="M62.804 86.3233H34.9531V87.8751H62.804V86.3233Z" fill="#1D2E5B"/>
		<path d="M86.2439 13.715L62.9668 34.5419V36.5021L86.2439 15.5935L109.521 36.5021V34.5419L86.2439 13.715Z" fill="#E5EAF7"/>
	</g>
	<defs>
		<clipPath id="clip0">
			<rect width="81.5923" height="77.5086" fill="white" transform="translate(29.1538 12)"/>
		</clipPath>
	</defs>
</svg>
