<svg width="16" height="17" viewBox="0 0 16 17" fill="none" xmlns="http://www.w3.org/2000/svg">
    <path d="M8.65604 11.1562H7.34354C6.96854 11.1562 6.65604 10.875 6.65604 10.5H1.99979V13.1562C1.99979 13.9062 2.59354 14.5 3.34354 14.5H12.656C13.406 14.5 13.9998 13.9062 13.9998 13.1562V10.5H9.34354C9.34354 10.875 9.03104 11.1562 8.65604 11.1562ZM13.3435 5.15625H10.656C10.656 3.6875 9.46854 2.5 7.99979 2.5C6.53104 2.5 5.34354 3.6875 5.34354 5.15625H2.65604C1.93729 5.15625 1.34354 5.78125 1.34354 6.5V8.5C1.34354 9.25 1.93729 9.84375 2.65604 9.84375H6.65604V9.15625C6.65604 8.8125 6.96854 8.5 7.34354 8.5H8.65604C9.03104 8.5 9.34354 8.8125 9.34354 9.15625V9.84375H13.3435C14.0623 9.84375 14.656 9.21875 14.656 8.5V6.5C14.656 5.78125 14.0623 5.15625 13.3435 5.15625ZM6.65604 5.15625C6.65604 4.4375 7.28104 3.84375 7.99979 3.84375C8.71854 3.84375 9.34354 4.4375 9.34354 5.15625H6.65604Z" fill="#3871EF"/>
</svg>
