<svg width="42" height="42" viewBox="0 0 42 42" fill="none" xmlns="http://www.w3.org/2000/svg">
    <path d="M2.80005 33.5533V39.0133" stroke="#3871EF" stroke-width="1.53015" stroke-miterlimit="10" stroke-linecap="round"/>
    <path d="M6.20679 36.3533V39.0133" stroke="#3871EF" stroke-width="1.53015" stroke-miterlimit="10" stroke-linecap="round"/>
    <path d="M9.56665 36.3533V39.0133" stroke="#3871EF" stroke-width="1.53015" stroke-miterlimit="10" stroke-linecap="round"/>
    <path d="M12.9734 36.3533V39.0133" stroke="#3871EF" stroke-width="1.53015" stroke-miterlimit="10" stroke-linecap="round"/>
    <path d="M16.3801 33.5533V39.0133" stroke="#3871EF" stroke-width="1.53015" stroke-miterlimit="10" stroke-linecap="round"/>
    <path d="M19.74 36.3533V39.0133" stroke="#3871EF" stroke-width="1.53015" stroke-miterlimit="10" stroke-linecap="round"/>
    <path d="M23.1467 36.3533V39.0133" stroke="#3871EF" stroke-width="1.53015" stroke-miterlimit="10" stroke-linecap="round"/>
    <path d="M26.5535 36.3533V39.0133" stroke="#3871EF" stroke-width="1.53015" stroke-miterlimit="10" stroke-linecap="round"/>
    <path d="M29.9133 33.5533V39.0133" stroke="#3871EF" stroke-width="1.53015" stroke-miterlimit="10" stroke-linecap="round"/>
    <path d="M33.9734 30.38H39.4334" stroke="#3871EF" stroke-width="1.53015" stroke-miterlimit="10" stroke-linecap="round"/>
    <path d="M36.7734 27.02H39.4334" stroke="#3871EF" stroke-width="1.53015" stroke-miterlimit="10" stroke-linecap="round"/>
    <path d="M36.7734 23.6133H39.4334" stroke="#3871EF" stroke-width="1.53015" stroke-miterlimit="10" stroke-linecap="round"/>
    <path d="M36.7734 20.2067H39.4334" stroke="#3871EF" stroke-width="1.53015" stroke-miterlimit="10" stroke-linecap="round"/>
    <path d="M33.9734 16.8467H39.4334" stroke="#3871EF" stroke-width="1.53015" stroke-miterlimit="10" stroke-linecap="round"/>
    <path d="M36.7734 13.44H39.4334" stroke="#3871EF" stroke-width="1.53015" stroke-miterlimit="10" stroke-linecap="round"/>
    <path d="M36.7734 10.0333H39.4334" stroke="#3871EF" stroke-width="1.53015" stroke-miterlimit="10" stroke-linecap="round"/>
    <path d="M36.7734 6.67332H39.4334" stroke="#3871EF" stroke-width="1.53015" stroke-miterlimit="10" stroke-linecap="round"/>
    <path d="M33.9734 3.26666H39.4334" stroke="#3871EF" stroke-width="1.53015" stroke-miterlimit="10" stroke-linecap="round"/>
    <path d="M26.5534 6.34666V15.8667H2.80005V15.82H16.94V6.34666H26.5534Z" stroke="#3871EF" stroke-width="1.53015" stroke-miterlimit="10" stroke-linecap="round" stroke-linejoin="round"/>
    <path d="M2.80005 20.9067H26.5534V30.38" stroke="#3871EF" stroke-width="1.53015" stroke-miterlimit="10" stroke-linecap="round" stroke-linejoin="round"/>
    <path d="M9.84668 20.9067V30.38" stroke="#3871EF" stroke-width="1.53015" stroke-miterlimit="10" stroke-linecap="round" stroke-linejoin="round"/>
    <path d="M16.8933 20.9067V30.38" stroke="#3871EF" stroke-width="1.53015" stroke-miterlimit="10" stroke-linecap="round" stroke-linejoin="round"/>
    <path d="M16.8934 12.0867H2.80005V15.8667H16.8934V12.0867Z" stroke="#3871EF" stroke-width="1.53015" stroke-miterlimit="10" stroke-linecap="round" stroke-linejoin="round"/>
    <path d="M26.5533 6.34666H16.9399V15.8667H26.5533V6.34666Z" stroke="#3871EF" stroke-width="1.53015" stroke-miterlimit="10" stroke-linecap="round" stroke-linejoin="round"/>
    <path d="M20.0668 24.92H18.5735V26.4133H20.0668V24.92Z" fill="#3871EF"/>
    <path d="M29.9134 3.26666V30.38H2.80005V15.8667H26.5534V6.34666H16.94V3.26666H29.9134Z" stroke="#3871EF" stroke-width="1.53015" stroke-miterlimit="10" stroke-linecap="round" stroke-linejoin="round"/>
</svg>
