<svg width="32" height="33" viewBox="0 0 32 33" fill="none" xmlns="http://www.w3.org/2000/svg">
    <path d="M2.13379 26.0645V30.2245" stroke="#8F99B4" stroke-width="1.16583" stroke-miterlimit="10" stroke-linecap="round"/>
    <path d="M4.72949 28.1978V30.2245" stroke="#8F99B4" stroke-width="1.16583" stroke-miterlimit="10" stroke-linecap="round"/>
    <path d="M7.28906 28.1978V30.2245" stroke="#8F99B4" stroke-width="1.16583" stroke-miterlimit="10" stroke-linecap="round"/>
    <path d="M9.88477 28.1978V30.2245" stroke="#8F99B4" stroke-width="1.16583" stroke-miterlimit="10" stroke-linecap="round"/>
    <path d="M12.4805 26.0645V30.2245" stroke="#8F99B4" stroke-width="1.16583" stroke-miterlimit="10" stroke-linecap="round"/>
    <path d="M15.04 28.1978V30.2245" stroke="#8F99B4" stroke-width="1.16583" stroke-miterlimit="10" stroke-linecap="round"/>
    <path d="M17.6357 28.1978V30.2245" stroke="#8F99B4" stroke-width="1.16583" stroke-miterlimit="10" stroke-linecap="round"/>
    <path d="M20.2314 28.1978V30.2245" stroke="#8F99B4" stroke-width="1.16583" stroke-miterlimit="10" stroke-linecap="round"/>
    <path d="M22.792 26.0645V30.2245" stroke="#8F99B4" stroke-width="1.16583" stroke-miterlimit="10" stroke-linecap="round"/>
    <path d="M25.8848 23.6467H30.0448" stroke="#8F99B4" stroke-width="1.16583" stroke-miterlimit="10" stroke-linecap="round"/>
    <path d="M28.0186 21.0867H30.0452" stroke="#8F99B4" stroke-width="1.16583" stroke-miterlimit="10" stroke-linecap="round"/>
    <path d="M28.0186 18.4911H30.0452" stroke="#8F99B4" stroke-width="1.16583" stroke-miterlimit="10" stroke-linecap="round"/>
    <path d="M28.0186 15.8956H30.0452" stroke="#8F99B4" stroke-width="1.16583" stroke-miterlimit="10" stroke-linecap="round"/>
    <path d="M25.8848 13.3355H30.0448" stroke="#8F99B4" stroke-width="1.16583" stroke-miterlimit="10" stroke-linecap="round"/>
    <path d="M28.0186 10.74H30.0452" stroke="#8F99B4" stroke-width="1.16583" stroke-miterlimit="10" stroke-linecap="round"/>
    <path d="M28.0186 8.14444H30.0452" stroke="#8F99B4" stroke-width="1.16583" stroke-miterlimit="10" stroke-linecap="round"/>
    <path d="M28.0186 5.58444H30.0452" stroke="#8F99B4" stroke-width="1.16583" stroke-miterlimit="10" stroke-linecap="round"/>
    <path d="M25.8848 2.98889H30.0448" stroke="#8F99B4" stroke-width="1.16583" stroke-miterlimit="10" stroke-linecap="round"/>
    <path d="M20.2316 5.33557V12.5889H2.13379V12.5533H12.9071V5.33557H20.2316Z" stroke="#8F99B4" stroke-width="1.16583" stroke-miterlimit="10" stroke-linecap="round" stroke-linejoin="round"/>
    <path d="M2.13379 16.4289H20.2316V23.6467" stroke="#8F99B4" stroke-width="1.16583" stroke-miterlimit="10" stroke-linecap="round" stroke-linejoin="round"/>
    <path d="M7.50293 16.4289V23.6467" stroke="#8F99B4" stroke-width="1.16583" stroke-miterlimit="10" stroke-linecap="round" stroke-linejoin="round"/>
    <path d="M12.8721 16.4289V23.6467" stroke="#8F99B4" stroke-width="1.16583" stroke-miterlimit="10" stroke-linecap="round" stroke-linejoin="round"/>
    <path d="M12.8716 9.70889H2.13379V12.5889H12.8716V9.70889Z" stroke="#8F99B4" stroke-width="1.16583" stroke-miterlimit="10" stroke-linecap="round" stroke-linejoin="round"/>
    <path d="M20.2317 5.33557H12.9072V12.5889H20.2317V5.33557Z" stroke="#8F99B4" stroke-width="1.16583" stroke-miterlimit="10" stroke-linecap="round" stroke-linejoin="round"/>
    <path d="M15.2891 19.4867H14.1514V20.6244H15.2891V19.4867Z" fill="#8F99B4"/>
    <path d="M22.7916 2.98889V23.6467H2.13379V12.5889H20.2316V5.33556H12.9071V2.98889H22.7916Z" stroke="#8F99B4" stroke-width="1.16583" stroke-miterlimit="10" stroke-linecap="round" stroke-linejoin="round"/>
</svg>
