<svg width="14" height="14" viewBox="0 0 14 14" fill="none" xmlns="http://www.w3.org/2000/svg">
    <path d="M7 1.17578C3.77344 1.17578 1.17578 3.77344 1.17578 7C1.17578 10.2266 3.77344 12.8242 7 12.8242C10.2266 12.8242 12.8242 10.2266 12.8242 7C12.8242 3.77344 10.2266 1.17578 7 1.17578ZM7.57422 11.0742H6.42578V9.92578H7.57422V11.0742ZM8.77734 6.5625L8.25781 7.10938C7.98438 7.41016 7.76562 7.65625 7.65625 8.09375C7.60156 8.28516 7.57422 8.47656 7.57422 8.75H6.42578V8.44922C6.42578 8.20312 6.45312 7.92969 6.53516 7.68359C6.67188 7.35547 6.86328 7.05469 7.10938 6.80859L7.82031 6.07031C8.09375 5.82422 8.23047 5.44141 8.14844 5.03125C8.06641 4.59375 7.73828 4.23828 7.32812 4.12891C6.67188 3.9375 6.09766 4.32031 5.87891 4.86719C5.82422 5.08594 5.63281 5.25 5.41406 5.25H5.25C4.89453 5.25 4.67578 4.92188 4.75781 4.59375C5.00391 3.74609 5.74219 3.08984 6.64453 2.95312C7.51953 2.81641 8.36719 3.25391 8.91406 3.99219C9.59766 4.94922 9.37891 5.96094 8.77734 6.5625Z" fill="#AAB7C8"/>
</svg>
