<svg width="32" height="32" viewBox="0 0 32 32" fill="none" xmlns="http://www.w3.org/2000/svg">
<path d="M2.13379 25.5647V29.7247" stroke="#8F99B4" stroke-width="1.16583" stroke-miterlimit="10" stroke-linecap="round"/>
<path d="M4.72949 27.698V29.7247" stroke="#8F99B4" stroke-width="1.16583" stroke-miterlimit="10" stroke-linecap="round"/>
<path d="M7.28906 27.698V29.7247" stroke="#8F99B4" stroke-width="1.16583" stroke-miterlimit="10" stroke-linecap="round"/>
<path d="M9.88477 27.698V29.7247" stroke="#8F99B4" stroke-width="1.16583" stroke-miterlimit="10" stroke-linecap="round"/>
<path d="M12.4805 25.5647V29.7247" stroke="#8F99B4" stroke-width="1.16583" stroke-miterlimit="10" stroke-linecap="round"/>
<path d="M15.04 27.698V29.7247" stroke="#8F99B4" stroke-width="1.16583" stroke-miterlimit="10" stroke-linecap="round"/>
<path d="M17.6357 27.698V29.7247" stroke="#8F99B4" stroke-width="1.16583" stroke-miterlimit="10" stroke-linecap="round"/>
<path d="M20.2314 27.698V29.7247" stroke="#8F99B4" stroke-width="1.16583" stroke-miterlimit="10" stroke-linecap="round"/>
<path d="M22.792 25.5647V29.7247" stroke="#8F99B4" stroke-width="1.16583" stroke-miterlimit="10" stroke-linecap="round"/>
<path d="M25.8848 23.1467H30.0448" stroke="#8F99B4" stroke-width="1.16583" stroke-miterlimit="10" stroke-linecap="round"/>
<path d="M28.0186 20.5869H30.0452" stroke="#8F99B4" stroke-width="1.16583" stroke-miterlimit="10" stroke-linecap="round"/>
<path d="M28.0186 17.9912H30.0452" stroke="#8F99B4" stroke-width="1.16583" stroke-miterlimit="10" stroke-linecap="round"/>
<path d="M28.0186 15.3958H30.0452" stroke="#8F99B4" stroke-width="1.16583" stroke-miterlimit="10" stroke-linecap="round"/>
<path d="M25.8848 12.8357H30.0448" stroke="#8F99B4" stroke-width="1.16583" stroke-miterlimit="10" stroke-linecap="round"/>
<path d="M28.0186 10.2402H30.0452" stroke="#8F99B4" stroke-width="1.16583" stroke-miterlimit="10" stroke-linecap="round"/>
<path d="M28.0186 7.64453H30.0452" stroke="#8F99B4" stroke-width="1.16583" stroke-miterlimit="10" stroke-linecap="round"/>
<path d="M28.0186 5.08472H30.0452" stroke="#8F99B4" stroke-width="1.16583" stroke-miterlimit="10" stroke-linecap="round"/>
<path d="M25.8848 2.48901H30.0448" stroke="#8F99B4" stroke-width="1.16583" stroke-miterlimit="10" stroke-linecap="round"/>
<path d="M20.2316 4.83569V12.089H2.13379V12.0535H12.9071V4.83569H20.2316Z" stroke="#8F99B4" stroke-width="1.16583" stroke-miterlimit="10" stroke-linecap="round" stroke-linejoin="round"/>
<path d="M2.13379 15.929H20.2316V23.1467" stroke="#8F99B4" stroke-width="1.16583" stroke-miterlimit="10" stroke-linecap="round" stroke-linejoin="round"/>
<path d="M7.50293 15.929V23.1467" stroke="#8F99B4" stroke-width="1.16583" stroke-miterlimit="10" stroke-linecap="round" stroke-linejoin="round"/>
<path d="M12.8721 15.929V23.1467" stroke="#8F99B4" stroke-width="1.16583" stroke-miterlimit="10" stroke-linecap="round" stroke-linejoin="round"/>
<path d="M12.8716 9.20898H2.13379V12.089H12.8716V9.20898Z" stroke="#8F99B4" stroke-width="1.16583" stroke-miterlimit="10" stroke-linecap="round" stroke-linejoin="round"/>
<path d="M20.2317 4.83569H12.9072V12.089H20.2317V4.83569Z" stroke="#8F99B4" stroke-width="1.16583" stroke-miterlimit="10" stroke-linecap="round" stroke-linejoin="round"/>
<path d="M15.2891 18.9868H14.1514V20.1246H15.2891V18.9868Z" fill="#8F99B4"/>
<path d="M22.7916 2.48901V23.1468H2.13379V12.089H20.2316V4.83568H12.9071V2.48901H22.7916Z" stroke="#8F99B4" stroke-width="1.16583" stroke-miterlimit="10" stroke-linecap="round" stroke-linejoin="round"/>
</svg>
