<svg width="64" height="64" viewBox="0 0 64 64" fill="none" xmlns="http://www.w3.org/2000/svg">
<g clip-path="url(#clip0)">
<path d="M58.8001 7.56001V55.09C58.8001 55.86 58.5901 56.56 58.1701 57.12C57.8901 57.54 57.5401 57.89 57.1201 58.17C56.5601 58.52 55.8601 58.8 55.0901 58.8H7.5601C5.5301 58.8 3.8501 57.12 3.8501 55.09V7.56001C3.8501 5.53001 5.5301 3.85001 7.5601 3.85001H55.0901C57.1201 3.85001 58.8001 5.53001 58.8001 7.56001Z" stroke="#8F99B4" stroke-width="2.11729" stroke-miterlimit="10" stroke-linecap="round" stroke-linejoin="round"/>
<path d="M19.7399 23.17C17.3599 23.17 15.3999 21.21 15.3999 18.83C15.3999 16.45 17.3599 14.49 19.7399 14.49C22.1199 14.49 24.0799 16.45 24.0799 18.83C24.0799 21.21 22.1899 23.17 19.7399 23.17Z" stroke="#8F99B4" stroke-width="2.11729" stroke-miterlimit="10" stroke-linecap="round" stroke-linejoin="round"/>
<path d="M58.8001 25.13V55.09C58.8001 55.86 58.5901 56.56 58.1701 57.12L57.1201 58.17C56.5601 58.52 55.8601 58.8 55.0901 58.8H7.5601C5.5301 58.8 3.8501 57.12 3.8501 55.09V42L4.4101 41.44C6.5801 39.27 10.1501 39.27 12.3901 41.44L13.0201 42.07C15.1901 44.24 18.7601 44.24 21.0001 42.07L32.0601 30.94C34.2301 28.77 37.8001 28.77 40.0401 30.94L42.5601 33.46C44.7301 35.63 48.3001 35.63 50.5401 33.46L58.8001 25.13Z" stroke="#8F99B4" stroke-width="2.11729" stroke-miterlimit="10" stroke-linecap="round" stroke-linejoin="round"/>
</g>
<defs>
<clipPath id="clip0">
<rect width="57.05" height="57.05" fill="white" transform="translate(2.7998 2.8)"/>
</clipPath>
</defs>
</svg>
