<svg width="10" height="11" viewBox="0 0 10 11" fill="none" xmlns="http://www.w3.org/2000/svg">
<path d="M0.925781 1.42578C0.925781 1.72656 1.17188 2 1.5 2H8.5C8.82812 2 9.07422 1.72656 9.07422 1.42578C9.07422 1.09766 8.82812 0.824219 8.5 0.824219H1.5C1.17188 0.824219 0.925781 1.09766 0.925781 1.42578ZM2.32031 6.67578H3.25V9.57422C3.25 9.90234 3.52344 10.1758 3.82422 10.1758H6.17578C6.47656 10.1758 6.75 9.90234 6.75 9.57422V6.67578H7.67969C8.19922 6.67578 8.47266 6.04688 8.08984 5.66406L5.41016 2.98438C5.19141 2.76562 4.80859 2.76562 4.58984 2.98438L1.91016 5.66406C1.55469 6.04688 1.80078 6.67578 2.32031 6.67578Z" fill="#3871EF"/>
</svg>
