<svg width="51" height="50" viewBox="0 0 51 50" fill="none" xmlns="http://www.w3.org/2000/svg">
    <path d="M30.582 13.5001C29.3043 12.2223 27.8043 11.5557 26.0265 11.5557C24.2487 11.5557 22.7487 12.2223 21.4709 13.5001C20.1931 14.7779 19.582 16.3334 19.582 18.0557C19.582 19.8334 20.1931 21.3334 21.4709 22.6112C22.7487 23.889 24.2487 24.5001 26.0265 24.5001C27.8043 24.5001 29.3043 23.889 30.582 22.6112C31.8598 21.3334 32.4709 19.8334 32.4709 18.0557C32.4709 16.3334 31.8043 14.7779 30.582 13.5001ZM34.5265 29.5557C31.582 28.389 28.7487 27.7779 26.0265 27.7779C23.3043 27.7779 20.4709 28.389 17.5265 29.5557C14.582 30.7223 13.082 32.2779 13.082 34.2223V42.6112C16.6931 45.3334 21.1931 46.889 26.0265 46.889C30.8598 46.889 35.3598 45.2779 38.9709 42.6112V34.2223C38.9709 32.2779 37.4709 30.7223 34.5265 29.5557Z" stroke="#3871EF" stroke-width="1.66667" stroke-miterlimit="10" stroke-linecap="round" stroke-linejoin="round"/>
    <path d="M47.6947 25.278C47.6947 32.3891 44.3058 38.6669 38.9724 42.6113C35.3613 45.3336 30.8613 46.8891 26.028 46.8891C21.1947 46.8891 16.6947 45.278 13.0836 42.6113C7.80577 38.6669 4.36133 32.3891 4.36133 25.278C4.36133 13.3336 14.028 3.61133 26.028 3.61133C38.028 3.61133 47.6947 13.3336 47.6947 25.278Z" stroke="#3871EF" stroke-width="1.66667" stroke-miterlimit="10" stroke-linecap="round" stroke-linejoin="round"/>
</svg>
