<svg width="57" height="57" viewBox="0 0 57 57" fill="none" xmlns="http://www.w3.org/2000/svg">
    <path d="M15.4962 0L8.94645 15.4499L0.525391 35.2304C9.88212 39.5611 17.2505 47.0519 21.3441 56.5326L56.7827 42.2531C48.8295 23.1748 34.3266 8.31017 15.4962 0ZM21.4611 34.06L21.6365 29.3782L21.8119 24.6964L17.0166 30.1975L14.6774 28.2078L22.9815 18.6101L24.8529 20.2487L24.502 29.6123L29.2973 24.1112L31.6365 26.101L23.3324 35.6986L33.157 27.8566L38.771 34.8793L36.7827 36.5179L33.157 31.9532L31.2856 33.4748L34.6774 37.6884L32.6891 39.327L29.2973 34.9963L27.1921 36.635L30.8178 41.1997L28.8295 42.8383L23.2155 35.8157L23.3324 35.6986L21.4611 34.06Z" fill="#E5EAF7"/>
</svg>
