<svg width="57" height="57" viewBox="0 0 57 57" fill="none" xmlns="http://www.w3.org/2000/svg">
    <path d="M44.9618 6.64561L42.3887 0.325195C23.5583 8.28423 8.70448 22.9148 0.400391 41.6419L35.6051 56.6237C39.9326 47.2601 47.301 39.8863 56.7747 35.7897L44.9618 6.64561ZM32.3302 39.6522L22.9735 40.1204L28.9384 44.334L27.184 46.7919L16.7747 39.4181L18.1782 37.4283L27.5349 36.8431L21.57 32.7466L23.3244 30.1716L33.7337 37.5454L32.3302 39.6522ZM42.2717 30.0545L35.3711 25.8409L38.0612 33.4488L35.9559 35.0874L24.377 28.0648L26.9501 25.958L34.0846 30.5227L31.1606 22.4466L32.915 21.0421L40.2834 25.7239L37.2425 17.6478L39.6986 15.658L44.26 28.4159L42.2717 30.0545Z" fill="#3871EF"/>
</svg>
