<svg width="60" height="43" viewBox="0 0 60 43" fill="none" xmlns="http://www.w3.org/2000/svg">
    <path d="M45.0026 1.15597C35.295 4.78435 24.8856 4.6673 15.295 0.921875L0.324219 36.1523C19.2716 43.8772 40.2073 44.1113 59.2716 36.6205L45.0026 1.15597ZM33.7745 27.9592C32.8388 28.6614 31.4353 29.0126 29.6809 29.0126C28.7453 29.0126 27.8096 28.8955 26.8739 28.5444C25.9383 28.3103 25.2365 27.9592 24.6517 27.491L25.7043 25.1501C26.2891 25.5012 26.9909 25.8524 27.6926 26.0865C28.3944 26.3206 29.0962 26.4376 29.7979 26.4376C30.4997 26.4376 31.0845 26.3206 31.4353 26.2035C31.7862 25.9694 32.0201 25.7353 32.0201 25.3842C32.0201 25.0331 31.9032 24.799 31.5523 24.5649C31.2014 24.3308 30.6166 24.0967 29.564 23.8626C28.3944 23.6285 27.4587 23.2774 26.757 22.9263C26.0552 22.5751 25.5874 22.107 25.3535 21.6388C25.1195 21.1706 25.0026 20.5854 25.0026 19.8831C25.0026 19.0638 25.2365 18.3615 25.7043 17.7763C26.1722 17.1911 26.757 16.7229 27.5757 16.3718C28.3944 16.0206 29.3301 15.9036 30.3827 15.9036C31.3184 15.9036 32.1371 16.0206 33.0728 16.3718C33.8915 16.6059 34.5932 16.957 35.0611 17.4252L34.0084 19.7661C32.8388 18.9467 31.6693 18.4786 30.3827 18.4786C29.7979 18.4786 29.3301 18.5956 28.8622 18.8297C28.5114 19.0638 28.2774 19.4149 28.2774 19.7661C28.2774 20.0001 28.2774 20.2342 28.5114 20.3513C28.6283 20.4683 28.8622 20.5854 29.2131 20.8195C29.564 20.9365 30.1488 21.0535 30.8505 21.2876C32.0201 21.5217 32.9558 21.8729 33.5406 22.224C34.2424 22.5751 34.7102 23.0433 34.9441 23.5115C35.178 23.9797 35.295 24.5649 35.295 25.1501C35.295 26.3206 34.8271 27.2569 33.7745 27.9592Z" fill="#E5EAF7"/>
</svg>
