<svg width="57" height="57" viewBox="0 0 57 57" fill="none" xmlns="http://www.w3.org/2000/svg">
    <path d="M23.3827 22.3901H23.2658L23.3827 22.5072V22.3901ZM23.3827 22.3901H23.2658L23.3827 22.5072V22.3901ZM23.3827 22.3901H23.2658L23.3827 22.5072V22.3901ZM23.3827 22.3901H23.2658L23.3827 22.5072V22.3901ZM23.3827 22.3901H23.2658L23.3827 22.5072V22.3901ZM23.3827 22.3901H23.2658L23.3827 22.5072V22.3901ZM23.3827 22.3901H23.2658L23.3827 22.5072V22.3901ZM23.3827 22.3901H23.2658L23.3827 22.5072V22.3901ZM23.3827 22.3901H23.2658L23.3827 22.5072V22.3901ZM23.3827 22.3901H23.2658L23.3827 22.5072V22.3901ZM23.3827 22.3901H23.2658L23.3827 22.5072V22.3901ZM23.3827 22.3901H23.2658L23.3827 22.5072V22.3901ZM41.2775 8.81296L21.5114 0.385742C17.1839 9.74931 9.69852 17.1231 0.341797 21.2197L12.1547 50.3638L14.7278 56.6842C33.6751 48.7252 48.5289 34.0946 56.833 15.2504L41.2775 8.81296ZM31.9207 30.1151L23.4997 22.6242L24.2014 24.9651C22.7979 25.0822 21.6283 25.5503 20.5757 26.3697C20.1079 26.7208 19.757 27.189 19.64 27.5401C19.5231 27.8912 19.5231 28.3594 19.757 28.5935C19.874 28.8276 20.1079 28.8276 20.2248 28.9446C20.4588 28.9446 20.6927 28.9446 21.0435 28.8276C21.3944 28.7105 21.9792 28.4765 22.564 28.1253C23.6166 27.5401 24.5523 27.189 25.2541 27.0719C25.9558 26.9549 26.6576 26.9549 27.1254 27.0719C27.5932 27.306 28.0611 27.6571 28.5289 28.1253C29.3476 29.0617 29.5816 30.1151 29.2307 31.2855C28.9968 32.456 28.178 33.6264 26.7745 34.6798C26.0728 35.265 25.2541 35.8503 24.3184 36.2014C23.3827 36.5525 22.681 36.7866 21.9792 36.9037L21.2775 34.4457C21.9792 34.3287 22.681 34.2116 23.3827 33.8605C24.0845 33.6264 24.6693 33.1582 25.2541 32.6901C25.8389 32.2219 26.1897 31.7537 26.3067 31.4026C26.5406 31.0514 26.4237 30.7003 26.1897 30.3492C25.9558 30.1151 25.7219 29.998 25.2541 30.1151C24.9032 30.1151 24.2014 30.4662 23.3827 30.9344C22.3301 31.5196 21.3944 31.8707 20.6927 31.9878C19.9909 32.1048 19.2892 32.1048 18.8213 31.9878C18.3535 31.7537 17.8857 31.4026 17.4178 30.9344C16.95 30.3492 16.5991 29.6469 16.5991 28.8276C16.4821 28.1253 16.7161 27.306 17.0669 26.4867C17.4178 25.6674 18.0026 24.9651 18.8213 24.3799C19.5231 23.7947 20.3418 23.3265 21.1605 22.9754C21.9792 22.6242 22.681 22.5072 23.2658 22.5072L22.3301 21.6879L28.295 14.8993L30.2833 16.6549L26.4237 20.9856L28.295 22.6242L31.9207 18.5277L33.7921 20.1663L30.1664 24.2628L32.1547 26.0185L36.0143 21.6879L37.8856 23.4435L31.9207 30.1151ZM23.2658 22.3901L23.3827 22.5072V22.3901H23.2658ZM23.3827 22.3901H23.2658L23.3827 22.5072V22.3901ZM23.3827 22.3901H23.2658L23.3827 22.5072V22.3901ZM23.3827 22.3901H23.2658L23.3827 22.5072V22.3901ZM23.3827 22.3901H23.2658L23.3827 22.5072V22.3901ZM23.3827 22.3901H23.2658L23.3827 22.5072V22.3901ZM23.3827 22.3901H23.2658L23.3827 22.5072V22.3901ZM23.3827 22.3901H23.2658L23.3827 22.5072V22.3901ZM23.3827 22.3901H23.2658L23.3827 22.5072V22.3901ZM23.3827 22.3901H23.2658L23.3827 22.5072V22.3901ZM23.3827 22.3901H23.2658L23.3827 22.5072V22.3901Z" fill="#E5EAF7"/>
</svg>
