<svg width="58" height="58" viewBox="0 0 58 58" fill="none" xmlns="http://www.w3.org/2000/svg">
    <path d="M57.0718 21.9859C47.715 17.6552 40.3466 10.1644 36.253 0.800781L0.814453 15.0802C8.76767 34.0415 23.3876 48.9061 42.101 57.2163L48.6507 41.7664L57.0718 21.9859ZM34.9665 37.6698L32.9782 35.9142L36.0191 28.4233L28.8846 32.4028L26.8963 30.6472L30.9899 20.1131L29.9373 20.3472C29.9373 18.9427 29.5864 17.7723 28.7677 16.7189C28.4168 16.2507 28.0659 15.8995 27.5981 15.7825C27.2472 15.6655 26.7794 15.6655 26.5454 15.8995C26.3115 16.0166 26.1946 16.1336 26.1946 16.3677C26.1946 16.6018 26.1946 16.8359 26.3115 17.187C26.4285 17.5382 26.5454 18.1234 26.8963 18.7086C27.3642 19.762 27.5981 20.6984 27.715 21.4006C27.832 22.1029 27.715 22.8052 27.4811 23.2734C27.2472 23.7415 26.8963 24.2097 26.3115 24.5608C25.2589 25.2631 24.2063 25.4972 23.0367 25.1461C21.8671 24.7949 20.8145 23.8586 19.7618 22.454C19.177 21.6347 18.8261 20.8154 18.4753 19.9961C18.1244 19.0597 18.0074 18.2404 18.0074 17.5382L20.4636 16.9529C20.4636 17.6552 20.6975 18.3575 20.9314 19.0598C21.1653 19.762 21.5162 20.3472 21.8671 20.9325C22.3349 21.5177 22.6858 21.8688 23.0367 22.1029C23.3876 22.337 23.7384 22.337 24.0893 22.1029C24.3232 21.8688 24.4402 21.6347 24.4402 21.1665C24.4402 20.8154 24.2063 20.1132 23.8554 19.1768C23.3876 18.1234 23.0367 17.07 22.9197 16.3677C22.8028 15.5484 22.9197 14.9632 23.1536 14.495C23.3876 14.0268 23.7384 13.5587 24.3232 13.2075C24.908 12.7393 25.6098 12.5052 26.4285 12.5052C27.1302 12.5052 27.949 12.7393 28.6507 13.2075C29.4694 13.6757 30.0542 14.2609 30.756 15.1973C31.2238 15.8995 31.6916 16.7189 32.0425 17.5382C32.1595 17.8893 32.2764 18.2404 32.2764 18.5916L34.2647 20.3472L30.9899 28.1892L38.4753 23.9756L40.2297 25.4972L36.9548 33.4562L44.4402 29.0085L46.7794 31.1153L34.9665 37.6698Z" fill="#E5EAF7"/>
</svg>
