<svg width="51" height="50" viewBox="0 0 51 50" fill="none" xmlns="http://www.w3.org/2000/svg">
    <path d="M47.3066 25.2221C47.3066 35.7332 38.7748 44.2649 28.2637 44.2649C24.1684 44.2649 20.4145 42.9681 17.343 40.784C15.978 39.8284 14.6811 38.6681 13.5891 37.303C12.7018 36.211 11.951 35.0506 11.3367 33.8221C10.7907 32.73 10.3129 31.5697 9.9716 30.3411C9.63033 29.2491 9.42557 28.0887 9.35732 26.8602C9.28906 26.3141 9.28906 25.6998 9.28906 25.1538C9.28906 24.6078 9.28906 23.9935 9.35732 23.4475C9.42557 22.2189 9.69859 21.1268 9.9716 19.9665C10.3129 18.7379 10.7907 17.5776 11.3367 16.4856C11.951 15.257 12.7018 14.0967 13.5891 13.0046C14.6811 11.776 15.9097 10.6157 17.343 9.66015C20.4145 7.47603 24.1684 6.1792 28.2637 6.1792C38.7748 6.1792 47.3066 14.711 47.3066 25.2221Z" stroke="#3871EF" stroke-width="1.66667" stroke-miterlimit="10" stroke-linecap="round" stroke-linejoin="round"/>
    <path d="M17.3418 40.8524C20.4132 43.0365 24.2354 44.3333 28.2624 44.3333H22.3926C18.2973 44.3333 14.5434 43.0365 11.4719 40.8524C10.0386 39.8968 8.81004 38.7365 7.71797 37.3714C6.83067 36.2794 6.07988 35.119 5.46559 33.8905C4.91956 32.7984 4.44178 31.6381 4.10051 30.4095C3.75924 29.3175 3.55448 28.1571 3.48622 26.9286C3.41797 26.3825 3.41797 25.7682 3.41797 25.2222C3.41797 24.6762 3.41797 24.0619 3.48622 23.5159C3.55448 22.2873 3.75924 21.1952 4.03225 20.0349C4.37352 18.8063 4.91956 17.646 5.46559 16.554C6.07988 15.3254 6.83067 14.1651 7.71797 13.073C8.81004 11.7762 10.0386 10.6158 11.4719 9.59204C14.5434 7.40791 18.3656 6.11108 22.3926 6.11108H28.2624C24.1672 6.11108 20.4132 7.40791 17.3418 9.59204C15.9767 10.5476 14.6799 11.7079 13.5878 13.073C12.7005 14.1651 11.9497 15.3254 11.3354 16.554C10.7894 17.646 10.3116 18.8063 9.97035 20.0349C9.62908 21.127 9.42432 22.2873 9.35607 23.5159C9.28781 24.0619 9.28781 24.6762 9.28781 25.2222C9.28781 25.7682 9.28781 26.3825 9.35607 26.9286C9.42432 28.1571 9.69734 29.2492 9.97035 30.4095C10.3116 31.6381 10.7894 32.7984 11.3354 33.8905C11.9497 35.119 12.7005 36.2794 13.5878 37.3714C14.6799 38.6683 15.9085 39.8286 17.3418 40.8524Z" stroke="#3871EF" stroke-width="1.66667" stroke-miterlimit="10" stroke-linecap="round" stroke-linejoin="round"/>
    <path d="M27.7846 44.2646C27.5799 44.2646 25.3958 44.2646 22.3926 44.2646" stroke="#3871EF" stroke-width="1.11111" stroke-miterlimit="10" stroke-linecap="round" stroke-linejoin="round"/>
    <path d="M11.4727 40.8521C19.0489 40.8521 17.1377 40.8521 17.6155 40.8521" stroke="#3871EF" stroke-width="1.11111" stroke-miterlimit="10" stroke-linecap="round" stroke-linejoin="round"/>
    <path d="M7.71875 37.3711C15.9775 37.3711 10.6537 37.3711 11.1997 37.3711" stroke="#3871EF" stroke-width="1.11111" stroke-miterlimit="10" stroke-linecap="round" stroke-linejoin="round"/>
    <path d="M5.39648 33.8899C13.587 33.8899 10.652 33.8899 11.2663 33.8899" stroke="#3871EF" stroke-width="1.11111" stroke-miterlimit="10" stroke-linecap="round" stroke-linejoin="round"/>
    <path d="M9.9012 30.4092C7.78533 30.4092 5.73771 30.4092 4.09961 30.4092" stroke="#3871EF" stroke-width="1.11111" stroke-miterlimit="10" stroke-linecap="round" stroke-linejoin="round"/>
    <path d="M9.28781 26.9966C7.10369 26.9966 5.05607 26.9966 3.41797 26.9966" stroke="#3871EF" stroke-width="1.11111" stroke-miterlimit="10" stroke-linecap="round" stroke-linejoin="round"/>
    <path d="M9.28781 23.5154C7.03543 23.5154 5.05607 23.5154 3.41797 23.5154" stroke="#3871EF" stroke-width="1.11111" stroke-miterlimit="10" stroke-linecap="round" stroke-linejoin="round"/>
    <path d="M9.9011 20.0344C7.71697 20.0344 5.66935 20.0344 4.03125 20.0344" stroke="#3871EF" stroke-width="1.11111" stroke-miterlimit="10" stroke-linecap="round" stroke-linejoin="round"/>
    <path d="M11.2663 16.5535C9.15046 16.5535 7.10283 16.5535 5.39648 16.5535" stroke="#3871EF" stroke-width="1.11111" stroke-miterlimit="10" stroke-linecap="round" stroke-linejoin="round"/>
    <path d="M13.5886 13.1409C11.541 13.1409 9.56161 13.1409 7.71875 13.1409" stroke="#3871EF" stroke-width="1.11111" stroke-miterlimit="10" stroke-linecap="round" stroke-linejoin="round"/>
    <path d="M17.3425 9.65991C15.4314 9.65991 13.3838 9.65991 11.4727 9.65991" stroke="#3871EF" stroke-width="1.11111" stroke-miterlimit="10" stroke-linecap="round" stroke-linejoin="round"/>
    <path d="M22.3926 6.17896C24.9862 6.17896 27.1021 6.17896 28.2624 6.17896C28.8085 6.17896 29.1497 6.17896 29.218 6.17896" stroke="#3871EF" stroke-width="1.11111" stroke-miterlimit="10" stroke-linecap="round" stroke-linejoin="round"/>
    <path d="M36.7262 30.4777C35.1563 32.5935 32.6992 33.8904 29.9008 33.8904C25.1913 33.8904 21.3008 29.9999 21.3008 25.1539C21.3008 20.3078 25.123 16.4856 29.9008 16.4856C32.6992 16.4856 35.1563 17.8507 36.7262 19.8983" stroke="#3871EF" stroke-width="1.66667" stroke-miterlimit="10" stroke-linecap="round" stroke-linejoin="round"/>
    <path d="M18.502 23.5156H32.0162" stroke="#3871EF" stroke-width="1.66667" stroke-miterlimit="10" stroke-linecap="round" stroke-linejoin="round"/>
    <path d="M18.502 27.6111H32.0162" stroke="#3871EF" stroke-width="1.66667" stroke-miterlimit="10" stroke-linecap="round" stroke-linejoin="round"/>
</svg>
