<svg width="51" height="50" viewBox="0 0 51 50" fill="none" xmlns="http://www.w3.org/2000/svg">
    <path d="M46.7784 32.9645L42.7229 45.5756L32.2229 38.5756L9.83398 36.6312L3.83398 20.9645L14.6118 12.909C14.2784 14.0756 14.1118 15.2423 14.1118 16.5201C14.1118 22.7423 18.6673 27.9645 24.6118 28.9645L26.2229 33.5756C26.3895 34.0201 27.0007 34.0201 27.1673 33.5756L28.7784 28.9645C35.1673 27.909 39.9451 22.0201 39.2229 15.2423C38.9451 12.3534 37.6673 9.7423 35.7784 7.79785L40.1118 7.29785L43.834 18.909L46.7784 32.9645Z" stroke="#8F99B4" stroke-width="1.66667" stroke-miterlimit="10" stroke-linejoin="round"/>
    <path d="M28.778 28.9646L27.1669 33.5757C27.0002 34.0202 26.3891 34.0202 26.2224 33.5757L24.6113 28.9646C18.6669 27.9646 14.1113 22.7424 14.1113 16.5202C14.1113 15.2424 14.278 14.0757 14.6113 12.9091C16.278 7.46462 21.4447 3.57573 27.5002 3.90906C30.7224 4.13129 33.6113 5.57573 35.778 7.79795C37.6669 9.7424 38.9447 12.3535 39.2224 15.1868C39.9447 22.0202 35.1669 27.8535 28.778 28.9646Z" stroke="#8F99B4" stroke-width="1.66667" stroke-miterlimit="10" stroke-linecap="round"/>
    <path d="M21.9453 12.4645C21.9453 9.52008 24.612 7.18675 27.6675 7.79786C29.5009 8.18675 31.0009 9.63119 31.3898 11.5201C31.8898 14.0756 30.3898 16.2979 28.1675 17.0201C27.3342 17.2979 26.7231 18.0756 26.7231 18.9645V21.3534" stroke="#8F99B4" stroke-width="1.66667" stroke-miterlimit="10" stroke-linecap="round"/>
    <path d="M26.7227 24.8535V23.9646" stroke="#8F99B4" stroke-width="1.66667" stroke-miterlimit="10" stroke-linecap="round"/>
    <path d="M32.2227 38.5757L35.5004 33.1313L46.7782 32.9646" stroke="#8F99B4" stroke-width="1.11111" stroke-miterlimit="10" stroke-linecap="round" stroke-linejoin="round"/>
    <path d="M9.7793 36.6315L20.0015 27.187" stroke="#8F99B4" stroke-width="1.11111" stroke-miterlimit="10" stroke-linecap="round" stroke-linejoin="round"/>
</svg>
