<svg width="51" height="50" viewBox="0 0 51 50" fill="none" xmlns="http://www.w3.org/2000/svg">
    <path d="M40.4438 38.0554V42.2776C40.4438 43.2776 39.6105 44.0554 38.666 44.0554H11.9438C10.9438 44.0554 10.166 43.2221 10.166 42.2776V38.0554H40.4438V38.0554Z" stroke="#8F99B4" stroke-width="1.66667" stroke-miterlimit="10" stroke-linejoin="round"/>
    <path d="M44.2229 37.0556C44.2229 37.6111 43.7784 38.0556 43.2229 38.0556H7.33398C6.77843 38.0556 6.33398 37.6111 6.33398 37.0556C6.33398 33.7778 9.00065 31.1111 12.334 31.1111H21.8895L22.7784 24.6111C23.0007 23 22.2784 21.4445 20.9451 20.5556C18.5562 19 17.334 16.4445 17.334 13.8334C17.334 11.8889 18.0562 9.94447 19.5007 8.38892C21.0562 6.72225 23.2229 5.88892 25.334 5.88892C27.4451 5.88892 29.5007 6.66669 31.1118 8.33336L31.1673 8.38892C34.5562 12 33.8895 17.7778 29.7784 20.5L29.6118 20.6111C28.2784 21.5 27.5562 23.0556 27.7784 24.6667L28.6673 31.1111H38.2229C39.8895 31.1111 41.3895 31.7778 42.4451 32.8889C43.5562 33.9445 44.2229 35.4445 44.2229 37.0556Z" stroke="#8F99B4" stroke-width="1.66667" stroke-miterlimit="10" stroke-linejoin="round"/>
    <path d="M20.3882 12.7222C20.1104 13.9999 20.3882 15.3333 21.0548 16.4444" stroke="#8F99B4" stroke-width="1.66667" stroke-miterlimit="10" stroke-linecap="round" stroke-linejoin="round"/>
    <path d="M28.6109 10.0554C27.722 9.22203 26.5553 8.77759 25.2776 8.77759C24.222 8.77759 23.222 9.11092 22.3887 9.66648" stroke="#8F99B4" stroke-width="1.66667" stroke-miterlimit="10" stroke-linecap="round" stroke-linejoin="round"/>
</svg>
