<svg width="36" height="36" viewBox="0 0 36 36" fill="none" xmlns="http://www.w3.org/2000/svg">
    <path fill-rule="evenodd" clip-rule="evenodd" d="M11.2 18.1999C11.2 18.5313 11.4686 18.7999 11.8 18.7999C12.1314 18.7999 12.4 18.5313 12.4 18.1999C12.4 17.8685 12.1314 17.5999 11.8 17.5999C11.4686 17.5999 11.2 17.8685 11.2 18.1999ZM11.8 16.3999C10.8059 16.3999 10 17.2058 10 18.1999C10 19.194 10.8059 19.9999 11.8 19.9999C12.7941 19.9999 13.6 19.194 13.6 18.1999C13.6 17.2058 12.7941 16.3999 11.8 16.3999ZM17.6 18.2C17.6 18.5314 17.8686 18.8 18.2 18.8C18.5314 18.8 18.8 18.5314 18.8 18.2C18.8 17.8686 18.5314 17.6 18.2 17.6C17.8686 17.6 17.6 17.8686 17.6 18.2ZM18.2 16.4C17.2059 16.4 16.4 17.2059 16.4 18.2C16.4 19.1941 17.2059 20 18.2 20C19.1941 20 20 19.1941 20 18.2C20 17.2059 19.1941 16.4 18.2 16.4ZM24.6 18.8C24.2686 18.8 24 18.5314 24 18.2C24 17.8686 24.2686 17.6 24.6 17.6C24.9314 17.6 25.2 17.8686 25.2 18.2C25.2 18.5314 24.9314 18.8 24.6 18.8ZM22.8 18.2C22.8 17.2059 23.6059 16.4 24.6 16.4C25.5941 16.4 26.4 17.2059 26.4 18.2C26.4 19.1941 25.5941 20 24.6 20C23.6059 20 22.8 19.1941 22.8 18.2Z" fill="#3871EF"/>
    <rect x="3.40078" y="3.40005" width="29.2" height="29.2" rx="14.6" stroke="#3871EF" stroke-width="1.2"/>
</svg>
