<svg width="51" height="50" viewBox="0 0 51 50" fill="none" xmlns="http://www.w3.org/2000/svg">
    <path d="M46.2395 4.31527V36.2647C46.2395 37.188 45.2519 37.7421 44.4494 37.3112L43.9556 37.0034C43.4 36.6956 42.8445 36.3878 42.2889 36.08C40.1284 34.9103 37.8445 33.8638 35.5605 32.9404C31.5482 31.3399 27.4124 30.1703 23.2148 29.4316V11.1484L23.6469 11.0868C27.721 10.3481 31.7334 9.24003 35.6223 7.70104C37.9062 6.77765 40.1902 5.73114 42.3506 4.56151C43.0914 4.19215 43.8321 3.76123 44.5111 3.33032C45.2519 2.83784 46.2395 3.39187 46.2395 4.31527Z" stroke="#3871EF" stroke-width="1.66667" stroke-miterlimit="10" stroke-linecap="round" stroke-linejoin="round"/>
    <path d="M13.9553 29.4932H23.1529V11.1484H13.9553C8.89361 11.1484 4.75781 15.2729 4.75781 20.3208C4.75781 25.3687 8.89361 29.4932 13.9553 29.4932Z" stroke="#3871EF" stroke-width="1.66667" stroke-miterlimit="10" stroke-linecap="round" stroke-linejoin="round"/>
    <path d="M23.1537 11.1484H17.166V29.4932H23.1537V11.1484Z" stroke="#3871EF" stroke-width="1.66667" stroke-miterlimit="10" stroke-linecap="round" stroke-linejoin="round"/>
    <path d="M42.2889 4.56152V36.08C40.1284 34.9104 37.8445 33.8639 35.5605 32.9405V7.70106C37.8445 6.77767 40.0667 5.73115 42.2889 4.56152Z" stroke="#3871EF" stroke-width="1.11111" stroke-miterlimit="10" stroke-linecap="round" stroke-linejoin="round"/>
    <path d="M23.2141 29.4314H15.1895V33.1865H23.2141V29.4314Z" stroke="#3871EF" stroke-width="1.66667" stroke-miterlimit="10" stroke-linecap="round" stroke-linejoin="round"/>
    <path d="M26.9803 46.2987H22.8445C22.1038 46.2987 21.3631 45.9909 20.8075 45.4369L19.8816 44.4519C16.9186 41.4971 15.252 37.4957 15.252 33.3097V33.125H23.2766C23.2766 37.311 24.8816 41.374 27.8445 44.3904C28.4001 45.1291 27.9063 46.2987 26.9803 46.2987Z" stroke="#3871EF" stroke-width="1.66667" stroke-miterlimit="10" stroke-linecap="round" stroke-linejoin="round"/>
    <path d="M9.88281 15.6423C10.9939 14.6573 12.4754 14.1033 14.0186 14.1033" stroke="#3871EF" stroke-width="1.66667" stroke-miterlimit="10" stroke-linecap="round" stroke-linejoin="round"/>
    <path d="M7.84602 21.4288C7.66084 20.2591 7.72257 19.0895 8.21639 17.9814" stroke="#3871EF" stroke-width="1.66667" stroke-miterlimit="10" stroke-linecap="round" stroke-linejoin="round"/>
</svg>
