<svg width="51" height="50" viewBox="0 0 51 50" fill="none" xmlns="http://www.w3.org/2000/svg">
    <path d="M29.8383 10.1628C28.6622 8.92131 27.2247 8.33325 25.5259 8.33325C23.827 8.33325 22.4549 8.92131 21.2134 10.1628C20.0373 11.4042 19.4492 12.8417 19.4492 14.4752C19.4492 16.1087 20.0373 17.6116 21.2134 18.7877C22.3895 19.9638 23.827 20.5519 25.5259 20.5519C27.2247 20.5519 28.6622 19.9638 29.8383 18.7877C31.0145 17.6116 31.6025 16.1741 31.6025 14.4752C31.6025 12.7764 31.0145 11.4042 29.8383 10.1628Z" stroke="#3871EF" stroke-width="1.66667" stroke-miterlimit="10" stroke-linecap="round" stroke-linejoin="round"/>
    <path d="M45.6513 22.5775C43.6258 21.7934 41.7309 21.4014 39.836 21.4014C38.0065 21.4014 36.0463 21.7934 34.0207 22.5775C32.6486 23.1002 31.7992 23.7536 31.3418 24.5377C32.0605 24.7338 32.8446 24.9951 33.5634 25.3218C36.373 26.4326 37.7451 27.9354 37.7451 29.6996V34.2081C38.3985 34.3388 39.1173 34.3388 39.7707 34.3388C43.1031 34.3388 46.1087 33.228 48.5916 31.3985V25.6485C48.657 24.407 47.6115 23.3616 45.6513 22.5775ZM42.907 11.6657C42.0576 10.8163 41.0122 10.3589 39.836 10.3589C38.6599 10.3589 37.6145 10.8163 36.765 11.6657C35.9156 12.5151 35.4582 13.5606 35.4582 14.802C35.4582 16.0435 35.8503 17.0236 36.765 17.873C37.6145 18.7224 38.6599 19.1798 39.836 19.1798C41.0122 19.1798 42.0576 18.7224 42.907 17.873C43.7565 17.0236 44.2138 15.9782 44.2138 14.802C44.2138 13.6259 43.7565 12.5151 42.907 11.6657Z" stroke="#3871EF" stroke-width="1.66667" stroke-miterlimit="10" stroke-linecap="round" stroke-linejoin="round"/>
    <path d="M17.4878 22.5775C15.4622 21.7934 13.5674 21.4014 11.6725 21.4014C9.84297 21.4014 7.88277 21.7934 5.85722 22.5775C3.83167 23.3616 2.85156 24.4071 2.85156 25.7139V31.4638C5.33449 33.2933 8.34015 34.4041 11.6725 34.4041C12.1952 34.4041 12.7179 34.3388 13.2407 34.3388V29.765C13.2407 27.9354 14.6128 26.4979 17.4224 25.3872C18.2719 24.9951 19.1866 24.7338 20.0361 24.4724C19.644 23.6883 18.7946 23.1002 17.4878 22.5775ZM14.8088 11.6657C13.9594 10.8163 12.914 10.3589 11.7378 10.3589C10.5617 10.3589 9.51627 10.8163 8.66685 11.6657C7.81743 12.5151 7.36004 13.5606 7.36004 14.802C7.36004 16.0435 7.75209 17.0236 8.66685 17.873C9.51627 18.7224 10.5617 19.1798 11.7378 19.1798C12.914 19.1798 13.9594 18.7224 14.8088 17.873C15.6583 17.0236 16.1156 15.9782 16.1156 14.802C16.1156 13.6259 15.6583 12.5151 14.8088 11.6657Z" stroke="#3871EF" stroke-width="1.66667" stroke-miterlimit="10" stroke-linecap="round" stroke-linejoin="round"/>
    <path d="M37.8103 29.6997V37.6712C34.4126 40.2195 30.1655 41.7223 25.5917 41.7223C21.0179 41.7223 16.7707 40.2195 13.373 37.6712V29.6997C13.373 27.8702 14.7452 26.4327 17.5548 25.3219C18.4042 24.9299 19.319 24.6685 20.1684 24.4071C21.998 23.8844 23.8275 23.623 25.5917 23.623C27.4866 23.623 29.3814 23.9497 31.407 24.5378C32.1257 24.7338 32.9098 24.9952 33.6285 25.3219C36.3728 26.4327 37.8103 27.9355 37.8103 29.6997Z" stroke="#3871EF" stroke-width="1.66667" stroke-miterlimit="10" stroke-linecap="round" stroke-linejoin="round"/>
</svg>
