<svg width="16" height="17" viewBox="0 0 16 17" fill="none" xmlns="http://www.w3.org/2000/svg">
    <path opacity="0.4" d="M5.34378 11.8438C4.96878 11.8438 4.65628 11.5312 4.65628 11.1562V7.84375C4.65628 7.46875 4.96878 7.15625 5.34378 7.15625C5.68753 7.15625 6.00003 7.46875 6.00003 7.84375V11.1562C6.00003 11.5312 5.68753 11.8438 5.34378 11.8438ZM8.00003 11.8438C7.62503 11.8438 7.34378 11.5312 7.34378 11.1562V5.84375C7.34378 5.46875 7.62503 5.15625 8.00003 5.15625C8.37503 5.15625 8.65628 5.46875 8.65628 5.84375V11.1562C8.65628 11.5312 8.37503 11.8438 8.00003 11.8438ZM10.6563 11.8438C10.3125 11.8438 10 11.5312 10 11.1562V9.84375C10 9.46875 10.3125 9.15625 10.6563 9.15625C11.0313 9.15625 11.3438 9.46875 11.3438 9.84375V11.1562C11.3438 11.5312 11.0313 11.8438 10.6563 11.8438ZM12 13.1562H4.00003C3.62503 13.1562 3.34378 12.875 3.34378 12.5V4.5C3.34378 4.125 3.62503 3.84375 4.00003 3.84375H12C12.375 3.84375 12.6563 4.125 12.6563 4.5V12.5C12.6563 12.875 12.375 13.1562 12 13.1562ZM12.6563 2.5H3.34378C2.59378 2.5 2.00003 3.09375 2.00003 3.84375V13.1562C2.00003 13.9062 2.59378 14.5 3.34378 14.5H12.6563C13.4063 14.5 14 13.9062 14 13.1562V3.84375C14 3.09375 13.4063 2.5 12.6563 2.5Z" fill="#1D2E5B"/>
</svg>
