<svg width="16" height="17" viewBox="0 0 16 17" fill="none" xmlns="http://www.w3.org/2000/svg">
    <path d="M13.3438 2.5H8.00003C7.62503 2.5 7.34378 2.8125 7.34378 3.15625V4.25L10.6875 7.25C11.0938 7.625 11.3438 8.15625 11.3438 8.71875V9.15625H12.6563V10.5H11.3438V11.8438H12.6563V13.1562H11.3438V14.5H13.3438C13.6875 14.5 14 14.1875 14 13.8438V3.15625C14 2.8125 13.6875 2.5 13.3438 2.5ZM10 5.15625H8.65628V3.84375H10V5.15625ZM12.6563 7.84375H11.3438V6.5H12.6563V7.84375ZM12.6563 5.15625H11.3438V3.84375H12.6563V5.15625ZM10 13.8438V8.71875C10 8.53125 9.90628 8.375 9.78128 8.25L6.43753 5.25C6.31253 5.125 6.15628 5.0625 6.00003 5.0625C5.84378 5.0625 5.68753 5.125 5.56253 5.25L2.21878 8.25C2.09378 8.375 2.00003 8.53125 2.00003 8.71875V13.8438C2.00003 14.1875 2.31253 14.5 2.65628 14.5H4.00003C4.37503 14.5 4.65628 14.1875 4.65628 13.8438V11.1562H7.34378V13.8438C7.34378 14.1875 7.62503 14.5 8.00003 14.5H9.34378C9.68753 14.5 10 14.1875 10 13.8438Z" fill="#3871EF"/>
</svg>