<svg width="16" height="17" viewBox="0 0 16 17" fill="none" xmlns="http://www.w3.org/2000/svg">
    <path opacity="0.4" d="M8.00003 1.84375C4.31253 1.84375 1.34378 4.8125 1.34378 8.5C1.34378 12.1875 4.31253 15.1562 8.00003 15.1562C11.6875 15.1562 14.6563 12.1875 14.6563 8.5C14.6563 4.8125 11.6875 1.84375 8.00003 1.84375ZM8.00003 3.84375C9.09378 3.84375 10 4.71875 10 5.84375C10 6.9375 9.09378 7.84375 8.00003 7.84375C6.90628 7.84375 6.00003 6.9375 6.00003 5.84375C6.00003 4.71875 6.90628 3.84375 8.00003 3.84375ZM8.00003 13.3125C6.34378 13.3125 4.87503 12.4375 4.00003 11.1562C4.03128 9.8125 6.65628 9.09375 8.00003 9.09375C9.31253 9.09375 11.9688 9.8125 12 11.1562C11.125 12.4375 9.65628 13.3125 8.00003 13.3125Z" fill="#1D2E5B"/>
</svg>
