<svg width="16" height="17" viewBox="0 0 16 17" fill="none" xmlns="http://www.w3.org/2000/svg">
    <path opacity="0.6" d="M7.99979 1.84375C5.40604 1.84375 3.34354 3.90625 3.34354 6.5C3.34354 9.28125 6.28104 13.125 7.49979 14.5625C7.74979 14.9062 8.24979 14.9062 8.49979 14.5625C9.71854 13.125 12.656 9.28125 12.656 6.5C12.656 3.90625 10.5935 1.84375 7.99979 1.84375ZM7.99979 8.15625C7.09354 8.15625 6.34354 7.40625 6.34354 6.5C6.34354 5.59375 7.09354 4.84375 7.99979 4.84375C8.90604 4.84375 9.65604 5.59375 9.65604 6.5C9.65604 7.40625 8.90604 8.15625 7.99979 8.15625Z" fill="#1D2E5B"/>
</svg>
