<svg width="16" height="17" viewBox="0 0 16 17" fill="none" xmlns="http://www.w3.org/2000/svg">
    <path opacity="0.6" d="M12.031 13.375C11.781 13.625 11.3435 13.625 11.0935 13.375L9.68729 11.9375C9.40604 11.6875 9.40604 11.2812 9.68729 11C9.93729 10.75 10.3748 10.75 10.6248 11L11.5623 11.9375L13.906 9.59375C14.1873 9.3125 14.5935 9.3125 14.8748 9.59375C15.1248 9.84375 15.1248 10.2812 14.8748 10.5312L12.031 13.375ZM7.99979 11.8438C7.99979 9.25 10.0935 7.15625 12.656 7.15625C13.3748 7.15625 14.0623 7.34375 14.656 7.625V3.15625C14.656 2.4375 14.0623 1.84375 13.3435 1.84375H2.65604C1.93729 1.84375 1.34354 2.4375 1.34354 3.15625V15.1562L3.99979 12.5H7.99979C7.99979 12.375 7.99979 12.2812 8.03104 12.1562C7.99979 12.0625 7.99979 11.9375 7.99979 11.8438Z" fill="#1D2E5B"/>
</svg>
