<svg width="16" height="17" viewBox="0 0 16 17" fill="none" xmlns="http://www.w3.org/2000/svg">
    <path opacity="0.6" d="M12.8123 10.6875L11.1248 10.4688C10.7185 10.4375 10.3123 10.5625 10.031 10.875L8.81229 12.0938C6.90604 11.125 5.37479 9.59375 4.40604 7.6875L5.65604 6.46875C5.93729 6.1875 6.06229 5.78125 6.03104 5.375L5.84354 3.6875C5.74979 3 5.18729 2.5 4.49979 2.5H3.34354C2.59354 2.5 1.96854 3.125 2.03104 3.875C2.37479 9.59375 6.93729 14.125 12.6248 14.4688C13.3748 14.5312 13.9998 13.9062 13.9998 13.1562V12C13.9998 11.3125 13.4998 10.75 12.8123 10.6875Z" fill="#1D2E5B"/>
</svg>
