<svg width="16" height="17" viewBox="0 0 16 17" fill="none" xmlns="http://www.w3.org/2000/svg">
    <path opacity="0.6" d="M10.656 7.15625H5.34354C4.96854 7.15625 4.65604 7.46875 4.65604 7.84375C4.65604 8.1875 4.96854 8.5 5.34354 8.5H10.656C11.031 8.5 11.3435 8.1875 11.3435 7.84375C11.3435 7.46875 11.031 7.15625 10.656 7.15625ZM12.656 2.5H11.9998V1.84375C11.9998 1.46875 11.6873 1.15625 11.3435 1.15625C10.9685 1.15625 10.656 1.46875 10.656 1.84375V2.5H5.34354V1.84375C5.34354 1.46875 5.03104 1.15625 4.65604 1.15625C4.31229 1.15625 3.99979 1.46875 3.99979 1.84375V2.5H3.34354C2.59354 2.5 1.99979 3.09375 1.99979 3.84375V13.1562C1.99979 13.9062 2.59354 14.5 3.34354 14.5H12.656C13.406 14.5 13.9998 13.9062 13.9998 13.1562V3.84375C13.9998 3.09375 13.406 2.5 12.656 2.5ZM11.9998 13.1562H3.99979C3.62479 13.1562 3.34354 12.875 3.34354 12.5V5.84375H12.656V12.5C12.656 12.875 12.3748 13.1562 11.9998 13.1562ZM8.65604 9.84375H5.34354C4.96854 9.84375 4.65604 10.125 4.65604 10.5C4.65604 10.875 4.96854 11.1562 5.34354 11.1562H8.65604C9.03104 11.1562 9.34354 10.875 9.34354 10.5C9.34354 10.125 9.03104 9.84375 8.65604 9.84375Z" fill="#1D2E5B"/>
</svg>
