<svg width="9" height="10" viewBox="0 0 9 10" fill="none" xmlns="http://www.w3.org/2000/svg">
<path d="M7.91646 8.34443L8.03429 8.93959C8.05241 9.03325 8.01012 9.13294 7.92552 9.17826C7.35755 9.4985 6.61737 9.65862 5.69894 9.65862C4.46631 9.65862 3.44818 9.26587 2.6506 8.47736C2.16117 7.98793 1.81978 7.35953 1.62945 6.59216C1.60528 6.49246 1.51465 6.41995 1.40891 6.41995H0.75332C0.629453 6.41995 0.526733 6.31723 0.526733 6.19337V5.80666C0.526733 5.68279 0.629453 5.58007 0.75332 5.58007H1.2367C1.36661 5.58007 1.46933 5.47131 1.46027 5.34443V5.3414C1.45423 5.25077 1.4512 5.19337 1.4512 5.1692C1.4512 5.09669 1.45725 4.97887 1.46631 4.8127C1.47537 4.68279 1.37265 4.57101 1.23972 4.57101H0.750298C0.626431 4.57101 0.523712 4.46829 0.523712 4.34442V3.97584C0.523712 3.85198 0.626431 3.74926 0.750298 3.74926H1.44516C1.54788 3.74926 1.63549 3.68279 1.66268 3.58309C1.8651 2.84593 2.20951 2.23264 2.69894 1.74322C3.55694 0.88521 4.63549 0.459229 5.93761 0.459229C6.62945 0.459229 7.26994 0.589138 7.85906 0.851978C7.9648 0.900316 8.01918 1.01814 7.98293 1.12992L7.78051 1.7553C7.73821 1.88219 7.59924 1.94865 7.47537 1.89427C7.0071 1.69186 6.48746 1.58914 5.91948 1.58914C5.07356 1.58914 4.37266 1.86406 3.81072 2.41089C3.49954 2.72207 3.28806 3.0695 3.17326 3.45319C3.13096 3.60122 3.2367 3.74624 3.39078 3.74624H7.13096C7.25483 3.74624 7.35755 3.84896 7.35755 3.97282V4.3414C7.35755 4.46527 7.25483 4.56799 7.13096 4.56799H3.14909C3.03126 4.56799 2.93157 4.65862 2.9225 4.77645C2.91042 4.9124 2.9074 5.00908 2.9074 5.06346C2.9074 5.17222 2.91042 5.2689 2.91344 5.35953C2.91646 5.48038 3.01918 5.57705 3.14003 5.57705H7.137C7.26087 5.57705 7.36359 5.67977 7.36359 5.80364V6.19035C7.36359 6.31421 7.26087 6.41693 7.137 6.41693H3.39682C3.23972 6.41693 3.13096 6.57101 3.18232 6.71905C3.31525 7.10273 3.50861 7.41391 3.76238 7.64956C4.33338 8.20847 5.05241 8.48944 5.9225 8.48944C6.56601 8.48944 7.12492 8.3837 7.59924 8.17524C7.73217 8.12388 7.88927 8.20243 7.91646 8.34443Z" fill="white"/>
</svg>
